<mxfile host="Electron" modified="2023-05-31T21:29:39.502Z" agent="Mozilla/5.0 (Macintosh; Intel Mac OS X 10_15_7) AppleWebKit/537.36 (KHTML, like Gecko) draw.io/21.1.2 Chrome/106.0.5249.199 Electron/21.4.3 Safari/537.36" etag="-fkSUiJTogdD8QNJK_tS" version="21.1.2" type="device" pages="6">
  <diagram id="eiVE7nmRUaXh3oZUbuGd" name="ItÃ©ration novembre">
    <mxGraphModel dx="1230" dy="899" grid="1" gridSize="10" guides="1" tooltips="1" connect="1" arrows="1" fold="1" page="1" pageScale="1" pageWidth="827" pageHeight="1169" math="0" shadow="0">
      <root>
        <mxCell id="0" />
        <mxCell id="1" parent="0" />
        <mxCell id="8WtqMCCHPkEt0XFhNSsm-4" value="" style="rounded=0;whiteSpace=wrap;html=1;dashed=1;fillColor=none;" parent="1" vertex="1">
          <mxGeometry x="485" y="515" width="360" height="245" as="geometry" />
        </mxCell>
        <mxCell id="8WtqMCCHPkEt0XFhNSsm-22" value="" style="rounded=0;whiteSpace=wrap;html=1;dashed=1;fillColor=none;" parent="1" vertex="1">
          <mxGeometry x="610" y="80" width="535" height="180" as="geometry" />
        </mxCell>
        <mxCell id="8WtqMCCHPkEt0XFhNSsm-1" value="" style="rounded=0;whiteSpace=wrap;html=1;dashed=1;fillColor=none;" parent="1" vertex="1">
          <mxGeometry x="170" y="270" width="270" height="160" as="geometry" />
        </mxCell>
        <mxCell id="i4IOWuwlbH9UK5ae7Tf7-2" value="Jetson Nano" style="rounded=0;whiteSpace=wrap;html=1;" parent="1" vertex="1">
          <mxGeometry x="525" y="290" width="120" height="60" as="geometry" />
        </mxCell>
        <mxCell id="i4IOWuwlbH9UK5ae7Tf7-3" value="" style="endArrow=classic;html=1;rounded=0;entryX=0;entryY=0.5;entryDx=0;entryDy=0;exitX=1;exitY=0.5;exitDx=0;exitDy=0;fillColor=#ffe6cc;strokeColor=#FF00FF;startArrow=classic;startFill=1;endFill=1;" parent="1" source="i4IOWuwlbH9UK5ae7Tf7-4" target="i4IOWuwlbH9UK5ae7Tf7-2" edge="1">
          <mxGeometry width="50" height="50" relative="1" as="geometry">
            <mxPoint x="419" y="320" as="sourcePoint" />
            <mxPoint x="469" y="285" as="targetPoint" />
          </mxGeometry>
        </mxCell>
        <mxCell id="i4IOWuwlbH9UK5ae7Tf7-4" value="Raspberry Pi 3 B+" style="rounded=0;whiteSpace=wrap;html=1;" parent="1" vertex="1">
          <mxGeometry x="299" y="290" width="120" height="60" as="geometry" />
        </mxCell>
        <mxCell id="i4IOWuwlbH9UK5ae7Tf7-5" value="LAN" style="text;html=1;strokeColor=none;fillColor=none;align=center;verticalAlign=middle;whiteSpace=wrap;rounded=0;fontColor=#FF00FF;" parent="1" vertex="1">
          <mxGeometry x="449" y="300" width="60" height="20" as="geometry" />
        </mxCell>
        <mxCell id="i4IOWuwlbH9UK5ae7Tf7-6" value="&lt;font&gt;Raspberry Pi Cam&lt;/font&gt;" style="rounded=0;whiteSpace=wrap;html=1;fontColor=#F0F0F0;" parent="1" vertex="1">
          <mxGeometry x="185" y="290" width="80" height="60" as="geometry" />
        </mxCell>
        <mxCell id="i4IOWuwlbH9UK5ae7Tf7-7" value="" style="endArrow=classic;html=1;rounded=0;fontColor=#000000;exitX=1;exitY=0.5;exitDx=0;exitDy=0;entryX=0;entryY=0.5;entryDx=0;entryDy=0;strokeWidth=1;startArrow=none;startFill=0;endFill=1;" parent="1" source="i4IOWuwlbH9UK5ae7Tf7-6" target="i4IOWuwlbH9UK5ae7Tf7-4" edge="1">
          <mxGeometry width="50" height="50" relative="1" as="geometry">
            <mxPoint x="335" y="430" as="sourcePoint" />
            <mxPoint x="385" y="380" as="targetPoint" />
          </mxGeometry>
        </mxCell>
        <mxCell id="i4IOWuwlbH9UK5ae7Tf7-8" value="" style="endArrow=classic;dashed=1;html=1;rounded=0;fontColor=#000000;exitX=0.5;exitY=0;exitDx=0;exitDy=0;strokeColor=#FF00FF;dashPattern=1 1;startArrow=classic;startFill=1;endFill=1;" parent="1" source="i4IOWuwlbH9UK5ae7Tf7-4" edge="1">
          <mxGeometry width="50" height="50" relative="1" as="geometry">
            <mxPoint x="355" y="260" as="sourcePoint" />
            <mxPoint x="225" y="200" as="targetPoint" />
            <Array as="points">
              <mxPoint x="359" y="200" />
            </Array>
          </mxGeometry>
        </mxCell>
        <mxCell id="i4IOWuwlbH9UK5ae7Tf7-9" value="LW 20/C" style="rounded=0;whiteSpace=wrap;html=1;fontColor=#F0F0F0;" parent="1" vertex="1">
          <mxGeometry x="185" y="380" width="80" height="40" as="geometry" />
        </mxCell>
        <mxCell id="i4IOWuwlbH9UK5ae7Tf7-10" value="" style="endArrow=classic;html=1;rounded=0;fontColor=#000000;exitX=1;exitY=0.5;exitDx=0;exitDy=0;entryX=0.5;entryY=1;entryDx=0;entryDy=0;endFill=1;" parent="1" source="i4IOWuwlbH9UK5ae7Tf7-9" target="i4IOWuwlbH9UK5ae7Tf7-4" edge="1">
          <mxGeometry width="50" height="50" relative="1" as="geometry">
            <mxPoint x="435" y="430" as="sourcePoint" />
            <mxPoint x="355" y="390" as="targetPoint" />
            <Array as="points">
              <mxPoint x="359" y="400" />
            </Array>
          </mxGeometry>
        </mxCell>
        <mxCell id="i4IOWuwlbH9UK5ae7Tf7-12" value="" style="endArrow=none;html=1;rounded=0;fontColor=#000000;strokeColor=#009900;" parent="1" edge="1">
          <mxGeometry width="50" height="50" relative="1" as="geometry">
            <mxPoint x="585" y="540" as="sourcePoint" />
            <mxPoint x="585" y="350" as="targetPoint" />
          </mxGeometry>
        </mxCell>
        <mxCell id="LcjwdrZohfeIodF7cj-j-1" value="" style="endArrow=none;html=1;rounded=0;fontColor=#000000;strokeColor=#00CCCC;" parent="1" edge="1">
          <mxGeometry width="50" height="50" relative="1" as="geometry">
            <mxPoint x="575" y="540" as="sourcePoint" />
            <mxPoint x="575" y="350" as="targetPoint" />
          </mxGeometry>
        </mxCell>
        <mxCell id="LcjwdrZohfeIodF7cj-j-2" value="" style="endArrow=none;html=1;rounded=0;strokeColor=#009900;" parent="1" edge="1">
          <mxGeometry width="50" height="50" relative="1" as="geometry">
            <mxPoint x="585" y="400" as="sourcePoint" />
            <mxPoint x="795" y="400" as="targetPoint" />
          </mxGeometry>
        </mxCell>
        <mxCell id="LcjwdrZohfeIodF7cj-j-3" value="&lt;font&gt;ESP32 / ESP8266&lt;/font&gt;" style="rounded=0;whiteSpace=wrap;html=1;fontColor=#F0F0F0;" parent="1" vertex="1">
          <mxGeometry x="545" y="540" width="70" height="40" as="geometry" />
        </mxCell>
        <mxCell id="LcjwdrZohfeIodF7cj-j-5" value="L298N" style="rounded=0;whiteSpace=wrap;html=1;fontColor=#F0F0F0;" parent="1" vertex="1">
          <mxGeometry x="545" y="620" width="70" height="40" as="geometry" />
        </mxCell>
        <mxCell id="LcjwdrZohfeIodF7cj-j-6" value="" style="endArrow=none;html=1;rounded=0;fontColor=#000000;strokeColor=#000000;entryX=0.168;entryY=1.019;entryDx=0;entryDy=0;entryPerimeter=0;exitX=0;exitY=0;exitDx=0;exitDy=0;" parent="1" source="LcjwdrZohfeIodF7cj-j-15" target="LcjwdrZohfeIodF7cj-j-5" edge="1">
          <mxGeometry width="50" height="50" relative="1" as="geometry">
            <mxPoint x="565" y="720" as="sourcePoint" />
            <mxPoint x="565" y="660" as="targetPoint" />
          </mxGeometry>
        </mxCell>
        <mxCell id="LcjwdrZohfeIodF7cj-j-9" value="" style="endArrow=none;html=1;rounded=0;fontColor=#000000;strokeColor=#9999FF;exitX=0.288;exitY=0.018;exitDx=0;exitDy=0;exitPerimeter=0;endFill=0;startArrow=classic;startFill=1;" parent="1" source="LcjwdrZohfeIodF7cj-j-5" edge="1">
          <mxGeometry width="50" height="50" relative="1" as="geometry">
            <mxPoint x="566" y="621.4" as="sourcePoint" />
            <mxPoint x="565" y="580" as="targetPoint" />
          </mxGeometry>
        </mxCell>
        <mxCell id="LcjwdrZohfeIodF7cj-j-10" value="" style="endArrow=none;html=1;rounded=0;fontColor=#000000;strokeColor=#9999FF;exitX=0.288;exitY=0.018;exitDx=0;exitDy=0;exitPerimeter=0;endFill=0;startArrow=classic;startFill=1;" parent="1" edge="1">
          <mxGeometry width="50" height="50" relative="1" as="geometry">
            <mxPoint x="575.1600000000001" y="620.72" as="sourcePoint" />
            <mxPoint x="575" y="580" as="targetPoint" />
          </mxGeometry>
        </mxCell>
        <mxCell id="LcjwdrZohfeIodF7cj-j-11" value="" style="endArrow=none;html=1;rounded=0;fontColor=#000000;strokeColor=#9999FF;exitX=0.288;exitY=0.018;exitDx=0;exitDy=0;exitPerimeter=0;endFill=0;startArrow=classic;startFill=1;" parent="1" edge="1">
          <mxGeometry width="50" height="50" relative="1" as="geometry">
            <mxPoint x="585.0500000000001" y="620.72" as="sourcePoint" />
            <mxPoint x="584.89" y="580" as="targetPoint" />
          </mxGeometry>
        </mxCell>
        <mxCell id="LcjwdrZohfeIodF7cj-j-12" value="" style="endArrow=none;html=1;rounded=0;fontColor=#000000;strokeColor=#9999FF;exitX=0.288;exitY=0.018;exitDx=0;exitDy=0;exitPerimeter=0;endFill=0;startArrow=classic;startFill=1;" parent="1" edge="1">
          <mxGeometry width="50" height="50" relative="1" as="geometry">
            <mxPoint x="595.1600000000001" y="620.72" as="sourcePoint" />
            <mxPoint x="595" y="580" as="targetPoint" />
          </mxGeometry>
        </mxCell>
        <mxCell id="LcjwdrZohfeIodF7cj-j-13" value="" style="endArrow=classic;html=1;rounded=0;fontColor=#000000;strokeColor=#FF3333;entryX=0;entryY=0.25;entryDx=0;entryDy=0;exitX=0;exitY=0.5;exitDx=0;exitDy=0;" parent="1" source="LcjwdrZohfeIodF7cj-j-3" target="LcjwdrZohfeIodF7cj-j-5" edge="1">
          <mxGeometry width="50" height="50" relative="1" as="geometry">
            <mxPoint x="515" y="630" as="sourcePoint" />
            <mxPoint x="515" y="610" as="targetPoint" />
            <Array as="points">
              <mxPoint x="505" y="560" />
              <mxPoint x="505" y="630" />
            </Array>
          </mxGeometry>
        </mxCell>
        <mxCell id="LcjwdrZohfeIodF7cj-j-15" value="M" style="ellipse;whiteSpace=wrap;html=1;aspect=fixed;fontColor=default;" parent="1" vertex="1">
          <mxGeometry x="555" y="720" width="20" height="20" as="geometry" />
        </mxCell>
        <mxCell id="LcjwdrZohfeIodF7cj-j-17" value="" style="endArrow=none;html=1;rounded=0;fontColor=#000000;strokeColor=#0000FF;exitX=1;exitY=0;exitDx=0;exitDy=0;" parent="1" source="LcjwdrZohfeIodF7cj-j-15" edge="1">
          <mxGeometry width="50" height="50" relative="1" as="geometry">
            <mxPoint x="575" y="720.0000000000001" as="sourcePoint" />
            <mxPoint x="575" y="660" as="targetPoint" />
          </mxGeometry>
        </mxCell>
        <mxCell id="LcjwdrZohfeIodF7cj-j-18" value="" style="endArrow=none;html=1;rounded=0;fontColor=#000000;strokeColor=#000000;entryX=0.168;entryY=1.019;entryDx=0;entryDy=0;entryPerimeter=0;exitX=0;exitY=0;exitDx=0;exitDy=0;" parent="1" source="LcjwdrZohfeIodF7cj-j-19" edge="1">
          <mxGeometry width="50" height="50" relative="1" as="geometry">
            <mxPoint x="595" y="720" as="sourcePoint" />
            <mxPoint x="586.76" y="660.76" as="targetPoint" />
          </mxGeometry>
        </mxCell>
        <mxCell id="LcjwdrZohfeIodF7cj-j-19" value="M" style="ellipse;whiteSpace=wrap;html=1;aspect=fixed;fontColor=default;" parent="1" vertex="1">
          <mxGeometry x="585" y="720" width="20" height="20" as="geometry" />
        </mxCell>
        <mxCell id="LcjwdrZohfeIodF7cj-j-20" value="" style="endArrow=none;html=1;rounded=0;fontColor=#000000;strokeColor=#0000FF;exitX=1;exitY=0;exitDx=0;exitDy=0;" parent="1" source="LcjwdrZohfeIodF7cj-j-19" edge="1">
          <mxGeometry width="50" height="50" relative="1" as="geometry">
            <mxPoint x="605" y="720.0000000000001" as="sourcePoint" />
            <mxPoint x="605" y="660.0000000000001" as="targetPoint" />
          </mxGeometry>
        </mxCell>
        <mxCell id="LcjwdrZohfeIodF7cj-j-21" value="SDA" style="text;html=1;strokeColor=none;fillColor=none;align=center;verticalAlign=middle;whiteSpace=wrap;rounded=0;fontColor=#009900;fontSize=9;rotation=90;" parent="1" vertex="1">
          <mxGeometry x="580" y="370" width="30" height="10" as="geometry" />
        </mxCell>
        <mxCell id="LcjwdrZohfeIodF7cj-j-22" value="SCL" style="text;html=1;strokeColor=none;fillColor=none;align=center;verticalAlign=middle;whiteSpace=wrap;rounded=0;fontColor=#00CCCC;fontSize=9;rotation=-90;" parent="1" vertex="1">
          <mxGeometry x="550" y="370" width="30" height="10" as="geometry" />
        </mxCell>
        <mxCell id="LcjwdrZohfeIodF7cj-j-24" value="" style="endArrow=none;html=1;rounded=0;strokeColor=#00CCCC;" parent="1" edge="1">
          <mxGeometry width="50" height="50" relative="1" as="geometry">
            <mxPoint x="575" y="410.0000000000001" as="sourcePoint" />
            <mxPoint x="785" y="410" as="targetPoint" />
          </mxGeometry>
        </mxCell>
        <mxCell id="LcjwdrZohfeIodF7cj-j-25" value="" style="endArrow=none;html=1;rounded=0;fontSize=9;fontColor=#009900;strokeColor=#00CCCC;strokeWidth=1;exitX=0.47;exitY=0.003;exitDx=0;exitDy=0;exitPerimeter=0;" parent="1" source="LcjwdrZohfeIodF7cj-j-27" edge="1">
          <mxGeometry width="50" height="50" relative="1" as="geometry">
            <mxPoint x="785" y="500" as="sourcePoint" />
            <mxPoint x="785" y="410" as="targetPoint" />
          </mxGeometry>
        </mxCell>
        <mxCell id="LcjwdrZohfeIodF7cj-j-26" value="" style="endArrow=none;html=1;rounded=0;fontSize=9;fontColor=#009900;strokeColor=#009900;strokeWidth=1;exitX=0.613;exitY=0.027;exitDx=0;exitDy=0;exitPerimeter=0;" parent="1" source="LcjwdrZohfeIodF7cj-j-27" edge="1">
          <mxGeometry width="50" height="50" relative="1" as="geometry">
            <mxPoint x="795" y="500" as="sourcePoint" />
            <mxPoint x="795" y="400" as="targetPoint" />
          </mxGeometry>
        </mxCell>
        <mxCell id="LcjwdrZohfeIodF7cj-j-27" value="&lt;font&gt;ESP32 / ESP8266&lt;br&gt;&lt;/font&gt;" style="rounded=0;whiteSpace=wrap;html=1;fontColor=#F0F0F0;" parent="1" vertex="1">
          <mxGeometry x="752" y="540" width="70" height="40" as="geometry" />
        </mxCell>
        <mxCell id="LcjwdrZohfeIodF7cj-j-28" value="L298N" style="rounded=0;whiteSpace=wrap;html=1;fontColor=#F0F0F0;" parent="1" vertex="1">
          <mxGeometry x="752" y="620" width="70" height="40" as="geometry" />
        </mxCell>
        <mxCell id="LcjwdrZohfeIodF7cj-j-29" value="" style="endArrow=none;html=1;rounded=0;fontColor=#000000;strokeColor=#000000;entryX=0.168;entryY=1.019;entryDx=0;entryDy=0;entryPerimeter=0;exitX=0;exitY=0;exitDx=0;exitDy=0;" parent="1" source="LcjwdrZohfeIodF7cj-j-36" target="LcjwdrZohfeIodF7cj-j-28" edge="1">
          <mxGeometry width="50" height="50" relative="1" as="geometry">
            <mxPoint x="772" y="720" as="sourcePoint" />
            <mxPoint x="772" y="660" as="targetPoint" />
          </mxGeometry>
        </mxCell>
        <mxCell id="LcjwdrZohfeIodF7cj-j-30" value="" style="endArrow=none;html=1;rounded=0;fontColor=#000000;strokeColor=#9999FF;exitX=0.288;exitY=0.018;exitDx=0;exitDy=0;exitPerimeter=0;endFill=0;startArrow=classic;startFill=1;" parent="1" source="LcjwdrZohfeIodF7cj-j-28" edge="1">
          <mxGeometry width="50" height="50" relative="1" as="geometry">
            <mxPoint x="773" y="621.4" as="sourcePoint" />
            <mxPoint x="772" y="579.9999999999999" as="targetPoint" />
          </mxGeometry>
        </mxCell>
        <mxCell id="LcjwdrZohfeIodF7cj-j-31" value="" style="endArrow=none;html=1;rounded=0;fontColor=#000000;strokeColor=#9999FF;exitX=0.288;exitY=0.018;exitDx=0;exitDy=0;exitPerimeter=0;endFill=0;startArrow=classic;startFill=1;" parent="1" edge="1">
          <mxGeometry width="50" height="50" relative="1" as="geometry">
            <mxPoint x="782.1600000000001" y="620.72" as="sourcePoint" />
            <mxPoint x="782" y="579.9999999999999" as="targetPoint" />
          </mxGeometry>
        </mxCell>
        <mxCell id="LcjwdrZohfeIodF7cj-j-32" value="" style="endArrow=none;html=1;rounded=0;fontColor=#000000;strokeColor=#9999FF;exitX=0.288;exitY=0.018;exitDx=0;exitDy=0;exitPerimeter=0;endFill=0;startArrow=classic;startFill=1;" parent="1" edge="1">
          <mxGeometry width="50" height="50" relative="1" as="geometry">
            <mxPoint x="792.0500000000002" y="620.72" as="sourcePoint" />
            <mxPoint x="791.8899999999999" y="579.9999999999999" as="targetPoint" />
          </mxGeometry>
        </mxCell>
        <mxCell id="LcjwdrZohfeIodF7cj-j-33" value="" style="endArrow=none;html=1;rounded=0;fontColor=#000000;strokeColor=#9999FF;exitX=0.288;exitY=0.018;exitDx=0;exitDy=0;exitPerimeter=0;endFill=0;startArrow=classic;startFill=1;" parent="1" edge="1">
          <mxGeometry width="50" height="50" relative="1" as="geometry">
            <mxPoint x="802.1600000000001" y="620.72" as="sourcePoint" />
            <mxPoint x="802" y="579.9999999999999" as="targetPoint" />
          </mxGeometry>
        </mxCell>
        <mxCell id="LcjwdrZohfeIodF7cj-j-34" value="" style="endArrow=classic;html=1;rounded=0;fontColor=#000000;strokeColor=#FF3333;entryX=0;entryY=0.25;entryDx=0;entryDy=0;exitX=0;exitY=0.5;exitDx=0;exitDy=0;" parent="1" source="LcjwdrZohfeIodF7cj-j-27" target="LcjwdrZohfeIodF7cj-j-28" edge="1">
          <mxGeometry width="50" height="50" relative="1" as="geometry">
            <mxPoint x="722" y="630" as="sourcePoint" />
            <mxPoint x="722" y="610" as="targetPoint" />
            <Array as="points">
              <mxPoint x="712" y="560" />
              <mxPoint x="712" y="630" />
            </Array>
          </mxGeometry>
        </mxCell>
        <mxCell id="LcjwdrZohfeIodF7cj-j-35" value="" style="endArrow=none;html=1;rounded=0;fontColor=#000000;strokeColor=#FF3333;exitX=1;exitY=0.75;exitDx=0;exitDy=0;startArrow=classic;startFill=1;endFill=0;entryX=0.25;entryY=1;entryDx=0;entryDy=0;" parent="1" source="LcjwdrZohfeIodF7cj-j-28" target="8WtqMCCHPkEt0XFhNSsm-19" edge="1">
          <mxGeometry width="50" height="50" relative="1" as="geometry">
            <mxPoint x="705" y="650" as="sourcePoint" />
            <mxPoint x="940" y="240" as="targetPoint" />
            <Array as="points">
              <mxPoint x="903" y="650" />
            </Array>
          </mxGeometry>
        </mxCell>
        <mxCell id="LcjwdrZohfeIodF7cj-j-36" value="M" style="ellipse;whiteSpace=wrap;html=1;aspect=fixed;fontColor=default;" parent="1" vertex="1">
          <mxGeometry x="762" y="720" width="20" height="20" as="geometry" />
        </mxCell>
        <mxCell id="LcjwdrZohfeIodF7cj-j-37" value="" style="endArrow=none;html=1;rounded=0;fontColor=#000000;strokeColor=#0000FF;exitX=1;exitY=0;exitDx=0;exitDy=0;" parent="1" source="LcjwdrZohfeIodF7cj-j-36" edge="1">
          <mxGeometry width="50" height="50" relative="1" as="geometry">
            <mxPoint x="782" y="720.0000000000001" as="sourcePoint" />
            <mxPoint x="782" y="659.9999999999999" as="targetPoint" />
          </mxGeometry>
        </mxCell>
        <mxCell id="LcjwdrZohfeIodF7cj-j-38" value="" style="endArrow=none;html=1;rounded=0;fontColor=#000000;strokeColor=#000000;entryX=0.168;entryY=1.019;entryDx=0;entryDy=0;entryPerimeter=0;exitX=0;exitY=0;exitDx=0;exitDy=0;" parent="1" source="LcjwdrZohfeIodF7cj-j-39" edge="1">
          <mxGeometry width="50" height="50" relative="1" as="geometry">
            <mxPoint x="802" y="720" as="sourcePoint" />
            <mxPoint x="793.76" y="660.76" as="targetPoint" />
          </mxGeometry>
        </mxCell>
        <mxCell id="LcjwdrZohfeIodF7cj-j-39" value="M" style="ellipse;whiteSpace=wrap;html=1;aspect=fixed;fontColor=default;" parent="1" vertex="1">
          <mxGeometry x="792" y="720" width="20" height="20" as="geometry" />
        </mxCell>
        <mxCell id="LcjwdrZohfeIodF7cj-j-40" value="" style="endArrow=none;html=1;rounded=0;fontColor=#000000;strokeColor=#0000FF;exitX=1;exitY=0;exitDx=0;exitDy=0;" parent="1" source="LcjwdrZohfeIodF7cj-j-39" edge="1">
          <mxGeometry width="50" height="50" relative="1" as="geometry">
            <mxPoint x="812" y="720.0000000000001" as="sourcePoint" />
            <mxPoint x="812" y="660.0000000000001" as="targetPoint" />
          </mxGeometry>
        </mxCell>
        <mxCell id="LcjwdrZohfeIodF7cj-j-41" value="&lt;font style=&quot;font-size: 11px;&quot;&gt;PC&lt;/font&gt;" style="rounded=0;whiteSpace=wrap;html=1;fontSize=11;fontColor=#F0F0F0;" parent="1" vertex="1">
          <mxGeometry x="155" y="185" width="70" height="40" as="geometry" />
        </mxCell>
        <mxCell id="LcjwdrZohfeIodF7cj-j-44" value="WiFi" style="text;html=1;strokeColor=none;fillColor=none;align=center;verticalAlign=middle;whiteSpace=wrap;rounded=0;fontColor=#FF00FF;" parent="1" vertex="1">
          <mxGeometry x="265" y="180" width="60" height="20" as="geometry" />
        </mxCell>
        <mxCell id="LcjwdrZohfeIodF7cj-j-48" value="" style="endArrow=none;html=1;rounded=0;fontSize=11;fontColor=#000000;strokeColor=#FC7E00;strokeWidth=1;entryX=0.5;entryY=1;entryDx=0;entryDy=0;exitX=0.171;exitY=0.994;exitDx=0;exitDy=0;exitPerimeter=0;" parent="1" source="i4IOWuwlbH9UK5ae7Tf7-2" target="LcjwdrZohfeIodF7cj-j-15" edge="1">
          <mxGeometry width="50" height="50" relative="1" as="geometry">
            <mxPoint x="505" y="400" as="sourcePoint" />
            <mxPoint x="355" y="640" as="targetPoint" />
            <Array as="points">
              <mxPoint x="546" y="480" />
              <mxPoint x="465" y="480" />
              <mxPoint x="465" y="780" />
              <mxPoint x="565" y="780" />
            </Array>
          </mxGeometry>
        </mxCell>
        <mxCell id="LcjwdrZohfeIodF7cj-j-49" value="&lt;font color=&quot;#ff0000&quot;&gt;+3,3V&lt;/font&gt;" style="text;html=1;strokeColor=none;fillColor=none;align=center;verticalAlign=middle;whiteSpace=wrap;rounded=0;fontSize=11;fontColor=#000000;" parent="1" vertex="1">
          <mxGeometry x="505" y="540" width="45" height="20" as="geometry" />
        </mxCell>
        <mxCell id="LcjwdrZohfeIodF7cj-j-51" value="&lt;font color=&quot;#ff0000&quot;&gt;+3,3V&lt;/font&gt;" style="text;html=1;strokeColor=none;fillColor=none;align=center;verticalAlign=middle;whiteSpace=wrap;rounded=0;fontSize=11;fontColor=#000000;" parent="1" vertex="1">
          <mxGeometry x="707" y="540" width="45" height="20" as="geometry" />
        </mxCell>
        <mxCell id="LcjwdrZohfeIodF7cj-j-57" value="" style="endArrow=none;html=1;rounded=0;fontSize=11;fontColor=#FF0000;strokeColor=#E07000;strokeWidth=1;entryX=0.5;entryY=1;entryDx=0;entryDy=0;" parent="1" target="LcjwdrZohfeIodF7cj-j-19" edge="1">
          <mxGeometry width="50" height="50" relative="1" as="geometry">
            <mxPoint x="565" y="770" as="sourcePoint" />
            <mxPoint x="685" y="570" as="targetPoint" />
            <Array as="points">
              <mxPoint x="595" y="770" />
            </Array>
          </mxGeometry>
        </mxCell>
        <mxCell id="8WtqMCCHPkEt0XFhNSsm-2" value="Sensor" style="text;html=1;align=center;verticalAlign=middle;resizable=0;points=[];autosize=1;strokeColor=none;fillColor=none;fontStyle=1" parent="1" vertex="1">
          <mxGeometry x="280" y="430" width="50" height="20" as="geometry" />
        </mxCell>
        <mxCell id="8WtqMCCHPkEt0XFhNSsm-5" value="Batterie 14,8V" style="rounded=0;whiteSpace=wrap;html=1;fillColor=none;" parent="1" vertex="1">
          <mxGeometry x="885" y="100" width="103.5" height="60" as="geometry" />
        </mxCell>
        <mxCell id="8WtqMCCHPkEt0XFhNSsm-6" value="Batterie 14,8V" style="rounded=0;whiteSpace=wrap;html=1;fillColor=none;" parent="1" vertex="1">
          <mxGeometry x="625" y="100" width="120" height="60" as="geometry" />
        </mxCell>
        <mxCell id="8WtqMCCHPkEt0XFhNSsm-7" value="Batterie 11,1V" style="rounded=0;whiteSpace=wrap;html=1;fillColor=none;" parent="1" vertex="1">
          <mxGeometry x="1010" y="202.5" width="90" height="40" as="geometry" />
        </mxCell>
        <mxCell id="8WtqMCCHPkEt0XFhNSsm-8" value="Batterie 5V" style="rounded=0;whiteSpace=wrap;html=1;fillColor=none;" parent="1" vertex="1">
          <mxGeometry x="773.62" y="100" width="89.75" height="60" as="geometry" />
        </mxCell>
        <mxCell id="8WtqMCCHPkEt0XFhNSsm-10" value="" style="endArrow=classic;html=1;rounded=0;strokeWidth=1;entryX=0.25;entryY=0;entryDx=0;entryDy=0;strokeColor=#FF0000;exitX=0.25;exitY=1;exitDx=0;exitDy=0;" parent="1" source="8WtqMCCHPkEt0XFhNSsm-6" target="i4IOWuwlbH9UK5ae7Tf7-2" edge="1">
          <mxGeometry width="50" height="50" relative="1" as="geometry">
            <mxPoint x="715" y="250" as="sourcePoint" />
            <mxPoint x="782" y="280" as="targetPoint" />
            <Array as="points">
              <mxPoint x="655" y="270" />
              <mxPoint x="555" y="270" />
            </Array>
          </mxGeometry>
        </mxCell>
        <mxCell id="8WtqMCCHPkEt0XFhNSsm-15" value="" style="endArrow=classic;html=1;rounded=0;strokeWidth=1;entryX=1;entryY=0.5;entryDx=0;entryDy=0;strokeColor=#FF0000;exitX=1;exitY=0.75;exitDx=0;exitDy=0;" parent="1" source="i4IOWuwlbH9UK5ae7Tf7-2" target="LcjwdrZohfeIodF7cj-j-3" edge="1">
          <mxGeometry width="50" height="50" relative="1" as="geometry">
            <mxPoint x="720" y="400" as="sourcePoint" />
            <mxPoint x="630" y="560" as="targetPoint" />
            <Array as="points">
              <mxPoint x="670" y="335" />
              <mxPoint x="670" y="480" />
              <mxPoint x="670" y="560" />
            </Array>
          </mxGeometry>
        </mxCell>
        <mxCell id="8WtqMCCHPkEt0XFhNSsm-16" value="" style="endArrow=classic;html=1;rounded=0;strokeWidth=1;entryX=1;entryY=0.5;entryDx=0;entryDy=0;strokeColor=#FF0000;exitX=1;exitY=0.25;exitDx=0;exitDy=0;" parent="1" source="i4IOWuwlbH9UK5ae7Tf7-2" target="LcjwdrZohfeIodF7cj-j-27" edge="1">
          <mxGeometry width="50" height="50" relative="1" as="geometry">
            <mxPoint x="892" y="380" as="sourcePoint" />
            <mxPoint x="832" y="560" as="targetPoint" />
            <Array as="points">
              <mxPoint x="880" y="305" />
              <mxPoint x="880" y="560" />
            </Array>
          </mxGeometry>
        </mxCell>
        <mxCell id="8WtqMCCHPkEt0XFhNSsm-18" value="5V&lt;br&gt;1,5A" style="rounded=0;whiteSpace=wrap;html=1;fillColor=none;" parent="1" vertex="1">
          <mxGeometry x="782" y="200" width="73" height="45" as="geometry" />
        </mxCell>
        <mxCell id="8WtqMCCHPkEt0XFhNSsm-19" value="14,8V" style="rounded=0;whiteSpace=wrap;html=1;fillColor=none;" parent="1" vertex="1">
          <mxGeometry x="885" y="200" width="73" height="45" as="geometry" />
        </mxCell>
        <mxCell id="8WtqMCCHPkEt0XFhNSsm-23" value="Power board" style="text;html=1;align=center;verticalAlign=middle;resizable=0;points=[];autosize=1;strokeColor=none;fillColor=none;fontStyle=1" parent="1" vertex="1">
          <mxGeometry x="837.5" y="60" width="80" height="20" as="geometry" />
        </mxCell>
        <mxCell id="8WtqMCCHPkEt0XFhNSsm-24" value="Land propulsion" style="text;html=1;align=center;verticalAlign=middle;resizable=0;points=[];autosize=1;strokeColor=none;fillColor=none;fontStyle=1" parent="1" vertex="1">
          <mxGeometry x="615" y="760" width="100" height="20" as="geometry" />
        </mxCell>
        <mxCell id="K_-R5p4Y1KqDQ-ph4S4W-1" value="&lt;font&gt;ESP32 / ESP8266&lt;/font&gt;" style="rounded=0;whiteSpace=wrap;html=1;fontColor=#F0F0F0;" parent="1" vertex="1">
          <mxGeometry x="1100" y="540" width="70" height="40" as="geometry" />
        </mxCell>
        <mxCell id="K_-R5p4Y1KqDQ-ph4S4W-2" value="" style="endArrow=none;html=1;rounded=0;fontColor=#000000;strokeColor=#9999FF;exitX=0.288;exitY=0.018;exitDx=0;exitDy=0;exitPerimeter=0;endFill=0;startArrow=classic;startFill=1;" parent="1" edge="1">
          <mxGeometry width="50" height="50" relative="1" as="geometry">
            <mxPoint x="1110.16" y="620.72" as="sourcePoint" />
            <mxPoint x="1110" y="579.9999999999999" as="targetPoint" />
          </mxGeometry>
        </mxCell>
        <mxCell id="K_-R5p4Y1KqDQ-ph4S4W-3" value="" style="endArrow=none;html=1;rounded=0;fontColor=#000000;strokeColor=#9999FF;exitX=0.288;exitY=0.018;exitDx=0;exitDy=0;exitPerimeter=0;endFill=0;startArrow=classic;startFill=1;" parent="1" edge="1">
          <mxGeometry width="50" height="50" relative="1" as="geometry">
            <mxPoint x="1160.16" y="620.72" as="sourcePoint" />
            <mxPoint x="1159.9999999999998" y="579.9999999999999" as="targetPoint" />
          </mxGeometry>
        </mxCell>
        <mxCell id="kwycx1eIbsY4Xk_-l1Hs-1" value="" style="endArrow=none;html=1;rounded=0;fontColor=#000000;strokeColor=#FF3333;startArrow=classic;startFill=1;endFill=0;entryX=0.25;entryY=1;entryDx=0;entryDy=0;exitX=1;exitY=0.75;exitDx=0;exitDy=0;" parent="1" source="LcjwdrZohfeIodF7cj-j-5" edge="1">
          <mxGeometry width="50" height="50" relative="1" as="geometry">
            <mxPoint x="710" y="800" as="sourcePoint" />
            <mxPoint x="944.62" y="245" as="targetPoint" />
            <Array as="points">
              <mxPoint x="720" y="650" />
              <mxPoint x="720" y="800" />
              <mxPoint x="945" y="800" />
            </Array>
          </mxGeometry>
        </mxCell>
        <mxCell id="kwycx1eIbsY4Xk_-l1Hs-2" value="ESC" style="rounded=0;whiteSpace=wrap;html=1;" parent="1" vertex="1">
          <mxGeometry x="1070" y="622.5" width="50" height="30" as="geometry" />
        </mxCell>
        <mxCell id="kwycx1eIbsY4Xk_-l1Hs-3" value="ESC" style="rounded=0;whiteSpace=wrap;html=1;" parent="1" vertex="1">
          <mxGeometry x="1150" y="622.5" width="50" height="30" as="geometry" />
        </mxCell>
        <mxCell id="kwycx1eIbsY4Xk_-l1Hs-6" value="" style="endArrow=classic;html=1;rounded=0;exitX=0.25;exitY=1;exitDx=0;exitDy=0;entryX=0.25;entryY=0;entryDx=0;entryDy=0;strokeColor=#FF0000;" parent="1" source="8WtqMCCHPkEt0XFhNSsm-7" target="kwycx1eIbsY4Xk_-l1Hs-2" edge="1">
          <mxGeometry width="50" height="50" relative="1" as="geometry">
            <mxPoint x="1190" y="380" as="sourcePoint" />
            <mxPoint x="1030" y="560" as="targetPoint" />
            <Array as="points">
              <mxPoint x="1033" y="520" />
              <mxPoint x="1083" y="520" />
            </Array>
          </mxGeometry>
        </mxCell>
        <mxCell id="xfjH8gg4cMgkfLnca2L2-1" value="" style="endArrow=classic;html=1;rounded=0;exitX=0.25;exitY=1;exitDx=0;exitDy=0;entryX=0.75;entryY=0;entryDx=0;entryDy=0;strokeColor=#FF0000;" parent="1" target="kwycx1eIbsY4Xk_-l1Hs-3" edge="1">
          <mxGeometry width="50" height="50" relative="1" as="geometry">
            <mxPoint x="1080" y="245" as="sourcePoint" />
            <mxPoint x="1130" y="625" as="targetPoint" />
            <Array as="points">
              <mxPoint x="1080.5" y="522.5" />
              <mxPoint x="1188" y="523" />
            </Array>
          </mxGeometry>
        </mxCell>
      </root>
    </mxGraphModel>
  </diagram>
  <diagram id="PU43t8md9JD9OvIWeScP" name="ItÃ©ration dÃ©cembre">
    <mxGraphModel dx="984" dy="719" grid="1" gridSize="10" guides="1" tooltips="1" connect="1" arrows="1" fold="1" page="1" pageScale="1" pageWidth="827" pageHeight="1169" math="0" shadow="0">
      <root>
        <mxCell id="0" />
        <mxCell id="1" parent="0" />
        <mxCell id="hTMrgwxnhjDJvFNw6e5T-1" value="" style="rounded=0;whiteSpace=wrap;html=1;dashed=1;fillColor=none;" parent="1" vertex="1">
          <mxGeometry x="485" y="515" width="360" height="245" as="geometry" />
        </mxCell>
        <mxCell id="hTMrgwxnhjDJvFNw6e5T-2" value="" style="rounded=0;whiteSpace=wrap;html=1;dashed=1;fillColor=none;" parent="1" vertex="1">
          <mxGeometry x="610" y="80" width="535" height="180" as="geometry" />
        </mxCell>
        <mxCell id="hTMrgwxnhjDJvFNw6e5T-3" value="" style="rounded=0;whiteSpace=wrap;html=1;dashed=1;fillColor=none;" parent="1" vertex="1">
          <mxGeometry x="170" y="270" width="110" height="160" as="geometry" />
        </mxCell>
        <mxCell id="hTMrgwxnhjDJvFNw6e5T-4" value="Jetson Nano" style="rounded=0;whiteSpace=wrap;html=1;" parent="1" vertex="1">
          <mxGeometry x="525" y="290" width="120" height="60" as="geometry" />
        </mxCell>
        <mxCell id="hTMrgwxnhjDJvFNw6e5T-5" value="" style="endArrow=classic;html=1;rounded=0;entryX=0;entryY=0.5;entryDx=0;entryDy=0;exitX=1;exitY=0.5;exitDx=0;exitDy=0;fillColor=#ffe6cc;strokeColor=#FF00FF;startArrow=classic;startFill=1;endFill=1;" parent="1" source="hTMrgwxnhjDJvFNw6e5T-6" target="hTMrgwxnhjDJvFNw6e5T-4" edge="1">
          <mxGeometry width="50" height="50" relative="1" as="geometry">
            <mxPoint x="419" y="320" as="sourcePoint" />
            <mxPoint x="469" y="285" as="targetPoint" />
          </mxGeometry>
        </mxCell>
        <mxCell id="hTMrgwxnhjDJvFNw6e5T-6" value="Raspberry Pi 3 B+" style="rounded=0;whiteSpace=wrap;html=1;" parent="1" vertex="1">
          <mxGeometry x="299" y="290" width="120" height="60" as="geometry" />
        </mxCell>
        <mxCell id="hTMrgwxnhjDJvFNw6e5T-7" value="LAN" style="text;html=1;strokeColor=none;fillColor=none;align=center;verticalAlign=middle;whiteSpace=wrap;rounded=0;fontColor=#FF00FF;" parent="1" vertex="1">
          <mxGeometry x="449" y="300" width="60" height="20" as="geometry" />
        </mxCell>
        <mxCell id="hTMrgwxnhjDJvFNw6e5T-8" value="&lt;font&gt;Intel D435i&lt;/font&gt;" style="rounded=0;whiteSpace=wrap;html=1;fontColor=#F0F0F0;" parent="1" vertex="1">
          <mxGeometry x="185" y="290" width="80" height="60" as="geometry" />
        </mxCell>
        <mxCell id="hTMrgwxnhjDJvFNw6e5T-9" value="" style="endArrow=classic;html=1;rounded=0;fontColor=#000000;exitX=0.5;exitY=0;exitDx=0;exitDy=0;strokeWidth=1;startArrow=none;startFill=0;endFill=1;entryX=0.118;entryY=0.02;entryDx=0;entryDy=0;entryPerimeter=0;" parent="1" source="hTMrgwxnhjDJvFNw6e5T-8" target="hTMrgwxnhjDJvFNw6e5T-4" edge="1">
          <mxGeometry width="50" height="50" relative="1" as="geometry">
            <mxPoint x="335" y="430" as="sourcePoint" />
            <mxPoint x="540" y="250" as="targetPoint" />
            <Array as="points">
              <mxPoint x="225" y="250" />
              <mxPoint x="539" y="250" />
            </Array>
          </mxGeometry>
        </mxCell>
        <mxCell id="hTMrgwxnhjDJvFNw6e5T-10" value="" style="endArrow=classic;dashed=1;html=1;rounded=0;fontColor=#000000;exitX=0.5;exitY=0;exitDx=0;exitDy=0;strokeColor=#FF00FF;dashPattern=1 1;startArrow=classic;startFill=1;endFill=1;" parent="1" source="hTMrgwxnhjDJvFNw6e5T-6" edge="1">
          <mxGeometry width="50" height="50" relative="1" as="geometry">
            <mxPoint x="355" y="260" as="sourcePoint" />
            <mxPoint x="225" y="200" as="targetPoint" />
            <Array as="points">
              <mxPoint x="359" y="200" />
            </Array>
          </mxGeometry>
        </mxCell>
        <mxCell id="hTMrgwxnhjDJvFNw6e5T-11" value="LW 20/C" style="rounded=0;whiteSpace=wrap;html=1;fontColor=#F0F0F0;" parent="1" vertex="1">
          <mxGeometry x="185" y="380" width="80" height="40" as="geometry" />
        </mxCell>
        <mxCell id="hTMrgwxnhjDJvFNw6e5T-12" value="" style="endArrow=classic;html=1;rounded=0;fontColor=#000000;exitX=1;exitY=0.5;exitDx=0;exitDy=0;entryX=0.25;entryY=1;entryDx=0;entryDy=0;endFill=1;" parent="1" source="hTMrgwxnhjDJvFNw6e5T-11" target="hTMrgwxnhjDJvFNw6e5T-4" edge="1">
          <mxGeometry width="50" height="50" relative="1" as="geometry">
            <mxPoint x="435" y="430" as="sourcePoint" />
            <mxPoint x="355" y="390" as="targetPoint" />
            <Array as="points">
              <mxPoint x="555" y="400" />
            </Array>
          </mxGeometry>
        </mxCell>
        <mxCell id="hTMrgwxnhjDJvFNw6e5T-13" value="" style="endArrow=none;html=1;rounded=0;fontColor=#000000;strokeColor=#009900;" parent="1" edge="1">
          <mxGeometry width="50" height="50" relative="1" as="geometry">
            <mxPoint x="585" y="540" as="sourcePoint" />
            <mxPoint x="585" y="350" as="targetPoint" />
          </mxGeometry>
        </mxCell>
        <mxCell id="hTMrgwxnhjDJvFNw6e5T-14" value="" style="endArrow=none;html=1;rounded=0;fontColor=#000000;strokeColor=#00CCCC;" parent="1" edge="1">
          <mxGeometry width="50" height="50" relative="1" as="geometry">
            <mxPoint x="575" y="540" as="sourcePoint" />
            <mxPoint x="575" y="350" as="targetPoint" />
          </mxGeometry>
        </mxCell>
        <mxCell id="hTMrgwxnhjDJvFNw6e5T-15" value="" style="endArrow=none;html=1;rounded=0;strokeColor=#009900;" parent="1" edge="1">
          <mxGeometry width="50" height="50" relative="1" as="geometry">
            <mxPoint x="585" y="400" as="sourcePoint" />
            <mxPoint x="795" y="400" as="targetPoint" />
          </mxGeometry>
        </mxCell>
        <mxCell id="hTMrgwxnhjDJvFNw6e5T-16" value="&lt;font&gt;ESP32 / ESP8266&lt;/font&gt;" style="rounded=0;whiteSpace=wrap;html=1;fontColor=#F0F0F0;" parent="1" vertex="1">
          <mxGeometry x="545" y="540" width="70" height="40" as="geometry" />
        </mxCell>
        <mxCell id="hTMrgwxnhjDJvFNw6e5T-17" value="L298N" style="rounded=0;whiteSpace=wrap;html=1;fontColor=#F0F0F0;" parent="1" vertex="1">
          <mxGeometry x="545" y="620" width="70" height="40" as="geometry" />
        </mxCell>
        <mxCell id="hTMrgwxnhjDJvFNw6e5T-18" value="" style="endArrow=none;html=1;rounded=0;fontColor=#000000;strokeColor=#000000;entryX=0.168;entryY=1.019;entryDx=0;entryDy=0;entryPerimeter=0;exitX=0;exitY=0;exitDx=0;exitDy=0;" parent="1" source="hTMrgwxnhjDJvFNw6e5T-24" target="hTMrgwxnhjDJvFNw6e5T-17" edge="1">
          <mxGeometry width="50" height="50" relative="1" as="geometry">
            <mxPoint x="565" y="720" as="sourcePoint" />
            <mxPoint x="565" y="660" as="targetPoint" />
          </mxGeometry>
        </mxCell>
        <mxCell id="hTMrgwxnhjDJvFNw6e5T-19" value="" style="endArrow=none;html=1;rounded=0;fontColor=#000000;strokeColor=#9999FF;exitX=0.288;exitY=0.018;exitDx=0;exitDy=0;exitPerimeter=0;endFill=0;startArrow=classic;startFill=1;" parent="1" source="hTMrgwxnhjDJvFNw6e5T-17" edge="1">
          <mxGeometry width="50" height="50" relative="1" as="geometry">
            <mxPoint x="566" y="621.4" as="sourcePoint" />
            <mxPoint x="565" y="580" as="targetPoint" />
          </mxGeometry>
        </mxCell>
        <mxCell id="hTMrgwxnhjDJvFNw6e5T-20" value="" style="endArrow=none;html=1;rounded=0;fontColor=#000000;strokeColor=#9999FF;exitX=0.288;exitY=0.018;exitDx=0;exitDy=0;exitPerimeter=0;endFill=0;startArrow=classic;startFill=1;" parent="1" edge="1">
          <mxGeometry width="50" height="50" relative="1" as="geometry">
            <mxPoint x="575.1600000000001" y="620.72" as="sourcePoint" />
            <mxPoint x="575" y="580" as="targetPoint" />
          </mxGeometry>
        </mxCell>
        <mxCell id="hTMrgwxnhjDJvFNw6e5T-21" value="" style="endArrow=none;html=1;rounded=0;fontColor=#000000;strokeColor=#9999FF;exitX=0.288;exitY=0.018;exitDx=0;exitDy=0;exitPerimeter=0;endFill=0;startArrow=classic;startFill=1;" parent="1" edge="1">
          <mxGeometry width="50" height="50" relative="1" as="geometry">
            <mxPoint x="585.0500000000002" y="620.72" as="sourcePoint" />
            <mxPoint x="584.8899999999999" y="580" as="targetPoint" />
          </mxGeometry>
        </mxCell>
        <mxCell id="hTMrgwxnhjDJvFNw6e5T-22" value="" style="endArrow=none;html=1;rounded=0;fontColor=#000000;strokeColor=#9999FF;exitX=0.288;exitY=0.018;exitDx=0;exitDy=0;exitPerimeter=0;endFill=0;startArrow=classic;startFill=1;" parent="1" edge="1">
          <mxGeometry width="50" height="50" relative="1" as="geometry">
            <mxPoint x="595.1600000000001" y="620.72" as="sourcePoint" />
            <mxPoint x="595" y="580" as="targetPoint" />
          </mxGeometry>
        </mxCell>
        <mxCell id="hTMrgwxnhjDJvFNw6e5T-23" value="" style="endArrow=classic;html=1;rounded=0;fontColor=#000000;strokeColor=#FF3333;entryX=0;entryY=0.25;entryDx=0;entryDy=0;exitX=0;exitY=0.5;exitDx=0;exitDy=0;" parent="1" source="hTMrgwxnhjDJvFNw6e5T-16" target="hTMrgwxnhjDJvFNw6e5T-17" edge="1">
          <mxGeometry width="50" height="50" relative="1" as="geometry">
            <mxPoint x="515" y="630" as="sourcePoint" />
            <mxPoint x="515" y="610" as="targetPoint" />
            <Array as="points">
              <mxPoint x="505" y="560" />
              <mxPoint x="505" y="630" />
            </Array>
          </mxGeometry>
        </mxCell>
        <mxCell id="hTMrgwxnhjDJvFNw6e5T-24" value="M" style="ellipse;whiteSpace=wrap;html=1;aspect=fixed;fontColor=default;" parent="1" vertex="1">
          <mxGeometry x="555" y="720" width="20" height="20" as="geometry" />
        </mxCell>
        <mxCell id="hTMrgwxnhjDJvFNw6e5T-25" value="" style="endArrow=none;html=1;rounded=0;fontColor=#000000;strokeColor=#0000FF;exitX=1;exitY=0;exitDx=0;exitDy=0;" parent="1" source="hTMrgwxnhjDJvFNw6e5T-24" edge="1">
          <mxGeometry width="50" height="50" relative="1" as="geometry">
            <mxPoint x="575" y="720.0000000000001" as="sourcePoint" />
            <mxPoint x="575" y="660" as="targetPoint" />
          </mxGeometry>
        </mxCell>
        <mxCell id="hTMrgwxnhjDJvFNw6e5T-26" value="" style="endArrow=none;html=1;rounded=0;fontColor=#000000;strokeColor=#000000;entryX=0.168;entryY=1.019;entryDx=0;entryDy=0;entryPerimeter=0;exitX=0;exitY=0;exitDx=0;exitDy=0;" parent="1" source="hTMrgwxnhjDJvFNw6e5T-27" edge="1">
          <mxGeometry width="50" height="50" relative="1" as="geometry">
            <mxPoint x="595" y="720" as="sourcePoint" />
            <mxPoint x="586.76" y="660.76" as="targetPoint" />
          </mxGeometry>
        </mxCell>
        <mxCell id="hTMrgwxnhjDJvFNw6e5T-27" value="M" style="ellipse;whiteSpace=wrap;html=1;aspect=fixed;fontColor=default;" parent="1" vertex="1">
          <mxGeometry x="585" y="720" width="20" height="20" as="geometry" />
        </mxCell>
        <mxCell id="hTMrgwxnhjDJvFNw6e5T-28" value="" style="endArrow=none;html=1;rounded=0;fontColor=#000000;strokeColor=#0000FF;exitX=1;exitY=0;exitDx=0;exitDy=0;" parent="1" source="hTMrgwxnhjDJvFNw6e5T-27" edge="1">
          <mxGeometry width="50" height="50" relative="1" as="geometry">
            <mxPoint x="605" y="720.0000000000001" as="sourcePoint" />
            <mxPoint x="605" y="660" as="targetPoint" />
          </mxGeometry>
        </mxCell>
        <mxCell id="hTMrgwxnhjDJvFNw6e5T-29" value="SDA" style="text;html=1;strokeColor=none;fillColor=none;align=center;verticalAlign=middle;whiteSpace=wrap;rounded=0;fontColor=#009900;fontSize=9;rotation=90;" parent="1" vertex="1">
          <mxGeometry x="580" y="370" width="30" height="10" as="geometry" />
        </mxCell>
        <mxCell id="hTMrgwxnhjDJvFNw6e5T-30" value="SCL" style="text;html=1;strokeColor=none;fillColor=none;align=center;verticalAlign=middle;whiteSpace=wrap;rounded=0;fontColor=#00CCCC;fontSize=9;rotation=-90;" parent="1" vertex="1">
          <mxGeometry x="550" y="370" width="30" height="10" as="geometry" />
        </mxCell>
        <mxCell id="hTMrgwxnhjDJvFNw6e5T-31" value="" style="endArrow=none;html=1;rounded=0;strokeColor=#00CCCC;" parent="1" edge="1">
          <mxGeometry width="50" height="50" relative="1" as="geometry">
            <mxPoint x="575" y="410" as="sourcePoint" />
            <mxPoint x="785" y="410" as="targetPoint" />
          </mxGeometry>
        </mxCell>
        <mxCell id="hTMrgwxnhjDJvFNw6e5T-32" value="" style="endArrow=none;html=1;rounded=0;fontSize=9;fontColor=#009900;strokeColor=#00CCCC;strokeWidth=1;exitX=0.47;exitY=0.003;exitDx=0;exitDy=0;exitPerimeter=0;" parent="1" source="hTMrgwxnhjDJvFNw6e5T-34" edge="1">
          <mxGeometry width="50" height="50" relative="1" as="geometry">
            <mxPoint x="785" y="500" as="sourcePoint" />
            <mxPoint x="785" y="410" as="targetPoint" />
          </mxGeometry>
        </mxCell>
        <mxCell id="hTMrgwxnhjDJvFNw6e5T-33" value="" style="endArrow=none;html=1;rounded=0;fontSize=9;fontColor=#009900;strokeColor=#009900;strokeWidth=1;exitX=0.613;exitY=0.027;exitDx=0;exitDy=0;exitPerimeter=0;" parent="1" source="hTMrgwxnhjDJvFNw6e5T-34" edge="1">
          <mxGeometry width="50" height="50" relative="1" as="geometry">
            <mxPoint x="795" y="500" as="sourcePoint" />
            <mxPoint x="795" y="400" as="targetPoint" />
          </mxGeometry>
        </mxCell>
        <mxCell id="hTMrgwxnhjDJvFNw6e5T-34" value="&lt;font&gt;ESP32&amp;nbsp;&lt;/font&gt;/ ESP8266" style="rounded=0;whiteSpace=wrap;html=1;fontColor=#F0F0F0;" parent="1" vertex="1">
          <mxGeometry x="752" y="540" width="70" height="40" as="geometry" />
        </mxCell>
        <mxCell id="hTMrgwxnhjDJvFNw6e5T-35" value="L298N" style="rounded=0;whiteSpace=wrap;html=1;fontColor=#F0F0F0;" parent="1" vertex="1">
          <mxGeometry x="752" y="620" width="70" height="40" as="geometry" />
        </mxCell>
        <mxCell id="hTMrgwxnhjDJvFNw6e5T-36" value="" style="endArrow=none;html=1;rounded=0;fontColor=#000000;strokeColor=#000000;entryX=0.168;entryY=1.019;entryDx=0;entryDy=0;entryPerimeter=0;exitX=0;exitY=0;exitDx=0;exitDy=0;" parent="1" source="hTMrgwxnhjDJvFNw6e5T-43" target="hTMrgwxnhjDJvFNw6e5T-35" edge="1">
          <mxGeometry width="50" height="50" relative="1" as="geometry">
            <mxPoint x="772" y="720" as="sourcePoint" />
            <mxPoint x="772" y="660" as="targetPoint" />
          </mxGeometry>
        </mxCell>
        <mxCell id="hTMrgwxnhjDJvFNw6e5T-37" value="" style="endArrow=none;html=1;rounded=0;fontColor=#000000;strokeColor=#9999FF;exitX=0.288;exitY=0.018;exitDx=0;exitDy=0;exitPerimeter=0;endFill=0;startArrow=classic;startFill=1;" parent="1" source="hTMrgwxnhjDJvFNw6e5T-35" edge="1">
          <mxGeometry width="50" height="50" relative="1" as="geometry">
            <mxPoint x="773" y="621.4" as="sourcePoint" />
            <mxPoint x="772" y="580" as="targetPoint" />
          </mxGeometry>
        </mxCell>
        <mxCell id="hTMrgwxnhjDJvFNw6e5T-38" value="" style="endArrow=none;html=1;rounded=0;fontColor=#000000;strokeColor=#9999FF;exitX=0.288;exitY=0.018;exitDx=0;exitDy=0;exitPerimeter=0;endFill=0;startArrow=classic;startFill=1;" parent="1" edge="1">
          <mxGeometry width="50" height="50" relative="1" as="geometry">
            <mxPoint x="782.1600000000001" y="620.72" as="sourcePoint" />
            <mxPoint x="782" y="580" as="targetPoint" />
          </mxGeometry>
        </mxCell>
        <mxCell id="hTMrgwxnhjDJvFNw6e5T-39" value="" style="endArrow=none;html=1;rounded=0;fontColor=#000000;strokeColor=#9999FF;exitX=0.288;exitY=0.018;exitDx=0;exitDy=0;exitPerimeter=0;endFill=0;startArrow=classic;startFill=1;" parent="1" edge="1">
          <mxGeometry width="50" height="50" relative="1" as="geometry">
            <mxPoint x="792.0500000000002" y="620.72" as="sourcePoint" />
            <mxPoint x="791.8899999999999" y="580" as="targetPoint" />
          </mxGeometry>
        </mxCell>
        <mxCell id="hTMrgwxnhjDJvFNw6e5T-40" value="" style="endArrow=none;html=1;rounded=0;fontColor=#000000;strokeColor=#9999FF;exitX=0.288;exitY=0.018;exitDx=0;exitDy=0;exitPerimeter=0;endFill=0;startArrow=classic;startFill=1;" parent="1" edge="1">
          <mxGeometry width="50" height="50" relative="1" as="geometry">
            <mxPoint x="802.1600000000001" y="620.72" as="sourcePoint" />
            <mxPoint x="802" y="580" as="targetPoint" />
          </mxGeometry>
        </mxCell>
        <mxCell id="hTMrgwxnhjDJvFNw6e5T-41" value="" style="endArrow=classic;html=1;rounded=0;fontColor=#000000;strokeColor=#FF3333;entryX=0;entryY=0.25;entryDx=0;entryDy=0;exitX=0;exitY=0.5;exitDx=0;exitDy=0;" parent="1" source="hTMrgwxnhjDJvFNw6e5T-34" target="hTMrgwxnhjDJvFNw6e5T-35" edge="1">
          <mxGeometry width="50" height="50" relative="1" as="geometry">
            <mxPoint x="722" y="630" as="sourcePoint" />
            <mxPoint x="722" y="610" as="targetPoint" />
            <Array as="points">
              <mxPoint x="712" y="560" />
              <mxPoint x="712" y="630" />
            </Array>
          </mxGeometry>
        </mxCell>
        <mxCell id="hTMrgwxnhjDJvFNw6e5T-42" value="" style="endArrow=none;html=1;rounded=0;fontColor=#000000;strokeColor=#FF3333;exitX=1;exitY=0.75;exitDx=0;exitDy=0;startArrow=classic;startFill=1;endFill=0;entryX=0.25;entryY=1;entryDx=0;entryDy=0;" parent="1" source="hTMrgwxnhjDJvFNw6e5T-35" target="hTMrgwxnhjDJvFNw6e5T-65" edge="1">
          <mxGeometry width="50" height="50" relative="1" as="geometry">
            <mxPoint x="705" y="650" as="sourcePoint" />
            <mxPoint x="940" y="240" as="targetPoint" />
            <Array as="points">
              <mxPoint x="903" y="650" />
            </Array>
          </mxGeometry>
        </mxCell>
        <mxCell id="hTMrgwxnhjDJvFNw6e5T-43" value="M" style="ellipse;whiteSpace=wrap;html=1;aspect=fixed;fontColor=default;" parent="1" vertex="1">
          <mxGeometry x="762" y="720" width="20" height="20" as="geometry" />
        </mxCell>
        <mxCell id="hTMrgwxnhjDJvFNw6e5T-44" value="" style="endArrow=none;html=1;rounded=0;fontColor=#000000;strokeColor=#0000FF;exitX=1;exitY=0;exitDx=0;exitDy=0;" parent="1" source="hTMrgwxnhjDJvFNw6e5T-43" edge="1">
          <mxGeometry width="50" height="50" relative="1" as="geometry">
            <mxPoint x="782" y="720.0000000000001" as="sourcePoint" />
            <mxPoint x="782" y="660" as="targetPoint" />
          </mxGeometry>
        </mxCell>
        <mxCell id="hTMrgwxnhjDJvFNw6e5T-45" value="" style="endArrow=none;html=1;rounded=0;fontColor=#000000;strokeColor=#000000;entryX=0.168;entryY=1.019;entryDx=0;entryDy=0;entryPerimeter=0;exitX=0;exitY=0;exitDx=0;exitDy=0;" parent="1" source="hTMrgwxnhjDJvFNw6e5T-46" edge="1">
          <mxGeometry width="50" height="50" relative="1" as="geometry">
            <mxPoint x="802" y="720" as="sourcePoint" />
            <mxPoint x="793.76" y="660.76" as="targetPoint" />
          </mxGeometry>
        </mxCell>
        <mxCell id="hTMrgwxnhjDJvFNw6e5T-46" value="M" style="ellipse;whiteSpace=wrap;html=1;aspect=fixed;fontColor=default;" parent="1" vertex="1">
          <mxGeometry x="792" y="720" width="20" height="20" as="geometry" />
        </mxCell>
        <mxCell id="hTMrgwxnhjDJvFNw6e5T-47" value="" style="endArrow=none;html=1;rounded=0;fontColor=#000000;strokeColor=#0000FF;exitX=1;exitY=0;exitDx=0;exitDy=0;" parent="1" source="hTMrgwxnhjDJvFNw6e5T-46" edge="1">
          <mxGeometry width="50" height="50" relative="1" as="geometry">
            <mxPoint x="812" y="720.0000000000001" as="sourcePoint" />
            <mxPoint x="812" y="660" as="targetPoint" />
          </mxGeometry>
        </mxCell>
        <mxCell id="hTMrgwxnhjDJvFNw6e5T-48" value="&lt;font style=&quot;font-size: 11px;&quot;&gt;PC&lt;/font&gt;" style="rounded=0;whiteSpace=wrap;html=1;fontSize=11;fontColor=#F0F0F0;" parent="1" vertex="1">
          <mxGeometry x="155" y="185" width="70" height="40" as="geometry" />
        </mxCell>
        <mxCell id="hTMrgwxnhjDJvFNw6e5T-49" value="WiFi" style="text;html=1;strokeColor=none;fillColor=none;align=center;verticalAlign=middle;whiteSpace=wrap;rounded=0;fontColor=#FF00FF;" parent="1" vertex="1">
          <mxGeometry x="265" y="180" width="60" height="20" as="geometry" />
        </mxCell>
        <mxCell id="hTMrgwxnhjDJvFNw6e5T-50" value="" style="endArrow=none;html=1;rounded=0;fontSize=11;fontColor=#000000;strokeColor=#FC7E00;strokeWidth=1;entryX=0.5;entryY=1;entryDx=0;entryDy=0;exitX=0.171;exitY=0.994;exitDx=0;exitDy=0;exitPerimeter=0;" parent="1" source="hTMrgwxnhjDJvFNw6e5T-4" target="hTMrgwxnhjDJvFNw6e5T-24" edge="1">
          <mxGeometry width="50" height="50" relative="1" as="geometry">
            <mxPoint x="505" y="400" as="sourcePoint" />
            <mxPoint x="355" y="640" as="targetPoint" />
            <Array as="points">
              <mxPoint x="546" y="480" />
              <mxPoint x="465" y="480" />
              <mxPoint x="465" y="780" />
              <mxPoint x="565" y="780" />
            </Array>
          </mxGeometry>
        </mxCell>
        <mxCell id="hTMrgwxnhjDJvFNw6e5T-51" value="&lt;font color=&quot;#ff0000&quot;&gt;+3,3V&lt;/font&gt;" style="text;html=1;strokeColor=none;fillColor=none;align=center;verticalAlign=middle;whiteSpace=wrap;rounded=0;fontSize=11;fontColor=#000000;" parent="1" vertex="1">
          <mxGeometry x="505" y="540" width="45" height="20" as="geometry" />
        </mxCell>
        <mxCell id="hTMrgwxnhjDJvFNw6e5T-52" value="Seulement pour l&#39;odomÃ©trie donc vers Jetson Nano&lt;br&gt;&lt;br&gt;En parlant d&#39;odomÃ©trie, on se mettra en SVO probablement&amp;nbsp;" style="text;html=1;strokeColor=none;fillColor=none;align=center;verticalAlign=middle;whiteSpace=wrap;rounded=0;fontSize=11;fontColor=#FF0000;" parent="1" vertex="1">
          <mxGeometry x="190" y="720" width="266" height="60" as="geometry" />
        </mxCell>
        <mxCell id="hTMrgwxnhjDJvFNw6e5T-53" value="&lt;font color=&quot;#ff0000&quot;&gt;+3,3V&lt;/font&gt;" style="text;html=1;strokeColor=none;fillColor=none;align=center;verticalAlign=middle;whiteSpace=wrap;rounded=0;fontSize=11;fontColor=#000000;" parent="1" vertex="1">
          <mxGeometry x="707" y="540" width="45" height="20" as="geometry" />
        </mxCell>
        <mxCell id="hTMrgwxnhjDJvFNw6e5T-54" value="" style="endArrow=none;html=1;rounded=0;fontSize=11;fontColor=#FF0000;strokeColor=#E07000;strokeWidth=1;entryX=0.5;entryY=1;entryDx=0;entryDy=0;" parent="1" target="hTMrgwxnhjDJvFNw6e5T-27" edge="1">
          <mxGeometry width="50" height="50" relative="1" as="geometry">
            <mxPoint x="565" y="770" as="sourcePoint" />
            <mxPoint x="685" y="570" as="targetPoint" />
            <Array as="points">
              <mxPoint x="595" y="770" />
            </Array>
          </mxGeometry>
        </mxCell>
        <mxCell id="hTMrgwxnhjDJvFNw6e5T-55" value="Sensor" style="text;html=1;align=center;verticalAlign=middle;resizable=0;points=[];autosize=1;strokeColor=none;fillColor=none;fontStyle=1" parent="1" vertex="1">
          <mxGeometry x="280" y="430" width="50" height="20" as="geometry" />
        </mxCell>
        <mxCell id="hTMrgwxnhjDJvFNw6e5T-56" value="Double SSH : PC &amp;gt; Rasp &amp;gt; Jetson ? &lt;br&gt;Ou alors, vu qu&#39;ils sont sur le mÃªme rÃ©seau, Ã§a se tente de faire PC vers Jetson direct" style="text;html=1;align=center;verticalAlign=middle;resizable=0;points=[];autosize=1;strokeColor=none;fillColor=none;" parent="1" vertex="1">
          <mxGeometry x="110" y="120" width="470" height="30" as="geometry" />
        </mxCell>
        <mxCell id="hTMrgwxnhjDJvFNw6e5T-57" value="Batterie 14,8V" style="rounded=0;whiteSpace=wrap;html=1;fillColor=none;" parent="1" vertex="1">
          <mxGeometry x="885" y="100" width="103.5" height="60" as="geometry" />
        </mxCell>
        <mxCell id="hTMrgwxnhjDJvFNw6e5T-58" value="Batterie 14,8V" style="rounded=0;whiteSpace=wrap;html=1;fillColor=none;" parent="1" vertex="1">
          <mxGeometry x="625" y="100" width="120" height="60" as="geometry" />
        </mxCell>
        <mxCell id="hTMrgwxnhjDJvFNw6e5T-59" value="Batterie 11,1V" style="rounded=0;whiteSpace=wrap;html=1;fillColor=none;" parent="1" vertex="1">
          <mxGeometry x="1010" y="202.5" width="90" height="40" as="geometry" />
        </mxCell>
        <mxCell id="hTMrgwxnhjDJvFNw6e5T-60" value="Batterie 5V" style="rounded=0;whiteSpace=wrap;html=1;fillColor=none;" parent="1" vertex="1">
          <mxGeometry x="773.62" y="100" width="89.75" height="60" as="geometry" />
        </mxCell>
        <mxCell id="hTMrgwxnhjDJvFNw6e5T-61" value="" style="endArrow=classic;html=1;rounded=0;strokeWidth=1;entryX=0.25;entryY=0;entryDx=0;entryDy=0;strokeColor=#FF0000;exitX=0.25;exitY=1;exitDx=0;exitDy=0;" parent="1" source="hTMrgwxnhjDJvFNw6e5T-58" target="hTMrgwxnhjDJvFNw6e5T-4" edge="1">
          <mxGeometry width="50" height="50" relative="1" as="geometry">
            <mxPoint x="715" y="250" as="sourcePoint" />
            <mxPoint x="782" y="280" as="targetPoint" />
            <Array as="points">
              <mxPoint x="655" y="270" />
              <mxPoint x="555" y="270" />
            </Array>
          </mxGeometry>
        </mxCell>
        <mxCell id="hTMrgwxnhjDJvFNw6e5T-62" value="" style="endArrow=classic;html=1;rounded=0;strokeWidth=1;entryX=1;entryY=0.5;entryDx=0;entryDy=0;strokeColor=#FF0000;exitX=1;exitY=0.75;exitDx=0;exitDy=0;" parent="1" source="hTMrgwxnhjDJvFNw6e5T-4" target="hTMrgwxnhjDJvFNw6e5T-16" edge="1">
          <mxGeometry width="50" height="50" relative="1" as="geometry">
            <mxPoint x="720" y="400" as="sourcePoint" />
            <mxPoint x="630" y="560" as="targetPoint" />
            <Array as="points">
              <mxPoint x="670" y="335" />
              <mxPoint x="670" y="480" />
              <mxPoint x="670" y="560" />
            </Array>
          </mxGeometry>
        </mxCell>
        <mxCell id="hTMrgwxnhjDJvFNw6e5T-63" value="" style="endArrow=classic;html=1;rounded=0;strokeWidth=1;entryX=1;entryY=0.5;entryDx=0;entryDy=0;strokeColor=#FF0000;exitX=1;exitY=0.25;exitDx=0;exitDy=0;" parent="1" source="hTMrgwxnhjDJvFNw6e5T-4" target="hTMrgwxnhjDJvFNw6e5T-34" edge="1">
          <mxGeometry width="50" height="50" relative="1" as="geometry">
            <mxPoint x="892" y="380" as="sourcePoint" />
            <mxPoint x="832" y="560" as="targetPoint" />
            <Array as="points">
              <mxPoint x="880" y="305" />
              <mxPoint x="880" y="560" />
            </Array>
          </mxGeometry>
        </mxCell>
        <mxCell id="hTMrgwxnhjDJvFNw6e5T-64" value="5V&lt;br&gt;1,5A" style="rounded=0;whiteSpace=wrap;html=1;fillColor=none;" parent="1" vertex="1">
          <mxGeometry x="782" y="200" width="73" height="45" as="geometry" />
        </mxCell>
        <mxCell id="hTMrgwxnhjDJvFNw6e5T-65" value="12V ou 14V 4A" style="rounded=0;whiteSpace=wrap;html=1;fillColor=none;" parent="1" vertex="1">
          <mxGeometry x="885" y="200" width="73" height="45" as="geometry" />
        </mxCell>
        <mxCell id="hTMrgwxnhjDJvFNw6e5T-66" value="Power board" style="text;html=1;align=center;verticalAlign=middle;resizable=0;points=[];autosize=1;strokeColor=none;fillColor=none;fontStyle=1" parent="1" vertex="1">
          <mxGeometry x="837.5" y="60" width="80" height="20" as="geometry" />
        </mxCell>
        <mxCell id="hTMrgwxnhjDJvFNw6e5T-67" value="Land propulsion" style="text;html=1;align=center;verticalAlign=middle;resizable=0;points=[];autosize=1;strokeColor=none;fillColor=none;fontStyle=1" parent="1" vertex="1">
          <mxGeometry x="615" y="760" width="100" height="20" as="geometry" />
        </mxCell>
        <mxCell id="hTMrgwxnhjDJvFNw6e5T-68" value="&lt;font&gt;ESP32&amp;nbsp;&lt;/font&gt;/ ESP8266" style="rounded=0;whiteSpace=wrap;html=1;fontColor=#F0F0F0;" parent="1" vertex="1">
          <mxGeometry x="1100" y="540" width="70" height="40" as="geometry" />
        </mxCell>
        <mxCell id="hTMrgwxnhjDJvFNw6e5T-69" value="" style="endArrow=none;html=1;rounded=0;fontColor=#000000;strokeColor=#9999FF;exitX=0.288;exitY=0.018;exitDx=0;exitDy=0;exitPerimeter=0;endFill=0;startArrow=classic;startFill=1;" parent="1" edge="1">
          <mxGeometry width="50" height="50" relative="1" as="geometry">
            <mxPoint x="1110.1599999999999" y="620.72" as="sourcePoint" />
            <mxPoint x="1110" y="580" as="targetPoint" />
          </mxGeometry>
        </mxCell>
        <mxCell id="hTMrgwxnhjDJvFNw6e5T-70" value="" style="endArrow=none;html=1;rounded=0;fontColor=#000000;strokeColor=#9999FF;exitX=0.288;exitY=0.018;exitDx=0;exitDy=0;exitPerimeter=0;endFill=0;startArrow=classic;startFill=1;" parent="1" edge="1">
          <mxGeometry width="50" height="50" relative="1" as="geometry">
            <mxPoint x="1160.1599999999999" y="620.72" as="sourcePoint" />
            <mxPoint x="1160" y="580" as="targetPoint" />
          </mxGeometry>
        </mxCell>
        <mxCell id="hTMrgwxnhjDJvFNw6e5T-71" value="" style="endArrow=none;html=1;rounded=0;fontColor=#000000;strokeColor=#FF3333;startArrow=classic;startFill=1;endFill=0;entryX=0.25;entryY=1;entryDx=0;entryDy=0;exitX=1;exitY=0.75;exitDx=0;exitDy=0;" parent="1" source="hTMrgwxnhjDJvFNw6e5T-17" edge="1">
          <mxGeometry width="50" height="50" relative="1" as="geometry">
            <mxPoint x="710" y="800" as="sourcePoint" />
            <mxPoint x="944.6199999999999" y="245" as="targetPoint" />
            <Array as="points">
              <mxPoint x="720" y="650" />
              <mxPoint x="720" y="800" />
              <mxPoint x="945" y="800" />
            </Array>
          </mxGeometry>
        </mxCell>
        <mxCell id="hTMrgwxnhjDJvFNw6e5T-72" value="ESC" style="rounded=0;whiteSpace=wrap;html=1;" parent="1" vertex="1">
          <mxGeometry x="1070" y="622.5" width="50" height="30" as="geometry" />
        </mxCell>
        <mxCell id="hTMrgwxnhjDJvFNw6e5T-73" value="ESC" style="rounded=0;whiteSpace=wrap;html=1;" parent="1" vertex="1">
          <mxGeometry x="1150" y="622.5" width="50" height="30" as="geometry" />
        </mxCell>
        <mxCell id="hTMrgwxnhjDJvFNw6e5T-74" value="" style="endArrow=classic;html=1;rounded=0;exitX=0.25;exitY=1;exitDx=0;exitDy=0;entryX=0.25;entryY=0;entryDx=0;entryDy=0;strokeColor=#FF0000;" parent="1" source="hTMrgwxnhjDJvFNw6e5T-59" target="hTMrgwxnhjDJvFNw6e5T-72" edge="1">
          <mxGeometry width="50" height="50" relative="1" as="geometry">
            <mxPoint x="1190" y="380" as="sourcePoint" />
            <mxPoint x="1030" y="560" as="targetPoint" />
            <Array as="points">
              <mxPoint x="1033" y="520" />
              <mxPoint x="1083" y="520" />
            </Array>
          </mxGeometry>
        </mxCell>
      </root>
    </mxGraphModel>
  </diagram>
  <diagram id="wLP5PLQNad7RbzsxKt1l" name="ItÃ©ration janvier">
    <mxGraphModel dx="984" dy="719" grid="1" gridSize="10" guides="1" tooltips="1" connect="1" arrows="1" fold="1" page="1" pageScale="1" pageWidth="827" pageHeight="1169" math="0" shadow="0">
      <root>
        <mxCell id="0" />
        <mxCell id="1" parent="0" />
        <mxCell id="4kGGq8LIQU13ggXpQt41-90" value="" style="rounded=0;whiteSpace=wrap;html=1;fontSize=11;fillColor=none;dashed=1;strokeWidth=2;strokeColor=#FFFF66;" parent="1" vertex="1">
          <mxGeometry x="530" y="200" width="470" height="690" as="geometry" />
        </mxCell>
        <mxCell id="4kGGq8LIQU13ggXpQt41-89" value="" style="endArrow=classic;html=1;rounded=0;fontSize=11;strokeColor=#990000;exitX=0.363;exitY=1.059;exitDx=0;exitDy=0;exitPerimeter=0;startArrow=none;startFill=0;endFill=1;" parent="1" source="4kGGq8LIQU13ggXpQt41-70" edge="1">
          <mxGeometry width="50" height="50" relative="1" as="geometry">
            <mxPoint x="920.04" y="693.3600000000001" as="sourcePoint" />
            <mxPoint x="700" y="760" as="targetPoint" />
            <Array as="points">
              <mxPoint x="921" y="741" />
              <mxPoint x="700" y="741" />
            </Array>
          </mxGeometry>
        </mxCell>
        <mxCell id="4kGGq8LIQU13ggXpQt41-87" value="" style="rounded=0;whiteSpace=wrap;html=1;fontSize=11;fillColor=none;dashed=1;strokeWidth=2;strokeColor=#FFFF66;" parent="1" vertex="1">
          <mxGeometry x="110" y="220" width="390" height="640" as="geometry" />
        </mxCell>
        <mxCell id="jmI-IT9qMmDOyiV4Hz3e-3" value="" style="rounded=0;whiteSpace=wrap;html=1;dashed=1;fillColor=none;" parent="1" vertex="1">
          <mxGeometry x="170" y="270" width="110" height="160" as="geometry" />
        </mxCell>
        <mxCell id="jmI-IT9qMmDOyiV4Hz3e-4" value="Jetson Nano" style="rounded=0;whiteSpace=wrap;html=1;" parent="1" vertex="1">
          <mxGeometry x="550" y="290" width="115" height="60" as="geometry" />
        </mxCell>
        <mxCell id="jmI-IT9qMmDOyiV4Hz3e-5" value="" style="endArrow=classic;html=1;rounded=0;entryX=0;entryY=0.5;entryDx=0;entryDy=0;exitX=1;exitY=0.5;exitDx=0;exitDy=0;fillColor=#ffe6cc;strokeColor=#FF00FF;startArrow=classic;startFill=1;endFill=1;" parent="1" source="jmI-IT9qMmDOyiV4Hz3e-6" target="jmI-IT9qMmDOyiV4Hz3e-4" edge="1">
          <mxGeometry width="50" height="50" relative="1" as="geometry">
            <mxPoint x="419" y="320" as="sourcePoint" />
            <mxPoint x="469" y="285" as="targetPoint" />
          </mxGeometry>
        </mxCell>
        <mxCell id="jmI-IT9qMmDOyiV4Hz3e-6" value="Raspberry Pi 3 B+" style="rounded=0;whiteSpace=wrap;html=1;" parent="1" vertex="1">
          <mxGeometry x="299" y="290" width="120" height="60" as="geometry" />
        </mxCell>
        <mxCell id="jmI-IT9qMmDOyiV4Hz3e-7" value="LAN" style="text;html=1;strokeColor=none;fillColor=none;align=center;verticalAlign=middle;whiteSpace=wrap;rounded=0;fontColor=#FF00FF;" parent="1" vertex="1">
          <mxGeometry x="430" y="300" width="60" height="20" as="geometry" />
        </mxCell>
        <mxCell id="jmI-IT9qMmDOyiV4Hz3e-8" value="&lt;font&gt;RaspiCam&lt;/font&gt;" style="rounded=0;whiteSpace=wrap;html=1;fontColor=#000000;" parent="1" vertex="1">
          <mxGeometry x="185" y="290" width="80" height="60" as="geometry" />
        </mxCell>
        <mxCell id="jmI-IT9qMmDOyiV4Hz3e-9" value="" style="endArrow=classic;html=1;rounded=0;fontColor=#000000;exitX=0.5;exitY=0;exitDx=0;exitDy=0;strokeWidth=1;startArrow=none;startFill=0;endFill=1;entryX=0.25;entryY=0;entryDx=0;entryDy=0;" parent="1" source="jmI-IT9qMmDOyiV4Hz3e-8" target="jmI-IT9qMmDOyiV4Hz3e-6" edge="1">
          <mxGeometry width="50" height="50" relative="1" as="geometry">
            <mxPoint x="335" y="430" as="sourcePoint" />
            <mxPoint x="540" y="250" as="targetPoint" />
            <Array as="points">
              <mxPoint x="225" y="250" />
              <mxPoint x="329" y="250" />
            </Array>
          </mxGeometry>
        </mxCell>
        <mxCell id="jmI-IT9qMmDOyiV4Hz3e-10" value="" style="endArrow=classic;dashed=1;html=1;rounded=0;fontColor=#000000;exitX=0.5;exitY=0;exitDx=0;exitDy=0;strokeColor=#FF00FF;dashPattern=1 1;startArrow=classic;startFill=1;endFill=1;entryX=1;entryY=0.75;entryDx=0;entryDy=0;" parent="1" source="jmI-IT9qMmDOyiV4Hz3e-6" target="jmI-IT9qMmDOyiV4Hz3e-48" edge="1">
          <mxGeometry width="50" height="50" relative="1" as="geometry">
            <mxPoint x="355" y="260" as="sourcePoint" />
            <mxPoint x="225.0000000000001" y="200" as="targetPoint" />
            <Array as="points">
              <mxPoint x="359" y="110" />
            </Array>
          </mxGeometry>
        </mxCell>
        <mxCell id="jmI-IT9qMmDOyiV4Hz3e-11" value="LW 20/C" style="rounded=0;whiteSpace=wrap;html=1;fontColor=#0F0F0F;" parent="1" vertex="1">
          <mxGeometry x="185" y="380" width="80" height="40" as="geometry" />
        </mxCell>
        <mxCell id="jmI-IT9qMmDOyiV4Hz3e-12" value="" style="endArrow=classic;html=1;rounded=0;fontColor=#000000;exitX=1;exitY=0.5;exitDx=0;exitDy=0;endFill=1;entryX=0.5;entryY=1;entryDx=0;entryDy=0;" parent="1" source="jmI-IT9qMmDOyiV4Hz3e-11" target="jmI-IT9qMmDOyiV4Hz3e-6" edge="1">
          <mxGeometry width="50" height="50" relative="1" as="geometry">
            <mxPoint x="435" y="430" as="sourcePoint" />
            <mxPoint x="520" y="340" as="targetPoint" />
            <Array as="points">
              <mxPoint x="360" y="400" />
            </Array>
          </mxGeometry>
        </mxCell>
        <mxCell id="jmI-IT9qMmDOyiV4Hz3e-13" value="" style="endArrow=none;html=1;rounded=0;fontColor=#000000;strokeColor=#009900;exitX=0.379;exitY=0.039;exitDx=0;exitDy=0;exitPerimeter=0;" parent="1" source="jmI-IT9qMmDOyiV4Hz3e-16" edge="1">
          <mxGeometry width="50" height="50" relative="1" as="geometry">
            <mxPoint x="585" y="539.9999999999999" as="sourcePoint" />
            <mxPoint x="585" y="400" as="targetPoint" />
            <Array as="points">
              <mxPoint x="247" y="460" />
              <mxPoint x="585" y="460" />
            </Array>
          </mxGeometry>
        </mxCell>
        <mxCell id="jmI-IT9qMmDOyiV4Hz3e-14" value="" style="endArrow=none;html=1;rounded=0;fontColor=#000000;strokeColor=#00CCCC;exitX=0.5;exitY=0;exitDx=0;exitDy=0;" parent="1" edge="1">
          <mxGeometry width="50" height="50" relative="1" as="geometry">
            <mxPoint x="255" y="520" as="sourcePoint" />
            <mxPoint x="575" y="410" as="targetPoint" />
            <Array as="points">
              <mxPoint x="255" y="470" />
              <mxPoint x="575" y="470" />
            </Array>
          </mxGeometry>
        </mxCell>
        <mxCell id="jmI-IT9qMmDOyiV4Hz3e-15" value="" style="endArrow=none;html=1;rounded=0;strokeColor=#009900;" parent="1" edge="1">
          <mxGeometry width="50" height="50" relative="1" as="geometry">
            <mxPoint x="585" y="399.9999999999999" as="sourcePoint" />
            <mxPoint x="730" y="540" as="targetPoint" />
            <Array as="points">
              <mxPoint x="730" y="400" />
            </Array>
          </mxGeometry>
        </mxCell>
        <mxCell id="jmI-IT9qMmDOyiV4Hz3e-16" value="&lt;font&gt;ESP32&amp;nbsp;&lt;/font&gt;" style="rounded=0;whiteSpace=wrap;html=1;fontColor=#000000;" parent="1" vertex="1">
          <mxGeometry x="220" y="520" width="70" height="40" as="geometry" />
        </mxCell>
        <mxCell id="jmI-IT9qMmDOyiV4Hz3e-17" value="BLMD" style="rounded=0;whiteSpace=wrap;html=1;fontColor=#000000;" parent="1" vertex="1">
          <mxGeometry x="170" y="600" width="70" height="40" as="geometry" />
        </mxCell>
        <mxCell id="jmI-IT9qMmDOyiV4Hz3e-19" value="" style="endArrow=none;html=1;rounded=0;fontColor=#000000;strokeColor=#9999FF;exitX=0.288;exitY=0.018;exitDx=0;exitDy=0;exitPerimeter=0;endFill=0;startArrow=classic;startFill=1;entryX=0.131;entryY=1.055;entryDx=0;entryDy=0;entryPerimeter=0;" parent="1" source="jmI-IT9qMmDOyiV4Hz3e-17" target="jmI-IT9qMmDOyiV4Hz3e-16" edge="1">
          <mxGeometry width="50" height="50" relative="1" as="geometry">
            <mxPoint x="241" y="601.4" as="sourcePoint" />
            <mxPoint x="240" y="559.9999999999999" as="targetPoint" />
            <Array as="points">
              <mxPoint x="190" y="580" />
              <mxPoint x="229" y="580" />
            </Array>
          </mxGeometry>
        </mxCell>
        <mxCell id="jmI-IT9qMmDOyiV4Hz3e-20" value="" style="endArrow=none;html=1;rounded=0;fontColor=#000000;strokeColor=#9999FF;exitX=0.5;exitY=0;exitDx=0;exitDy=0;endFill=0;startArrow=classic;startFill=1;entryX=0.25;entryY=1;entryDx=0;entryDy=0;" parent="1" source="jmI-IT9qMmDOyiV4Hz3e-17" target="jmI-IT9qMmDOyiV4Hz3e-16" edge="1">
          <mxGeometry width="50" height="50" relative="1" as="geometry">
            <mxPoint x="250.16000000000008" y="600.72" as="sourcePoint" />
            <mxPoint x="250" y="559.9999999999999" as="targetPoint" />
            <Array as="points">
              <mxPoint x="205" y="590" />
              <mxPoint x="238" y="590" />
            </Array>
          </mxGeometry>
        </mxCell>
        <mxCell id="jmI-IT9qMmDOyiV4Hz3e-21" value="" style="endArrow=none;html=1;rounded=0;fontColor=#000000;strokeColor=#9999FF;endFill=0;startArrow=classic;startFill=1;exitX=0.171;exitY=0.017;exitDx=0;exitDy=0;exitPerimeter=0;" parent="1" source="4kGGq8LIQU13ggXpQt41-5" edge="1">
          <mxGeometry width="50" height="50" relative="1" as="geometry">
            <mxPoint x="300" y="590" as="sourcePoint" />
            <mxPoint x="270" y="560" as="targetPoint" />
            <Array as="points">
              <mxPoint x="277" y="580" />
              <mxPoint x="270" y="580" />
            </Array>
          </mxGeometry>
        </mxCell>
        <mxCell id="jmI-IT9qMmDOyiV4Hz3e-22" value="" style="endArrow=none;html=1;rounded=0;fontColor=#000000;strokeColor=#9999FF;endFill=0;startArrow=classic;startFill=1;exitX=0.367;exitY=-0.024;exitDx=0;exitDy=0;exitPerimeter=0;" parent="1" source="4kGGq8LIQU13ggXpQt41-5" edge="1">
          <mxGeometry width="50" height="50" relative="1" as="geometry">
            <mxPoint x="300" y="590" as="sourcePoint" />
            <mxPoint x="280" y="560" as="targetPoint" />
            <Array as="points">
              <mxPoint x="290" y="570" />
              <mxPoint x="280" y="570" />
            </Array>
          </mxGeometry>
        </mxCell>
        <mxCell id="jmI-IT9qMmDOyiV4Hz3e-23" value="" style="endArrow=classic;html=1;rounded=0;fontColor=#000000;strokeColor=#FF3333;exitX=0;exitY=0.5;exitDx=0;exitDy=0;entryX=0.096;entryY=0.011;entryDx=0;entryDy=0;entryPerimeter=0;" parent="1" source="jmI-IT9qMmDOyiV4Hz3e-16" target="jmI-IT9qMmDOyiV4Hz3e-17" edge="1">
          <mxGeometry width="50" height="50" relative="1" as="geometry">
            <mxPoint x="190" y="610" as="sourcePoint" />
            <mxPoint x="180" y="610" as="targetPoint" />
            <Array as="points">
              <mxPoint x="177" y="540" />
            </Array>
          </mxGeometry>
        </mxCell>
        <mxCell id="jmI-IT9qMmDOyiV4Hz3e-24" value="M" style="ellipse;whiteSpace=wrap;html=1;aspect=fixed;fontColor=default;" parent="1" vertex="1">
          <mxGeometry x="180" y="690" width="32.5" height="32.5" as="geometry" />
        </mxCell>
        <mxCell id="jmI-IT9qMmDOyiV4Hz3e-29" value="SDA" style="text;html=1;strokeColor=none;fillColor=none;align=center;verticalAlign=middle;whiteSpace=wrap;rounded=0;fontColor=#009900;fontSize=9;rotation=0;" parent="1" vertex="1">
          <mxGeometry x="623.5" y="385" width="30" height="10" as="geometry" />
        </mxCell>
        <mxCell id="jmI-IT9qMmDOyiV4Hz3e-30" value="SCL" style="text;html=1;strokeColor=none;fillColor=none;align=center;verticalAlign=middle;whiteSpace=wrap;rounded=0;fontColor=#00CCCC;fontSize=9;rotation=0;" parent="1" vertex="1">
          <mxGeometry x="600" y="417.5" width="30" height="10" as="geometry" />
        </mxCell>
        <mxCell id="jmI-IT9qMmDOyiV4Hz3e-31" value="" style="endArrow=none;html=1;rounded=0;strokeColor=#00CCCC;" parent="1" edge="1">
          <mxGeometry width="50" height="50" relative="1" as="geometry">
            <mxPoint x="575" y="409.9999999999999" as="sourcePoint" />
            <mxPoint x="720" y="540" as="targetPoint" />
            <Array as="points">
              <mxPoint x="720" y="410" />
            </Array>
          </mxGeometry>
        </mxCell>
        <mxCell id="jmI-IT9qMmDOyiV4Hz3e-48" value="&lt;font style=&quot;font-size: 11px;&quot;&gt;PC&lt;/font&gt;" style="rounded=0;whiteSpace=wrap;html=1;fontSize=11;fontColor=#F0F0F0;fillColor=#190033;" parent="1" vertex="1">
          <mxGeometry x="160" y="80" width="70" height="40" as="geometry" />
        </mxCell>
        <mxCell id="jmI-IT9qMmDOyiV4Hz3e-49" value="WiFi" style="text;html=1;strokeColor=none;fillColor=none;align=center;verticalAlign=middle;whiteSpace=wrap;rounded=0;fontColor=#FF00FF;" parent="1" vertex="1">
          <mxGeometry x="265" y="110" width="60" height="20" as="geometry" />
        </mxCell>
        <mxCell id="jmI-IT9qMmDOyiV4Hz3e-50" value="" style="endArrow=none;html=1;rounded=0;fontSize=11;fontColor=#000000;strokeColor=#FC7E00;strokeWidth=1;entryX=0.5;entryY=1;entryDx=0;entryDy=0;exitX=0.147;exitY=-0.008;exitDx=0;exitDy=0;exitPerimeter=0;startArrow=classicThin;startFill=1;" parent="1" source="jmI-IT9qMmDOyiV4Hz3e-16" target="jmI-IT9qMmDOyiV4Hz3e-24" edge="1">
          <mxGeometry width="50" height="50" relative="1" as="geometry">
            <mxPoint x="505" y="400" as="sourcePoint" />
            <mxPoint x="355" y="640" as="targetPoint" />
            <Array as="points">
              <mxPoint x="230" y="480" />
              <mxPoint x="150" y="480" />
              <mxPoint x="150" y="770" />
              <mxPoint x="196" y="770" />
            </Array>
          </mxGeometry>
        </mxCell>
        <mxCell id="jmI-IT9qMmDOyiV4Hz3e-51" value="&lt;font color=&quot;#ff0000&quot;&gt;+3,3V&lt;/font&gt;" style="text;html=1;strokeColor=none;fillColor=none;align=center;verticalAlign=middle;whiteSpace=wrap;rounded=0;fontSize=11;fontColor=#000000;" parent="1" vertex="1">
          <mxGeometry x="180" y="520" width="45" height="20" as="geometry" />
        </mxCell>
        <mxCell id="jmI-IT9qMmDOyiV4Hz3e-54" value="" style="endArrow=none;html=1;rounded=0;fontSize=11;fontColor=#FF0000;strokeColor=#E07000;strokeWidth=1;entryX=0.5;entryY=1;entryDx=0;entryDy=0;exitX=0.75;exitY=0;exitDx=0;exitDy=0;startArrow=classicThin;startFill=1;" parent="1" source="jmI-IT9qMmDOyiV4Hz3e-16" target="4kGGq8LIQU13ggXpQt41-11" edge="1">
          <mxGeometry width="50" height="50" relative="1" as="geometry">
            <mxPoint x="270" y="510" as="sourcePoint" />
            <mxPoint x="266.25" y="722.5" as="targetPoint" />
            <Array as="points">
              <mxPoint x="273" y="480" />
              <mxPoint x="360" y="480" />
              <mxPoint x="360" y="770" />
              <mxPoint x="296" y="770" />
            </Array>
          </mxGeometry>
        </mxCell>
        <mxCell id="jmI-IT9qMmDOyiV4Hz3e-55" value="Sensor" style="text;html=1;align=center;verticalAlign=middle;resizable=0;points=[];autosize=1;strokeColor=none;fillColor=none;fontStyle=1" parent="1" vertex="1">
          <mxGeometry x="200" y="430" width="50" height="20" as="geometry" />
        </mxCell>
        <mxCell id="4kGGq8LIQU13ggXpQt41-1" style="rounded=0;orthogonalLoop=1;jettySize=auto;html=1;entryX=0.782;entryY=-0.006;entryDx=0;entryDy=0;fillColor=#a20025;strokeColor=#FF0000;exitX=0.5;exitY=1;exitDx=0;exitDy=0;entryPerimeter=0;" parent="1" source="jmI-IT9qMmDOyiV4Hz3e-58" target="jmI-IT9qMmDOyiV4Hz3e-4" edge="1">
          <mxGeometry relative="1" as="geometry">
            <mxPoint x="610" y="530" as="sourcePoint" />
          </mxGeometry>
        </mxCell>
        <mxCell id="jmI-IT9qMmDOyiV4Hz3e-58" value="Batterie 14,8V" style="rounded=0;whiteSpace=wrap;html=1;fillColor=none;" parent="1" vertex="1">
          <mxGeometry x="600" y="220" width="77" height="37.5" as="geometry" />
        </mxCell>
        <mxCell id="jmI-IT9qMmDOyiV4Hz3e-62" value="" style="endArrow=classic;html=1;rounded=0;strokeWidth=1;entryX=1;entryY=0.25;entryDx=0;entryDy=0;strokeColor=#FF0000;exitX=0.091;exitY=1.015;exitDx=0;exitDy=0;exitPerimeter=0;" parent="1" source="jmI-IT9qMmDOyiV4Hz3e-4" target="jmI-IT9qMmDOyiV4Hz3e-16" edge="1">
          <mxGeometry width="50" height="50" relative="1" as="geometry">
            <mxPoint x="720" y="400" as="sourcePoint" />
            <mxPoint x="630" y="560" as="targetPoint" />
            <Array as="points">
              <mxPoint x="560" y="530" />
            </Array>
          </mxGeometry>
        </mxCell>
        <mxCell id="jmI-IT9qMmDOyiV4Hz3e-63" value="" style="endArrow=classic;html=1;rounded=0;strokeWidth=1;entryX=0.5;entryY=0;entryDx=0;entryDy=0;strokeColor=#FF0000;exitX=1;exitY=0.25;exitDx=0;exitDy=0;" parent="1" source="jmI-IT9qMmDOyiV4Hz3e-4" target="4kGGq8LIQU13ggXpQt41-45" edge="1">
          <mxGeometry width="50" height="50" relative="1" as="geometry">
            <mxPoint x="892" y="380" as="sourcePoint" />
            <mxPoint x="863.3699999999999" y="560" as="targetPoint" />
            <Array as="points">
              <mxPoint x="770" y="305" />
              <mxPoint x="770" y="480" />
              <mxPoint x="736" y="480" />
            </Array>
          </mxGeometry>
        </mxCell>
        <mxCell id="4kGGq8LIQU13ggXpQt41-2" value="&lt;font color=&quot;#ff0000&quot;&gt;+3,3V&lt;/font&gt;" style="text;html=1;strokeColor=none;fillColor=none;align=center;verticalAlign=middle;whiteSpace=wrap;rounded=0;fontSize=11;fontColor=#000000;rotation=-90;" parent="1" vertex="1">
          <mxGeometry x="520" y="365" width="45" height="20" as="geometry" />
        </mxCell>
        <mxCell id="4kGGq8LIQU13ggXpQt41-7" style="rounded=0;orthogonalLoop=1;jettySize=auto;html=1;startArrow=none;startFill=0;strokeColor=#990000;endArrow=classic;endFill=1;entryX=1;entryY=0.5;entryDx=0;entryDy=0;exitX=0;exitY=0.75;exitDx=0;exitDy=0;" parent="1" source="4kGGq8LIQU13ggXpQt41-3" target="4kGGq8LIQU13ggXpQt41-5" edge="1">
          <mxGeometry relative="1" as="geometry">
            <mxPoint x="370" y="610" as="targetPoint" />
            <Array as="points">
              <mxPoint x="400" y="590" />
              <mxPoint x="400" y="620" />
            </Array>
          </mxGeometry>
        </mxCell>
        <mxCell id="4kGGq8LIQU13ggXpQt41-23" style="edgeStyle=none;rounded=0;orthogonalLoop=1;jettySize=auto;html=1;exitX=0.5;exitY=1;exitDx=0;exitDy=0;entryX=0.5;entryY=0;entryDx=0;entryDy=0;fontSize=11;startArrow=none;startFill=0;endArrow=classic;endFill=1;strokeColor=#990000;" parent="1" source="4kGGq8LIQU13ggXpQt41-3" target="4kGGq8LIQU13ggXpQt41-22" edge="1">
          <mxGeometry relative="1" as="geometry" />
        </mxCell>
        <mxCell id="4kGGq8LIQU13ggXpQt41-3" value="Batterie&lt;br&gt;18,5V" style="rounded=0;whiteSpace=wrap;html=1;" parent="1" vertex="1">
          <mxGeometry x="412" y="560" width="76" height="40" as="geometry" />
        </mxCell>
        <mxCell id="4kGGq8LIQU13ggXpQt41-4" value="" style="endArrow=classic;html=1;rounded=0;strokeColor=#990000;exitX=0;exitY=0.5;exitDx=0;exitDy=0;entryX=0;entryY=0.5;entryDx=0;entryDy=0;" parent="1" source="4kGGq8LIQU13ggXpQt41-3" target="jmI-IT9qMmDOyiV4Hz3e-17" edge="1">
          <mxGeometry width="50" height="50" relative="1" as="geometry">
            <mxPoint x="370" y="630" as="sourcePoint" />
            <mxPoint x="170" y="620" as="targetPoint" />
            <Array as="points">
              <mxPoint x="330" y="580" />
              <mxPoint x="330" y="500" />
              <mxPoint x="130" y="500" />
              <mxPoint x="130" y="620" />
            </Array>
          </mxGeometry>
        </mxCell>
        <mxCell id="4kGGq8LIQU13ggXpQt41-5" value="BLMD" style="rounded=0;whiteSpace=wrap;html=1;fontColor=#000000;" parent="1" vertex="1">
          <mxGeometry x="265" y="600" width="70" height="40" as="geometry" />
        </mxCell>
        <mxCell id="4kGGq8LIQU13ggXpQt41-8" value="" style="endArrow=classic;html=1;rounded=0;strokeColor=#007FFF;entryX=0.5;entryY=0;entryDx=0;entryDy=0;" parent="1" target="jmI-IT9qMmDOyiV4Hz3e-24" edge="1">
          <mxGeometry width="50" height="50" relative="1" as="geometry">
            <mxPoint x="195.87" y="640" as="sourcePoint" />
            <mxPoint x="195.87" y="690" as="targetPoint" />
          </mxGeometry>
        </mxCell>
        <mxCell id="4kGGq8LIQU13ggXpQt41-9" value="" style="endArrow=classic;html=1;rounded=0;strokeColor=#007FFF;entryX=1;entryY=0;entryDx=0;entryDy=0;" parent="1" target="jmI-IT9qMmDOyiV4Hz3e-24" edge="1">
          <mxGeometry width="50" height="50" relative="1" as="geometry">
            <mxPoint x="220" y="640" as="sourcePoint" />
            <mxPoint x="205.8699999999999" y="690" as="targetPoint" />
          </mxGeometry>
        </mxCell>
        <mxCell id="4kGGq8LIQU13ggXpQt41-10" value="" style="endArrow=classic;html=1;rounded=0;strokeColor=#007FFF;entryX=0;entryY=0;entryDx=0;entryDy=0;" parent="1" target="jmI-IT9qMmDOyiV4Hz3e-24" edge="1">
          <mxGeometry width="50" height="50" relative="1" as="geometry">
            <mxPoint x="179.9999999999999" y="640" as="sourcePoint" />
            <mxPoint x="179.9999999999999" y="690" as="targetPoint" />
          </mxGeometry>
        </mxCell>
        <mxCell id="4kGGq8LIQU13ggXpQt41-11" value="M" style="ellipse;whiteSpace=wrap;html=1;aspect=fixed;fontColor=default;" parent="1" vertex="1">
          <mxGeometry x="280" y="690" width="32.5" height="32.5" as="geometry" />
        </mxCell>
        <mxCell id="4kGGq8LIQU13ggXpQt41-12" value="" style="endArrow=classic;html=1;rounded=0;strokeColor=#007FFF;entryX=0.5;entryY=0;entryDx=0;entryDy=0;" parent="1" target="4kGGq8LIQU13ggXpQt41-11" edge="1">
          <mxGeometry width="50" height="50" relative="1" as="geometry">
            <mxPoint x="295.8699999999999" y="640" as="sourcePoint" />
            <mxPoint x="295.87" y="690" as="targetPoint" />
          </mxGeometry>
        </mxCell>
        <mxCell id="4kGGq8LIQU13ggXpQt41-13" value="" style="endArrow=classic;html=1;rounded=0;strokeColor=#007FFF;entryX=1;entryY=0;entryDx=0;entryDy=0;" parent="1" target="4kGGq8LIQU13ggXpQt41-11" edge="1">
          <mxGeometry width="50" height="50" relative="1" as="geometry">
            <mxPoint x="320" y="640" as="sourcePoint" />
            <mxPoint x="305.8699999999999" y="690" as="targetPoint" />
          </mxGeometry>
        </mxCell>
        <mxCell id="4kGGq8LIQU13ggXpQt41-14" value="" style="endArrow=classic;html=1;rounded=0;strokeColor=#007FFF;entryX=0;entryY=0;entryDx=0;entryDy=0;" parent="1" target="4kGGq8LIQU13ggXpQt41-11" edge="1">
          <mxGeometry width="50" height="50" relative="1" as="geometry">
            <mxPoint x="279.9999999999999" y="640" as="sourcePoint" />
            <mxPoint x="279.9999999999999" y="690" as="targetPoint" />
          </mxGeometry>
        </mxCell>
        <mxCell id="4kGGq8LIQU13ggXpQt41-15" value="" style="endArrow=classic;html=1;rounded=0;fontColor=#000000;strokeColor=#FF3333;exitX=1;exitY=0.75;exitDx=0;exitDy=0;entryX=0.75;entryY=0;entryDx=0;entryDy=0;" parent="1" source="jmI-IT9qMmDOyiV4Hz3e-16" target="4kGGq8LIQU13ggXpQt41-5" edge="1">
          <mxGeometry width="50" height="50" relative="1" as="geometry">
            <mxPoint x="230" y="550" as="sourcePoint" />
            <mxPoint x="186.72000000000003" y="610.4399999999998" as="targetPoint" />
            <Array as="points">
              <mxPoint x="318" y="550" />
            </Array>
          </mxGeometry>
        </mxCell>
        <mxCell id="4kGGq8LIQU13ggXpQt41-16" value="&lt;font color=&quot;#ff0000&quot; style=&quot;font-size: 9px;&quot;&gt;+3,3V&lt;/font&gt;" style="text;html=1;strokeColor=none;fillColor=none;align=center;verticalAlign=middle;whiteSpace=wrap;rounded=0;fontSize=9;fontColor=#000000;" parent="1" vertex="1">
          <mxGeometry x="289" y="540" width="36" height="10" as="geometry" />
        </mxCell>
        <mxCell id="4kGGq8LIQU13ggXpQt41-20" value="&lt;font style=&quot;font-size: 11px&quot;&gt;DUALSHOCK 4&lt;/font&gt;" style="rounded=0;whiteSpace=wrap;html=1;fontSize=11;fillColor=#190033;" parent="1" vertex="1">
          <mxGeometry x="350" y="20" width="96" height="40" as="geometry" />
        </mxCell>
        <mxCell id="4kGGq8LIQU13ggXpQt41-21" value="" style="endArrow=classic;dashed=1;html=1;rounded=0;fontColor=#000000;exitX=1;exitY=0.25;exitDx=0;exitDy=0;strokeColor=#FF00FF;dashPattern=1 1;startArrow=classic;startFill=1;endFill=1;" parent="1" source="jmI-IT9qMmDOyiV4Hz3e-48" target="4kGGq8LIQU13ggXpQt41-20" edge="1">
          <mxGeometry width="50" height="50" relative="1" as="geometry">
            <mxPoint x="550" y="290" as="sourcePoint" />
            <mxPoint x="480" y="100" as="targetPoint" />
            <Array as="points">
              <mxPoint x="400" y="90" />
            </Array>
          </mxGeometry>
        </mxCell>
        <mxCell id="4kGGq8LIQU13ggXpQt41-22" value="&lt;font style=&quot;font-size: 11px&quot;&gt;Buck&amp;nbsp; Converter&lt;/font&gt;" style="rounded=0;whiteSpace=wrap;html=1;fontSize=9;" parent="1" vertex="1">
          <mxGeometry x="410" y="630" width="80" height="40" as="geometry" />
        </mxCell>
        <mxCell id="4kGGq8LIQU13ggXpQt41-25" value="ESC" style="rounded=0;whiteSpace=wrap;html=1;fontSize=11;" parent="1" vertex="1">
          <mxGeometry x="205" y="740" width="40" height="20" as="geometry" />
        </mxCell>
        <mxCell id="4kGGq8LIQU13ggXpQt41-26" value="ESC" style="rounded=0;whiteSpace=wrap;html=1;fontSize=11;" parent="1" vertex="1">
          <mxGeometry x="250" y="740" width="40" height="20" as="geometry" />
        </mxCell>
        <mxCell id="4kGGq8LIQU13ggXpQt41-27" value="" style="endArrow=classic;html=1;rounded=0;fontSize=11;strokeColor=#2D7600;exitX=0.414;exitY=1.052;exitDx=0;exitDy=0;exitPerimeter=0;entryX=0.919;entryY=-0.057;entryDx=0;entryDy=0;entryPerimeter=0;" parent="1" source="jmI-IT9qMmDOyiV4Hz3e-16" target="4kGGq8LIQU13ggXpQt41-25" edge="1">
          <mxGeometry width="50" height="50" relative="1" as="geometry">
            <mxPoint x="200" y="710" as="sourcePoint" />
            <mxPoint x="250" y="660" as="targetPoint" />
          </mxGeometry>
        </mxCell>
        <mxCell id="4kGGq8LIQU13ggXpQt41-28" value="" style="endArrow=classic;html=1;rounded=0;fontSize=11;strokeColor=#2D7600;exitX=0.367;exitY=1.061;exitDx=0;exitDy=0;exitPerimeter=0;entryX=0.25;entryY=0;entryDx=0;entryDy=0;" parent="1" target="4kGGq8LIQU13ggXpQt41-26" edge="1">
          <mxGeometry width="50" height="50" relative="1" as="geometry">
            <mxPoint x="256.96000000000004" y="561.7900000000001" as="sourcePoint" />
            <mxPoint x="253.03" y="738.21" as="targetPoint" />
          </mxGeometry>
        </mxCell>
        <mxCell id="4kGGq8LIQU13ggXpQt41-29" style="edgeStyle=none;rounded=0;orthogonalLoop=1;jettySize=auto;html=1;exitX=0.5;exitY=1;exitDx=0;exitDy=0;entryX=0.75;entryY=0;entryDx=0;entryDy=0;fontSize=11;startArrow=none;startFill=0;endArrow=classic;endFill=1;strokeColor=#990000;" parent="1" source="4kGGq8LIQU13ggXpQt41-22" target="4kGGq8LIQU13ggXpQt41-26" edge="1">
          <mxGeometry relative="1" as="geometry">
            <mxPoint x="481" y="610" as="sourcePoint" />
            <mxPoint x="481" y="640" as="targetPoint" />
            <Array as="points">
              <mxPoint x="450" y="730" />
              <mxPoint x="280" y="730" />
            </Array>
          </mxGeometry>
        </mxCell>
        <mxCell id="4kGGq8LIQU13ggXpQt41-30" value="" style="endArrow=classic;html=1;rounded=0;fontSize=11;strokeColor=#990000;entryX=0.25;entryY=0;entryDx=0;entryDy=0;exitX=0.363;exitY=1.059;exitDx=0;exitDy=0;exitPerimeter=0;" parent="1" source="4kGGq8LIQU13ggXpQt41-22" target="4kGGq8LIQU13ggXpQt41-25" edge="1">
          <mxGeometry width="50" height="50" relative="1" as="geometry">
            <mxPoint x="380" y="690" as="sourcePoint" />
            <mxPoint x="300" y="690" as="targetPoint" />
            <Array as="points">
              <mxPoint x="440" y="720" />
              <mxPoint x="215" y="720" />
            </Array>
          </mxGeometry>
        </mxCell>
        <mxCell id="4kGGq8LIQU13ggXpQt41-31" value="M.A" style="ellipse;whiteSpace=wrap;html=1;aspect=fixed;fontColor=default;" parent="1" vertex="1">
          <mxGeometry x="210" y="810" width="32.5" height="32.5" as="geometry" />
        </mxCell>
        <mxCell id="4kGGq8LIQU13ggXpQt41-32" value="" style="endArrow=classic;html=1;rounded=0;strokeColor=#007FFF;entryX=0.5;entryY=0;entryDx=0;entryDy=0;" parent="1" target="4kGGq8LIQU13ggXpQt41-31" edge="1">
          <mxGeometry width="50" height="50" relative="1" as="geometry">
            <mxPoint x="225.8699999999999" y="760" as="sourcePoint" />
            <mxPoint x="225.87" y="810" as="targetPoint" />
          </mxGeometry>
        </mxCell>
        <mxCell id="4kGGq8LIQU13ggXpQt41-33" value="" style="endArrow=classic;html=1;rounded=0;strokeColor=#007FFF;entryX=1;entryY=0;entryDx=0;entryDy=0;exitX=0.865;exitY=1.003;exitDx=0;exitDy=0;exitPerimeter=0;" parent="1" source="4kGGq8LIQU13ggXpQt41-25" target="4kGGq8LIQU13ggXpQt41-31" edge="1">
          <mxGeometry width="50" height="50" relative="1" as="geometry">
            <mxPoint x="250" y="760" as="sourcePoint" />
            <mxPoint x="235.8699999999999" y="810" as="targetPoint" />
          </mxGeometry>
        </mxCell>
        <mxCell id="4kGGq8LIQU13ggXpQt41-34" value="" style="endArrow=classic;html=1;rounded=0;strokeColor=#007FFF;entryX=0;entryY=0;entryDx=0;entryDy=0;" parent="1" target="4kGGq8LIQU13ggXpQt41-31" edge="1">
          <mxGeometry width="50" height="50" relative="1" as="geometry">
            <mxPoint x="209.9999999999999" y="760" as="sourcePoint" />
            <mxPoint x="209.9999999999999" y="810" as="targetPoint" />
          </mxGeometry>
        </mxCell>
        <mxCell id="4kGGq8LIQU13ggXpQt41-39" value="M.A" style="ellipse;whiteSpace=wrap;html=1;aspect=fixed;fontColor=default;" parent="1" vertex="1">
          <mxGeometry x="256.5" y="810" width="32.5" height="32.5" as="geometry" />
        </mxCell>
        <mxCell id="4kGGq8LIQU13ggXpQt41-40" value="" style="endArrow=classic;html=1;rounded=0;strokeColor=#007FFF;entryX=0.5;entryY=0;entryDx=0;entryDy=0;" parent="1" target="4kGGq8LIQU13ggXpQt41-39" edge="1">
          <mxGeometry width="50" height="50" relative="1" as="geometry">
            <mxPoint x="272.3699999999999" y="760" as="sourcePoint" />
            <mxPoint x="272.37" y="810" as="targetPoint" />
          </mxGeometry>
        </mxCell>
        <mxCell id="4kGGq8LIQU13ggXpQt41-41" value="" style="endArrow=classic;html=1;rounded=0;strokeColor=#007FFF;entryX=1;entryY=0;entryDx=0;entryDy=0;exitX=0.865;exitY=1.003;exitDx=0;exitDy=0;exitPerimeter=0;" parent="1" target="4kGGq8LIQU13ggXpQt41-39" edge="1">
          <mxGeometry width="50" height="50" relative="1" as="geometry">
            <mxPoint x="286.1" y="760.06" as="sourcePoint" />
            <mxPoint x="282.3699999999999" y="810" as="targetPoint" />
          </mxGeometry>
        </mxCell>
        <mxCell id="4kGGq8LIQU13ggXpQt41-42" value="" style="endArrow=classic;html=1;rounded=0;strokeColor=#007FFF;entryX=0;entryY=0;entryDx=0;entryDy=0;" parent="1" target="4kGGq8LIQU13ggXpQt41-39" edge="1">
          <mxGeometry width="50" height="50" relative="1" as="geometry">
            <mxPoint x="256.4999999999999" y="760" as="sourcePoint" />
            <mxPoint x="256.4999999999999" y="810" as="targetPoint" />
          </mxGeometry>
        </mxCell>
        <mxCell id="4kGGq8LIQU13ggXpQt41-43" value="+12V" style="text;html=1;strokeColor=none;fillColor=none;align=center;verticalAlign=middle;whiteSpace=wrap;rounded=0;fontSize=11;rotation=90;fontColor=#FF0000;" parent="1" vertex="1">
          <mxGeometry x="440" y="690" width="30" height="10" as="geometry" />
        </mxCell>
        <mxCell id="4kGGq8LIQU13ggXpQt41-44" value="BlueTooth" style="text;html=1;strokeColor=none;fillColor=none;align=center;verticalAlign=middle;whiteSpace=wrap;rounded=0;fontColor=#FF00FF;rotation=0;" parent="1" vertex="1">
          <mxGeometry x="265" y="70" width="60" height="20" as="geometry" />
        </mxCell>
        <mxCell id="4kGGq8LIQU13ggXpQt41-45" value="&lt;font&gt;ESP32&amp;nbsp;&lt;/font&gt;" style="rounded=0;whiteSpace=wrap;html=1;fontColor=#000000;" parent="1" vertex="1">
          <mxGeometry x="701" y="541" width="70" height="40" as="geometry" />
        </mxCell>
        <mxCell id="4kGGq8LIQU13ggXpQt41-46" value="BLMD" style="rounded=0;whiteSpace=wrap;html=1;fontColor=#141414;" parent="1" vertex="1">
          <mxGeometry x="651" y="621" width="70" height="40" as="geometry" />
        </mxCell>
        <mxCell id="4kGGq8LIQU13ggXpQt41-47" value="" style="endArrow=none;html=1;rounded=0;fontColor=#000000;strokeColor=#9999FF;exitX=0.288;exitY=0.018;exitDx=0;exitDy=0;exitPerimeter=0;endFill=0;startArrow=classic;startFill=1;entryX=0.131;entryY=1.055;entryDx=0;entryDy=0;entryPerimeter=0;" parent="1" source="4kGGq8LIQU13ggXpQt41-46" target="4kGGq8LIQU13ggXpQt41-45" edge="1">
          <mxGeometry width="50" height="50" relative="1" as="geometry">
            <mxPoint x="722" y="622.4" as="sourcePoint" />
            <mxPoint x="721" y="580.9999999999999" as="targetPoint" />
            <Array as="points">
              <mxPoint x="671" y="601" />
              <mxPoint x="710" y="601" />
            </Array>
          </mxGeometry>
        </mxCell>
        <mxCell id="4kGGq8LIQU13ggXpQt41-48" value="" style="endArrow=none;html=1;rounded=0;fontColor=#000000;strokeColor=#9999FF;exitX=0.5;exitY=0;exitDx=0;exitDy=0;endFill=0;startArrow=classic;startFill=1;entryX=0.25;entryY=1;entryDx=0;entryDy=0;" parent="1" source="4kGGq8LIQU13ggXpQt41-46" target="4kGGq8LIQU13ggXpQt41-45" edge="1">
          <mxGeometry width="50" height="50" relative="1" as="geometry">
            <mxPoint x="731.1600000000001" y="621.72" as="sourcePoint" />
            <mxPoint x="731" y="580.9999999999999" as="targetPoint" />
            <Array as="points">
              <mxPoint x="686" y="611" />
              <mxPoint x="719" y="611" />
            </Array>
          </mxGeometry>
        </mxCell>
        <mxCell id="4kGGq8LIQU13ggXpQt41-49" value="" style="endArrow=none;html=1;rounded=0;fontColor=#000000;strokeColor=#9999FF;endFill=0;startArrow=classic;startFill=1;exitX=0.171;exitY=0.017;exitDx=0;exitDy=0;exitPerimeter=0;" parent="1" source="4kGGq8LIQU13ggXpQt41-60" edge="1">
          <mxGeometry width="50" height="50" relative="1" as="geometry">
            <mxPoint x="781" y="611" as="sourcePoint" />
            <mxPoint x="751" y="581" as="targetPoint" />
            <Array as="points">
              <mxPoint x="758" y="601" />
              <mxPoint x="751" y="601" />
            </Array>
          </mxGeometry>
        </mxCell>
        <mxCell id="4kGGq8LIQU13ggXpQt41-50" value="" style="endArrow=none;html=1;rounded=0;fontColor=#000000;strokeColor=#9999FF;endFill=0;startArrow=classic;startFill=1;exitX=0.367;exitY=-0.024;exitDx=0;exitDy=0;exitPerimeter=0;" parent="1" source="4kGGq8LIQU13ggXpQt41-60" edge="1">
          <mxGeometry width="50" height="50" relative="1" as="geometry">
            <mxPoint x="781" y="611" as="sourcePoint" />
            <mxPoint x="761" y="581" as="targetPoint" />
            <Array as="points">
              <mxPoint x="771" y="591" />
              <mxPoint x="761" y="591" />
            </Array>
          </mxGeometry>
        </mxCell>
        <mxCell id="4kGGq8LIQU13ggXpQt41-51" value="" style="endArrow=classic;html=1;rounded=0;fontColor=#000000;strokeColor=#FF3333;exitX=0;exitY=0.5;exitDx=0;exitDy=0;entryX=0.096;entryY=0.011;entryDx=0;entryDy=0;entryPerimeter=0;" parent="1" source="4kGGq8LIQU13ggXpQt41-45" target="4kGGq8LIQU13ggXpQt41-46" edge="1">
          <mxGeometry width="50" height="50" relative="1" as="geometry">
            <mxPoint x="671" y="631" as="sourcePoint" />
            <mxPoint x="661" y="631" as="targetPoint" />
            <Array as="points">
              <mxPoint x="658" y="561" />
            </Array>
          </mxGeometry>
        </mxCell>
        <mxCell id="4kGGq8LIQU13ggXpQt41-52" value="M" style="ellipse;whiteSpace=wrap;html=1;aspect=fixed;fontColor=default;" parent="1" vertex="1">
          <mxGeometry x="661" y="711" width="32.5" height="32.5" as="geometry" />
        </mxCell>
        <mxCell id="4kGGq8LIQU13ggXpQt41-54" value="&lt;font color=&quot;#ff0000&quot;&gt;+3,3V&lt;/font&gt;" style="text;html=1;strokeColor=none;fillColor=none;align=center;verticalAlign=middle;whiteSpace=wrap;rounded=0;fontSize=11;fontColor=#000000;" parent="1" vertex="1">
          <mxGeometry x="661" y="541" width="45" height="20" as="geometry" />
        </mxCell>
        <mxCell id="4kGGq8LIQU13ggXpQt41-56" style="rounded=0;orthogonalLoop=1;jettySize=auto;html=1;startArrow=none;startFill=0;strokeColor=#990000;endArrow=classic;endFill=1;entryX=1;entryY=0.5;entryDx=0;entryDy=0;exitX=0;exitY=0.75;exitDx=0;exitDy=0;" parent="1" source="4kGGq8LIQU13ggXpQt41-58" target="4kGGq8LIQU13ggXpQt41-60" edge="1">
          <mxGeometry relative="1" as="geometry">
            <mxPoint x="851" y="631" as="targetPoint" />
            <Array as="points">
              <mxPoint x="881" y="611" />
              <mxPoint x="881" y="641" />
            </Array>
          </mxGeometry>
        </mxCell>
        <mxCell id="4kGGq8LIQU13ggXpQt41-57" style="edgeStyle=none;rounded=0;orthogonalLoop=1;jettySize=auto;html=1;exitX=0.5;exitY=1;exitDx=0;exitDy=0;entryX=0.5;entryY=0;entryDx=0;entryDy=0;fontSize=11;startArrow=none;startFill=0;endArrow=classic;endFill=1;strokeColor=#990000;" parent="1" source="4kGGq8LIQU13ggXpQt41-58" target="4kGGq8LIQU13ggXpQt41-70" edge="1">
          <mxGeometry relative="1" as="geometry" />
        </mxCell>
        <mxCell id="4kGGq8LIQU13ggXpQt41-58" value="Batterie&lt;br&gt;18,5V" style="rounded=0;whiteSpace=wrap;html=1;" parent="1" vertex="1">
          <mxGeometry x="893" y="581" width="76" height="40" as="geometry" />
        </mxCell>
        <mxCell id="4kGGq8LIQU13ggXpQt41-59" value="" style="endArrow=classic;html=1;rounded=0;strokeColor=#990000;exitX=0;exitY=0.5;exitDx=0;exitDy=0;entryX=0;entryY=0.5;entryDx=0;entryDy=0;" parent="1" source="4kGGq8LIQU13ggXpQt41-58" target="4kGGq8LIQU13ggXpQt41-46" edge="1">
          <mxGeometry width="50" height="50" relative="1" as="geometry">
            <mxPoint x="851" y="651" as="sourcePoint" />
            <mxPoint x="651" y="641" as="targetPoint" />
            <Array as="points">
              <mxPoint x="811" y="601" />
              <mxPoint x="811" y="510" />
              <mxPoint x="574" y="510" />
              <mxPoint x="574" y="641" />
            </Array>
          </mxGeometry>
        </mxCell>
        <mxCell id="4kGGq8LIQU13ggXpQt41-60" value="BLMD" style="rounded=0;whiteSpace=wrap;html=1;fontColor=#171717;" parent="1" vertex="1">
          <mxGeometry x="746" y="621" width="70" height="40" as="geometry" />
        </mxCell>
        <mxCell id="4kGGq8LIQU13ggXpQt41-61" value="" style="endArrow=classic;html=1;rounded=0;strokeColor=#007FFF;entryX=0.5;entryY=0;entryDx=0;entryDy=0;" parent="1" target="4kGGq8LIQU13ggXpQt41-52" edge="1">
          <mxGeometry width="50" height="50" relative="1" as="geometry">
            <mxPoint x="676.8699999999999" y="661" as="sourcePoint" />
            <mxPoint x="676.87" y="711" as="targetPoint" />
          </mxGeometry>
        </mxCell>
        <mxCell id="4kGGq8LIQU13ggXpQt41-62" value="" style="endArrow=classic;html=1;rounded=0;strokeColor=#007FFF;entryX=1;entryY=0;entryDx=0;entryDy=0;" parent="1" target="4kGGq8LIQU13ggXpQt41-52" edge="1">
          <mxGeometry width="50" height="50" relative="1" as="geometry">
            <mxPoint x="701" y="661" as="sourcePoint" />
            <mxPoint x="686.8699999999999" y="711" as="targetPoint" />
          </mxGeometry>
        </mxCell>
        <mxCell id="4kGGq8LIQU13ggXpQt41-63" value="" style="endArrow=classic;html=1;rounded=0;strokeColor=#007FFF;entryX=0;entryY=0;entryDx=0;entryDy=0;" parent="1" target="4kGGq8LIQU13ggXpQt41-52" edge="1">
          <mxGeometry width="50" height="50" relative="1" as="geometry">
            <mxPoint x="661" y="661" as="sourcePoint" />
            <mxPoint x="660.9999999999999" y="711" as="targetPoint" />
          </mxGeometry>
        </mxCell>
        <mxCell id="4kGGq8LIQU13ggXpQt41-64" value="M" style="ellipse;whiteSpace=wrap;html=1;aspect=fixed;fontColor=default;" parent="1" vertex="1">
          <mxGeometry x="761" y="711" width="32.5" height="32.5" as="geometry" />
        </mxCell>
        <mxCell id="4kGGq8LIQU13ggXpQt41-65" value="" style="endArrow=classic;html=1;rounded=0;strokeColor=#007FFF;entryX=0.5;entryY=0;entryDx=0;entryDy=0;" parent="1" target="4kGGq8LIQU13ggXpQt41-64" edge="1">
          <mxGeometry width="50" height="50" relative="1" as="geometry">
            <mxPoint x="776.8699999999999" y="661" as="sourcePoint" />
            <mxPoint x="776.87" y="711" as="targetPoint" />
          </mxGeometry>
        </mxCell>
        <mxCell id="4kGGq8LIQU13ggXpQt41-66" value="" style="endArrow=classic;html=1;rounded=0;strokeColor=#007FFF;entryX=1;entryY=0;entryDx=0;entryDy=0;" parent="1" target="4kGGq8LIQU13ggXpQt41-64" edge="1">
          <mxGeometry width="50" height="50" relative="1" as="geometry">
            <mxPoint x="801" y="661" as="sourcePoint" />
            <mxPoint x="786.8699999999999" y="711" as="targetPoint" />
          </mxGeometry>
        </mxCell>
        <mxCell id="4kGGq8LIQU13ggXpQt41-67" value="" style="endArrow=classic;html=1;rounded=0;strokeColor=#007FFF;entryX=0;entryY=0;entryDx=0;entryDy=0;" parent="1" target="4kGGq8LIQU13ggXpQt41-64" edge="1">
          <mxGeometry width="50" height="50" relative="1" as="geometry">
            <mxPoint x="761" y="661" as="sourcePoint" />
            <mxPoint x="760.9999999999999" y="711" as="targetPoint" />
          </mxGeometry>
        </mxCell>
        <mxCell id="4kGGq8LIQU13ggXpQt41-68" value="" style="endArrow=classic;html=1;rounded=0;fontColor=#000000;strokeColor=#FF3333;exitX=1;exitY=0.75;exitDx=0;exitDy=0;entryX=0.75;entryY=0;entryDx=0;entryDy=0;" parent="1" source="4kGGq8LIQU13ggXpQt41-45" target="4kGGq8LIQU13ggXpQt41-60" edge="1">
          <mxGeometry width="50" height="50" relative="1" as="geometry">
            <mxPoint x="711" y="571" as="sourcePoint" />
            <mxPoint x="667.72" y="631.4399999999998" as="targetPoint" />
            <Array as="points">
              <mxPoint x="799" y="571" />
            </Array>
          </mxGeometry>
        </mxCell>
        <mxCell id="4kGGq8LIQU13ggXpQt41-69" value="&lt;font color=&quot;#ff0000&quot; style=&quot;font-size: 9px;&quot;&gt;+3,3V&lt;/font&gt;" style="text;html=1;strokeColor=none;fillColor=none;align=center;verticalAlign=middle;whiteSpace=wrap;rounded=0;fontSize=9;fontColor=#000000;" parent="1" vertex="1">
          <mxGeometry x="770" y="561" width="36" height="10" as="geometry" />
        </mxCell>
        <mxCell id="4kGGq8LIQU13ggXpQt41-70" value="&lt;font style=&quot;font-size: 11px&quot;&gt;Buck&amp;nbsp; Converter&lt;/font&gt;" style="rounded=0;whiteSpace=wrap;html=1;fontSize=9;" parent="1" vertex="1">
          <mxGeometry x="891" y="651" width="80" height="40" as="geometry" />
        </mxCell>
        <mxCell id="4kGGq8LIQU13ggXpQt41-71" value="ESC" style="rounded=0;whiteSpace=wrap;html=1;fontSize=11;" parent="1" vertex="1">
          <mxGeometry x="686" y="761" width="40" height="20" as="geometry" />
        </mxCell>
        <mxCell id="4kGGq8LIQU13ggXpQt41-72" value="ESC" style="rounded=0;whiteSpace=wrap;html=1;fontSize=11;" parent="1" vertex="1">
          <mxGeometry x="731" y="761" width="40" height="20" as="geometry" />
        </mxCell>
        <mxCell id="4kGGq8LIQU13ggXpQt41-73" value="" style="endArrow=classic;html=1;rounded=0;fontSize=11;strokeColor=#2D7600;exitX=0.414;exitY=1.052;exitDx=0;exitDy=0;exitPerimeter=0;entryX=0.919;entryY=-0.057;entryDx=0;entryDy=0;entryPerimeter=0;" parent="1" source="4kGGq8LIQU13ggXpQt41-45" target="4kGGq8LIQU13ggXpQt41-71" edge="1">
          <mxGeometry width="50" height="50" relative="1" as="geometry">
            <mxPoint x="681" y="731" as="sourcePoint" />
            <mxPoint x="731" y="681" as="targetPoint" />
          </mxGeometry>
        </mxCell>
        <mxCell id="4kGGq8LIQU13ggXpQt41-74" value="" style="endArrow=classic;html=1;rounded=0;fontSize=11;strokeColor=#2D7600;exitX=0.367;exitY=1.061;exitDx=0;exitDy=0;exitPerimeter=0;entryX=0.25;entryY=0;entryDx=0;entryDy=0;" parent="1" target="4kGGq8LIQU13ggXpQt41-72" edge="1">
          <mxGeometry width="50" height="50" relative="1" as="geometry">
            <mxPoint x="737.96" y="582.79" as="sourcePoint" />
            <mxPoint x="734.03" y="759.21" as="targetPoint" />
          </mxGeometry>
        </mxCell>
        <mxCell id="4kGGq8LIQU13ggXpQt41-75" style="edgeStyle=none;rounded=0;orthogonalLoop=1;jettySize=auto;html=1;exitX=0.5;exitY=1;exitDx=0;exitDy=0;entryX=0.75;entryY=0;entryDx=0;entryDy=0;fontSize=11;startArrow=none;startFill=0;endArrow=classic;endFill=1;strokeColor=#990000;" parent="1" source="4kGGq8LIQU13ggXpQt41-70" target="4kGGq8LIQU13ggXpQt41-72" edge="1">
          <mxGeometry relative="1" as="geometry">
            <mxPoint x="962" y="631" as="sourcePoint" />
            <mxPoint x="962" y="661" as="targetPoint" />
            <Array as="points">
              <mxPoint x="931" y="751" />
              <mxPoint x="761" y="751" />
            </Array>
          </mxGeometry>
        </mxCell>
        <mxCell id="4kGGq8LIQU13ggXpQt41-77" value="M.A" style="ellipse;whiteSpace=wrap;html=1;aspect=fixed;fontColor=default;" parent="1" vertex="1">
          <mxGeometry x="691" y="831" width="32.5" height="32.5" as="geometry" />
        </mxCell>
        <mxCell id="4kGGq8LIQU13ggXpQt41-78" value="" style="endArrow=classic;html=1;rounded=0;strokeColor=#007FFF;entryX=0.5;entryY=0;entryDx=0;entryDy=0;" parent="1" target="4kGGq8LIQU13ggXpQt41-77" edge="1">
          <mxGeometry width="50" height="50" relative="1" as="geometry">
            <mxPoint x="706.8699999999999" y="781" as="sourcePoint" />
            <mxPoint x="706.87" y="831" as="targetPoint" />
          </mxGeometry>
        </mxCell>
        <mxCell id="4kGGq8LIQU13ggXpQt41-79" value="" style="endArrow=classic;html=1;rounded=0;strokeColor=#007FFF;entryX=1;entryY=0;entryDx=0;entryDy=0;exitX=0.865;exitY=1.003;exitDx=0;exitDy=0;exitPerimeter=0;" parent="1" source="4kGGq8LIQU13ggXpQt41-71" target="4kGGq8LIQU13ggXpQt41-77" edge="1">
          <mxGeometry width="50" height="50" relative="1" as="geometry">
            <mxPoint x="731" y="781" as="sourcePoint" />
            <mxPoint x="716.8699999999999" y="831" as="targetPoint" />
          </mxGeometry>
        </mxCell>
        <mxCell id="4kGGq8LIQU13ggXpQt41-80" value="" style="endArrow=classic;html=1;rounded=0;strokeColor=#007FFF;entryX=0;entryY=0;entryDx=0;entryDy=0;" parent="1" target="4kGGq8LIQU13ggXpQt41-77" edge="1">
          <mxGeometry width="50" height="50" relative="1" as="geometry">
            <mxPoint x="691" y="781" as="sourcePoint" />
            <mxPoint x="690.9999999999999" y="831" as="targetPoint" />
          </mxGeometry>
        </mxCell>
        <mxCell id="4kGGq8LIQU13ggXpQt41-81" value="M.A" style="ellipse;whiteSpace=wrap;html=1;aspect=fixed;fontColor=default;" parent="1" vertex="1">
          <mxGeometry x="737.5" y="831" width="32.5" height="32.5" as="geometry" />
        </mxCell>
        <mxCell id="4kGGq8LIQU13ggXpQt41-82" value="" style="endArrow=classic;html=1;rounded=0;strokeColor=#007FFF;entryX=0.5;entryY=0;entryDx=0;entryDy=0;" parent="1" target="4kGGq8LIQU13ggXpQt41-81" edge="1">
          <mxGeometry width="50" height="50" relative="1" as="geometry">
            <mxPoint x="753.3699999999999" y="781" as="sourcePoint" />
            <mxPoint x="753.37" y="831" as="targetPoint" />
          </mxGeometry>
        </mxCell>
        <mxCell id="4kGGq8LIQU13ggXpQt41-83" value="" style="endArrow=classic;html=1;rounded=0;strokeColor=#007FFF;entryX=1;entryY=0;entryDx=0;entryDy=0;exitX=0.865;exitY=1.003;exitDx=0;exitDy=0;exitPerimeter=0;" parent="1" target="4kGGq8LIQU13ggXpQt41-81" edge="1">
          <mxGeometry width="50" height="50" relative="1" as="geometry">
            <mxPoint x="767.0999999999999" y="781.06" as="sourcePoint" />
            <mxPoint x="763.3699999999999" y="831" as="targetPoint" />
          </mxGeometry>
        </mxCell>
        <mxCell id="4kGGq8LIQU13ggXpQt41-84" value="" style="endArrow=classic;html=1;rounded=0;strokeColor=#007FFF;entryX=0;entryY=0;entryDx=0;entryDy=0;" parent="1" target="4kGGq8LIQU13ggXpQt41-81" edge="1">
          <mxGeometry width="50" height="50" relative="1" as="geometry">
            <mxPoint x="737.5" y="781" as="sourcePoint" />
            <mxPoint x="737.4999999999999" y="831" as="targetPoint" />
          </mxGeometry>
        </mxCell>
        <mxCell id="4kGGq8LIQU13ggXpQt41-85" value="+12V" style="text;html=1;strokeColor=none;fillColor=none;align=center;verticalAlign=middle;whiteSpace=wrap;rounded=0;fontSize=11;rotation=90;fontColor=#FF0000;" parent="1" vertex="1">
          <mxGeometry x="921" y="711" width="30" height="10" as="geometry" />
        </mxCell>
        <mxCell id="4kGGq8LIQU13ggXpQt41-86" value="&lt;font color=&quot;#ff0000&quot;&gt;+3,3V&lt;/font&gt;" style="text;html=1;strokeColor=none;fillColor=none;align=center;verticalAlign=middle;whiteSpace=wrap;rounded=0;fontSize=11;fontColor=#000000;rotation=0;" parent="1" vertex="1">
          <mxGeometry x="665" y="280" width="45" height="20" as="geometry" />
        </mxCell>
        <mxCell id="jr8SlSEpdUlLMvHzj9n5-1" value="Baterrie 11,1V ou Batterie Portable" style="rounded=0;whiteSpace=wrap;html=1;" parent="1" vertex="1">
          <mxGeometry x="364" y="400" width="100" height="45" as="geometry" />
        </mxCell>
        <mxCell id="jr8SlSEpdUlLMvHzj9n5-3" value="" style="endArrow=classic;html=1;rounded=0;entryX=0.75;entryY=1;entryDx=0;entryDy=0;exitX=0.25;exitY=0;exitDx=0;exitDy=0;strokeColor=#FF0000;" parent="1" source="jr8SlSEpdUlLMvHzj9n5-1" target="jmI-IT9qMmDOyiV4Hz3e-6" edge="1">
          <mxGeometry width="50" height="50" relative="1" as="geometry">
            <mxPoint x="490" y="480" as="sourcePoint" />
            <mxPoint x="540" y="430" as="targetPoint" />
          </mxGeometry>
        </mxCell>
      </root>
    </mxGraphModel>
  </diagram>
  <diagram id="_U_nroDNSBHEW84IL2C7" name="Information Flux v1">
    <mxGraphModel dx="984" dy="719" grid="1" gridSize="10" guides="1" tooltips="1" connect="1" arrows="1" fold="1" page="1" pageScale="1" pageWidth="827" pageHeight="1169" math="0" shadow="0">
      <root>
        <mxCell id="0" />
        <mxCell id="1" parent="0" />
        <mxCell id="ivuo7_GxfYKYGDKOhkR3-41" style="edgeStyle=orthogonalEdgeStyle;rounded=0;orthogonalLoop=1;jettySize=auto;html=1;exitX=0.5;exitY=1;exitDx=0;exitDy=0;entryX=0.75;entryY=1;entryDx=0;entryDy=0;fontSize=11;startArrow=none;startFill=0;strokeColor=#9933FF;" parent="1" source="ivuo7_GxfYKYGDKOhkR3-1" target="ivuo7_GxfYKYGDKOhkR3-2" edge="1">
          <mxGeometry relative="1" as="geometry" />
        </mxCell>
        <mxCell id="ivuo7_GxfYKYGDKOhkR3-1" value="Jetson Nano" style="rounded=0;whiteSpace=wrap;html=1;" parent="1" vertex="1">
          <mxGeometry x="544" y="120" width="90" height="40" as="geometry" />
        </mxCell>
        <mxCell id="ivuo7_GxfYKYGDKOhkR3-9" style="edgeStyle=orthogonalEdgeStyle;rounded=0;orthogonalLoop=1;jettySize=auto;html=1;exitX=1;exitY=0.5;exitDx=0;exitDy=0;entryX=0;entryY=0.5;entryDx=0;entryDy=0;strokeColor=#CC00CC;startArrow=none;startFill=0;" parent="1" source="ivuo7_GxfYKYGDKOhkR3-2" target="ivuo7_GxfYKYGDKOhkR3-1" edge="1">
          <mxGeometry relative="1" as="geometry" />
        </mxCell>
        <mxCell id="ivuo7_GxfYKYGDKOhkR3-43" style="edgeStyle=orthogonalEdgeStyle;rounded=0;orthogonalLoop=1;jettySize=auto;html=1;exitX=0.75;exitY=0;exitDx=0;exitDy=0;entryX=0.5;entryY=0;entryDx=0;entryDy=0;fontSize=11;startArrow=none;startFill=0;strokeColor=#9933FF;" parent="1" source="ivuo7_GxfYKYGDKOhkR3-2" target="ivuo7_GxfYKYGDKOhkR3-5" edge="1">
          <mxGeometry relative="1" as="geometry" />
        </mxCell>
        <mxCell id="ivuo7_GxfYKYGDKOhkR3-51" style="edgeStyle=orthogonalEdgeStyle;rounded=0;orthogonalLoop=1;jettySize=auto;html=1;exitX=1;exitY=0.75;exitDx=0;exitDy=0;entryX=0;entryY=0.75;entryDx=0;entryDy=0;fontSize=11;startArrow=none;startFill=0;strokeColor=#FF8000;strokeWidth=1;" parent="1" source="ivuo7_GxfYKYGDKOhkR3-2" target="ivuo7_GxfYKYGDKOhkR3-1" edge="1">
          <mxGeometry relative="1" as="geometry" />
        </mxCell>
        <mxCell id="wpgIkEq7gXNSaWtnmiqh-5" style="edgeStyle=orthogonalEdgeStyle;rounded=0;orthogonalLoop=1;jettySize=auto;html=1;exitX=0.25;exitY=0;exitDx=0;exitDy=0;entryX=0.5;entryY=0;entryDx=0;entryDy=0;strokeColor=#FFFF00;" parent="1" source="ivuo7_GxfYKYGDKOhkR3-2" target="ivuo7_GxfYKYGDKOhkR3-4" edge="1">
          <mxGeometry relative="1" as="geometry">
            <Array as="points">
              <mxPoint x="384" y="90" />
              <mxPoint x="282" y="90" />
            </Array>
          </mxGeometry>
        </mxCell>
        <mxCell id="ivuo7_GxfYKYGDKOhkR3-2" value="Raspberry Pi 3 B+" style="rounded=0;whiteSpace=wrap;html=1;" parent="1" vertex="1">
          <mxGeometry x="354" y="120" width="120" height="40" as="geometry" />
        </mxCell>
        <mxCell id="ivuo7_GxfYKYGDKOhkR3-3" value="&lt;font style=&quot;font-size: 11px&quot;&gt;DUALSHOCK 4&lt;/font&gt;" style="rounded=0;whiteSpace=wrap;html=1;fontSize=11;fontColor=#F0F0F0;fillColor=#190033;" parent="1" vertex="1">
          <mxGeometry x="90" y="120" width="94" height="40" as="geometry" />
        </mxCell>
        <mxCell id="ivuo7_GxfYKYGDKOhkR3-8" style="edgeStyle=orthogonalEdgeStyle;rounded=0;orthogonalLoop=1;jettySize=auto;html=1;exitX=1;exitY=0.5;exitDx=0;exitDy=0;entryX=0;entryY=0.5;entryDx=0;entryDy=0;fillColor=#6a00ff;strokeColor=#CC00CC;" parent="1" source="ivuo7_GxfYKYGDKOhkR3-4" target="ivuo7_GxfYKYGDKOhkR3-2" edge="1">
          <mxGeometry relative="1" as="geometry" />
        </mxCell>
        <mxCell id="ivuo7_GxfYKYGDKOhkR3-4" value="&lt;font style=&quot;font-size: 11px&quot;&gt;PC&lt;/font&gt;" style="rounded=0;whiteSpace=wrap;html=1;fontSize=11;fillColor=#190033;" parent="1" vertex="1">
          <mxGeometry x="260" y="120" width="44" height="40" as="geometry" />
        </mxCell>
        <mxCell id="ivuo7_GxfYKYGDKOhkR3-47" style="edgeStyle=orthogonalEdgeStyle;rounded=0;orthogonalLoop=1;jettySize=auto;html=1;exitX=0.5;exitY=1;exitDx=0;exitDy=0;entryX=0.5;entryY=0;entryDx=0;entryDy=0;fontSize=11;startArrow=none;startFill=0;strokeColor=#7F00FF;" parent="1" source="ivuo7_GxfYKYGDKOhkR3-5" target="ivuo7_GxfYKYGDKOhkR3-6" edge="1">
          <mxGeometry relative="1" as="geometry" />
        </mxCell>
        <mxCell id="ivuo7_GxfYKYGDKOhkR3-5" value="ESP32 Back" style="rounded=0;whiteSpace=wrap;html=1;" parent="1" vertex="1">
          <mxGeometry x="664" y="120" width="80" height="40" as="geometry" />
        </mxCell>
        <mxCell id="ivuo7_GxfYKYGDKOhkR3-48" style="edgeStyle=orthogonalEdgeStyle;rounded=0;orthogonalLoop=1;jettySize=auto;html=1;exitX=0;exitY=0.5;exitDx=0;exitDy=0;entryX=0.5;entryY=1;entryDx=0;entryDy=0;fontSize=11;startArrow=none;startFill=0;strokeColor=#FF8000;strokeWidth=1;fillColor=#0050ef;" parent="1" source="ivuo7_GxfYKYGDKOhkR3-6" target="ivuo7_GxfYKYGDKOhkR3-2" edge="1">
          <mxGeometry relative="1" as="geometry" />
        </mxCell>
        <mxCell id="ivuo7_GxfYKYGDKOhkR3-6" value="ESP32 Front" style="rounded=0;whiteSpace=wrap;html=1;" parent="1" vertex="1">
          <mxGeometry x="664" y="210" width="80" height="40" as="geometry" />
        </mxCell>
        <mxCell id="ivuo7_GxfYKYGDKOhkR3-7" value="" style="endArrow=classic;html=1;rounded=0;exitX=1;exitY=0.5;exitDx=0;exitDy=0;entryX=0;entryY=0.5;entryDx=0;entryDy=0;fillColor=#6a00ff;strokeColor=#CC00CC;" parent="1" source="ivuo7_GxfYKYGDKOhkR3-3" target="ivuo7_GxfYKYGDKOhkR3-4" edge="1">
          <mxGeometry width="50" height="50" relative="1" as="geometry">
            <mxPoint x="164" y="230" as="sourcePoint" />
            <mxPoint x="214" y="180" as="targetPoint" />
          </mxGeometry>
        </mxCell>
        <mxCell id="ivuo7_GxfYKYGDKOhkR3-11" value="&lt;font style=&quot;font-size: 11px&quot;&gt;BlueTooth&lt;/font&gt;" style="text;html=1;strokeColor=none;fillColor=none;align=center;verticalAlign=middle;whiteSpace=wrap;rounded=0;" parent="1" vertex="1">
          <mxGeometry x="190" y="120" width="50" height="20" as="geometry" />
        </mxCell>
        <mxCell id="ivuo7_GxfYKYGDKOhkR3-12" value="&lt;font style=&quot;font-size: 11px&quot;&gt;WiFi&lt;/font&gt;" style="text;html=1;strokeColor=none;fillColor=none;align=center;verticalAlign=middle;whiteSpace=wrap;rounded=0;" parent="1" vertex="1">
          <mxGeometry x="314" y="120" width="30" height="20" as="geometry" />
        </mxCell>
        <mxCell id="ivuo7_GxfYKYGDKOhkR3-14" value="&lt;span style=&quot;font-size: 11px&quot;&gt;Ethernet&lt;/span&gt;" style="text;html=1;strokeColor=none;fillColor=none;align=center;verticalAlign=middle;whiteSpace=wrap;rounded=0;" parent="1" vertex="1">
          <mxGeometry x="474" y="120" width="50" height="20" as="geometry" />
        </mxCell>
        <mxCell id="ivuo7_GxfYKYGDKOhkR3-42" value="&lt;span style=&quot;font-size: 11px&quot;&gt;Ethernet&lt;/span&gt;" style="text;html=1;strokeColor=none;fillColor=none;align=center;verticalAlign=middle;whiteSpace=wrap;rounded=0;" parent="1" vertex="1">
          <mxGeometry x="534" y="180" width="50" height="20" as="geometry" />
        </mxCell>
        <mxCell id="ivuo7_GxfYKYGDKOhkR3-44" value="&lt;font style=&quot;font-size: 11px&quot;&gt;WiFi&lt;/font&gt;" style="text;html=1;strokeColor=none;fillColor=none;align=center;verticalAlign=middle;whiteSpace=wrap;rounded=0;" parent="1" vertex="1">
          <mxGeometry x="474" y="80" width="30" height="20" as="geometry" />
        </mxCell>
        <mxCell id="ivuo7_GxfYKYGDKOhkR3-49" value="&lt;span style=&quot;font-size: 11px&quot;&gt;I2C (2 wires)&lt;/span&gt;" style="text;html=1;strokeColor=none;fillColor=none;align=center;verticalAlign=middle;whiteSpace=wrap;rounded=0;" parent="1" vertex="1">
          <mxGeometry x="584" y="230" width="70" height="20" as="geometry" />
        </mxCell>
        <mxCell id="ivuo7_GxfYKYGDKOhkR3-50" value="&lt;font style=&quot;font-size: 11px&quot;&gt;WiFi&lt;/font&gt;" style="text;html=1;strokeColor=none;fillColor=none;align=center;verticalAlign=middle;whiteSpace=wrap;rounded=0;rotation=90;" parent="1" vertex="1">
          <mxGeometry x="704" y="170" width="30" height="20" as="geometry" />
        </mxCell>
        <mxCell id="ivuo7_GxfYKYGDKOhkR3-52" value="&lt;span style=&quot;font-size: 11px&quot;&gt;Ethernet&lt;/span&gt;" style="text;html=1;strokeColor=none;fillColor=none;align=center;verticalAlign=middle;whiteSpace=wrap;rounded=0;" parent="1" vertex="1">
          <mxGeometry x="474" y="150" width="50" height="20" as="geometry" />
        </mxCell>
        <mxCell id="B4Eo3udZqmETRjLGkaYc-1" value="" style="endArrow=classic;html=1;rounded=0;exitX=1;exitY=0.5;exitDx=0;exitDy=0;fillColor=#6a00ff;strokeColor=#CC00CC;" parent="1" edge="1">
          <mxGeometry width="50" height="50" relative="1" as="geometry">
            <mxPoint x="80" y="270" as="sourcePoint" />
            <mxPoint x="120" y="270" as="targetPoint" />
          </mxGeometry>
        </mxCell>
        <mxCell id="B4Eo3udZqmETRjLGkaYc-2" value="" style="endArrow=classic;html=1;rounded=0;exitX=1;exitY=0.5;exitDx=0;exitDy=0;fillColor=#6a00ff;strokeColor=#9933FF;" parent="1" edge="1">
          <mxGeometry width="50" height="50" relative="1" as="geometry">
            <mxPoint x="80" y="300" as="sourcePoint" />
            <mxPoint x="120" y="300" as="targetPoint" />
          </mxGeometry>
        </mxCell>
        <mxCell id="B4Eo3udZqmETRjLGkaYc-4" value="PS4 inputs" style="text;html=1;strokeColor=none;fillColor=none;align=center;verticalAlign=middle;whiteSpace=wrap;rounded=0;" parent="1" vertex="1">
          <mxGeometry x="124" y="260" width="66" height="20" as="geometry" />
        </mxCell>
        <mxCell id="B4Eo3udZqmETRjLGkaYc-5" value="Move orders" style="text;html=1;strokeColor=none;fillColor=none;align=center;verticalAlign=middle;whiteSpace=wrap;rounded=0;" parent="1" vertex="1">
          <mxGeometry x="124" y="290" width="76" height="20" as="geometry" />
        </mxCell>
        <mxCell id="B4Eo3udZqmETRjLGkaYc-6" value="" style="endArrow=classic;html=1;rounded=0;exitX=1;exitY=0.5;exitDx=0;exitDy=0;fillColor=#6a00ff;strokeColor=#FFFF00;" parent="1" edge="1">
          <mxGeometry width="50" height="50" relative="1" as="geometry">
            <mxPoint x="80" y="330" as="sourcePoint" />
            <mxPoint x="120" y="330" as="targetPoint" />
          </mxGeometry>
        </mxCell>
        <mxCell id="B4Eo3udZqmETRjLGkaYc-7" value="Odometry (encoding wheel+ LiDAR)" style="text;html=1;strokeColor=none;fillColor=none;align=center;verticalAlign=middle;whiteSpace=wrap;rounded=0;" parent="1" vertex="1">
          <mxGeometry x="124" y="350" width="116" height="20" as="geometry" />
        </mxCell>
        <mxCell id="wpgIkEq7gXNSaWtnmiqh-2" style="edgeStyle=orthogonalEdgeStyle;rounded=0;orthogonalLoop=1;jettySize=auto;html=1;exitX=0.5;exitY=1;exitDx=0;exitDy=0;entryX=0.5;entryY=0;entryDx=0;entryDy=0;strokeColor=#FFFF00;" parent="1" source="B4Eo3udZqmETRjLGkaYc-8" target="ivuo7_GxfYKYGDKOhkR3-2" edge="1">
          <mxGeometry relative="1" as="geometry" />
        </mxCell>
        <mxCell id="B4Eo3udZqmETRjLGkaYc-8" value="RaspiCam" style="rounded=0;whiteSpace=wrap;html=1;" parent="1" vertex="1">
          <mxGeometry x="374" y="10" width="80" height="40" as="geometry" />
        </mxCell>
        <mxCell id="wpgIkEq7gXNSaWtnmiqh-4" style="edgeStyle=orthogonalEdgeStyle;rounded=0;orthogonalLoop=1;jettySize=auto;html=1;exitX=0.5;exitY=0;exitDx=0;exitDy=0;entryX=0.25;entryY=1;entryDx=0;entryDy=0;strokeColor=#FF8000;" parent="1" source="wpgIkEq7gXNSaWtnmiqh-3" target="ivuo7_GxfYKYGDKOhkR3-2" edge="1">
          <mxGeometry relative="1" as="geometry" />
        </mxCell>
        <mxCell id="wpgIkEq7gXNSaWtnmiqh-3" value="LW20/C (LiDAR)" style="rounded=0;whiteSpace=wrap;html=1;" parent="1" vertex="1">
          <mxGeometry x="344" y="260" width="80" height="40" as="geometry" />
        </mxCell>
        <mxCell id="wpgIkEq7gXNSaWtnmiqh-6" value="&lt;font style=&quot;font-size: 11px&quot;&gt;WiFi&lt;/font&gt;" style="text;html=1;strokeColor=none;fillColor=none;align=center;verticalAlign=middle;whiteSpace=wrap;rounded=0;" parent="1" vertex="1">
          <mxGeometry x="314" y="70" width="30" height="20" as="geometry" />
        </mxCell>
        <mxCell id="wpgIkEq7gXNSaWtnmiqh-8" value="&lt;font style=&quot;font-size: 11px&quot;&gt;UART&lt;/font&gt;" style="text;html=1;strokeColor=none;fillColor=none;align=center;verticalAlign=middle;whiteSpace=wrap;rounded=0;rotation=-90;" parent="1" vertex="1">
          <mxGeometry x="356.5" y="222.5" width="36" height="15" as="geometry" />
        </mxCell>
        <mxCell id="wpgIkEq7gXNSaWtnmiqh-9" value="&lt;font style=&quot;font-size: 11px&quot;&gt;Cam Port&lt;br&gt;&lt;/font&gt;" style="text;html=1;strokeColor=none;fillColor=none;align=center;verticalAlign=middle;whiteSpace=wrap;rounded=0;rotation=90;" parent="1" vertex="1">
          <mxGeometry x="398" y="70" width="56" height="20" as="geometry" />
        </mxCell>
        <mxCell id="wpgIkEq7gXNSaWtnmiqh-11" value="" style="endArrow=classic;html=1;rounded=0;exitX=1;exitY=0.5;exitDx=0;exitDy=0;fillColor=#6a00ff;strokeColor=#FF8000;" parent="1" edge="1">
          <mxGeometry width="50" height="50" relative="1" as="geometry">
            <mxPoint x="80" y="360" as="sourcePoint" />
            <mxPoint x="120" y="360" as="targetPoint" />
          </mxGeometry>
        </mxCell>
        <mxCell id="wpgIkEq7gXNSaWtnmiqh-12" value="Video feedback" style="text;html=1;strokeColor=none;fillColor=none;align=center;verticalAlign=middle;whiteSpace=wrap;rounded=0;" parent="1" vertex="1">
          <mxGeometry x="124" y="320" width="96" height="20" as="geometry" />
        </mxCell>
        <mxCell id="_73sbrfR2RFtxy8_2Lvr-1" value="Ici, le problÃ¨me de plusieurs interfaces WiFi est le fait que cela gÃ©nÃ¨re des interfÃ©rences" style="text;html=1;align=center;verticalAlign=middle;resizable=0;points=[];autosize=1;strokeColor=none;fillColor=none;" parent="1" vertex="1">
          <mxGeometry x="135" y="465" width="490" height="30" as="geometry" />
        </mxCell>
      </root>
    </mxGraphModel>
  </diagram>
  <diagram name="Info Flux v2" id="tlJ29MOeyAeSg5A7NPDu">
    <mxGraphModel dx="984" dy="719" grid="1" gridSize="10" guides="1" tooltips="1" connect="1" arrows="1" fold="1" page="1" pageScale="1" pageWidth="827" pageHeight="1169" math="0" shadow="0">
      <root>
        <mxCell id="PkrCJLOyWz4gt9OvDnAF-0" />
        <mxCell id="PkrCJLOyWz4gt9OvDnAF-1" parent="PkrCJLOyWz4gt9OvDnAF-0" />
        <mxCell id="PkrCJLOyWz4gt9OvDnAF-5" style="edgeStyle=orthogonalEdgeStyle;rounded=0;orthogonalLoop=1;jettySize=auto;html=1;exitX=0.75;exitY=0;exitDx=0;exitDy=0;entryX=0.5;entryY=0;entryDx=0;entryDy=0;fontSize=11;startArrow=none;startFill=0;strokeColor=#9933FF;" parent="PkrCJLOyWz4gt9OvDnAF-1" source="PkrCJLOyWz4gt9OvDnAF-8" target="PkrCJLOyWz4gt9OvDnAF-13" edge="1">
          <mxGeometry relative="1" as="geometry" />
        </mxCell>
        <mxCell id="PkrCJLOyWz4gt9OvDnAF-7" style="edgeStyle=orthogonalEdgeStyle;rounded=0;orthogonalLoop=1;jettySize=auto;html=1;exitX=0.25;exitY=0;exitDx=0;exitDy=0;entryX=0.5;entryY=0;entryDx=0;entryDy=0;strokeColor=#FFFF00;" parent="PkrCJLOyWz4gt9OvDnAF-1" source="PkrCJLOyWz4gt9OvDnAF-8" target="PkrCJLOyWz4gt9OvDnAF-11" edge="1">
          <mxGeometry relative="1" as="geometry">
            <Array as="points">
              <mxPoint x="384" y="90" />
              <mxPoint x="282" y="90" />
            </Array>
          </mxGeometry>
        </mxCell>
        <mxCell id="PkrCJLOyWz4gt9OvDnAF-8" value="Raspberry Pi (3 B+ / 4)" style="rounded=0;whiteSpace=wrap;html=1;" parent="PkrCJLOyWz4gt9OvDnAF-1" vertex="1">
          <mxGeometry x="354" y="120" width="136" height="40" as="geometry" />
        </mxCell>
        <mxCell id="PkrCJLOyWz4gt9OvDnAF-9" value="&lt;font style=&quot;font-size: 11px&quot;&gt;DUALSHOCK 4&lt;/font&gt;" style="rounded=0;whiteSpace=wrap;html=1;fontSize=11;fontColor=#F0F0F0;fillColor=#190033;" parent="PkrCJLOyWz4gt9OvDnAF-1" vertex="1">
          <mxGeometry x="90" y="120" width="94" height="40" as="geometry" />
        </mxCell>
        <mxCell id="PkrCJLOyWz4gt9OvDnAF-10" style="edgeStyle=orthogonalEdgeStyle;rounded=0;orthogonalLoop=1;jettySize=auto;html=1;exitX=1;exitY=0.5;exitDx=0;exitDy=0;entryX=0;entryY=0.5;entryDx=0;entryDy=0;fillColor=#6a00ff;strokeColor=#CC00CC;" parent="PkrCJLOyWz4gt9OvDnAF-1" source="PkrCJLOyWz4gt9OvDnAF-11" target="PkrCJLOyWz4gt9OvDnAF-8" edge="1">
          <mxGeometry relative="1" as="geometry" />
        </mxCell>
        <mxCell id="PkrCJLOyWz4gt9OvDnAF-11" value="&lt;font style=&quot;font-size: 11px&quot;&gt;PC&lt;/font&gt;" style="rounded=0;whiteSpace=wrap;html=1;fontSize=11;fillColor=#190033;" parent="PkrCJLOyWz4gt9OvDnAF-1" vertex="1">
          <mxGeometry x="260" y="120" width="44" height="40" as="geometry" />
        </mxCell>
        <mxCell id="PkrCJLOyWz4gt9OvDnAF-13" value="ESP32 Back" style="rounded=0;whiteSpace=wrap;html=1;" parent="PkrCJLOyWz4gt9OvDnAF-1" vertex="1">
          <mxGeometry x="664" y="120" width="80" height="40" as="geometry" />
        </mxCell>
        <mxCell id="PkrCJLOyWz4gt9OvDnAF-14" style="edgeStyle=orthogonalEdgeStyle;rounded=0;orthogonalLoop=1;jettySize=auto;html=1;exitX=0;exitY=0.5;exitDx=0;exitDy=0;entryX=0.5;entryY=1;entryDx=0;entryDy=0;fontSize=11;startArrow=none;startFill=0;strokeColor=#FF8000;strokeWidth=1;fillColor=#0050ef;" parent="PkrCJLOyWz4gt9OvDnAF-1" source="PkrCJLOyWz4gt9OvDnAF-15" target="PkrCJLOyWz4gt9OvDnAF-8" edge="1">
          <mxGeometry relative="1" as="geometry" />
        </mxCell>
        <mxCell id="PkrCJLOyWz4gt9OvDnAF-15" value="ESP32 Front" style="rounded=0;whiteSpace=wrap;html=1;" parent="PkrCJLOyWz4gt9OvDnAF-1" vertex="1">
          <mxGeometry x="664" y="210" width="80" height="40" as="geometry" />
        </mxCell>
        <mxCell id="PkrCJLOyWz4gt9OvDnAF-16" value="" style="endArrow=classic;html=1;rounded=0;exitX=1;exitY=0.5;exitDx=0;exitDy=0;entryX=0;entryY=0.5;entryDx=0;entryDy=0;fillColor=#6a00ff;strokeColor=#CC00CC;" parent="PkrCJLOyWz4gt9OvDnAF-1" source="PkrCJLOyWz4gt9OvDnAF-9" target="PkrCJLOyWz4gt9OvDnAF-11" edge="1">
          <mxGeometry width="50" height="50" relative="1" as="geometry">
            <mxPoint x="164" y="230" as="sourcePoint" />
            <mxPoint x="214" y="180" as="targetPoint" />
          </mxGeometry>
        </mxCell>
        <mxCell id="PkrCJLOyWz4gt9OvDnAF-17" value="&lt;font style=&quot;font-size: 11px&quot;&gt;BlueTooth&lt;/font&gt;" style="text;html=1;strokeColor=none;fillColor=none;align=center;verticalAlign=middle;whiteSpace=wrap;rounded=0;" parent="PkrCJLOyWz4gt9OvDnAF-1" vertex="1">
          <mxGeometry x="190" y="120" width="50" height="20" as="geometry" />
        </mxCell>
        <mxCell id="PkrCJLOyWz4gt9OvDnAF-18" value="&lt;font style=&quot;font-size: 11px&quot;&gt;WiFi&lt;/font&gt;" style="text;html=1;strokeColor=none;fillColor=none;align=center;verticalAlign=middle;whiteSpace=wrap;rounded=0;" parent="PkrCJLOyWz4gt9OvDnAF-1" vertex="1">
          <mxGeometry x="314" y="120" width="30" height="20" as="geometry" />
        </mxCell>
        <mxCell id="PkrCJLOyWz4gt9OvDnAF-21" value="I2C" style="text;html=1;strokeColor=none;fillColor=none;align=center;verticalAlign=middle;whiteSpace=wrap;rounded=0;" parent="PkrCJLOyWz4gt9OvDnAF-1" vertex="1">
          <mxGeometry x="474" y="80" width="30" height="20" as="geometry" />
        </mxCell>
        <mxCell id="PkrCJLOyWz4gt9OvDnAF-22" value="&lt;span style=&quot;font-size: 11px&quot;&gt;I2C&lt;/span&gt;" style="text;html=1;strokeColor=none;fillColor=none;align=center;verticalAlign=middle;whiteSpace=wrap;rounded=0;" parent="PkrCJLOyWz4gt9OvDnAF-1" vertex="1">
          <mxGeometry x="584" y="230" width="70" height="20" as="geometry" />
        </mxCell>
        <mxCell id="PkrCJLOyWz4gt9OvDnAF-25" value="" style="endArrow=classic;html=1;rounded=0;exitX=1;exitY=0.5;exitDx=0;exitDy=0;fillColor=#6a00ff;strokeColor=#CC00CC;" parent="PkrCJLOyWz4gt9OvDnAF-1" edge="1">
          <mxGeometry width="50" height="50" relative="1" as="geometry">
            <mxPoint x="80" y="270" as="sourcePoint" />
            <mxPoint x="120" y="270" as="targetPoint" />
          </mxGeometry>
        </mxCell>
        <mxCell id="PkrCJLOyWz4gt9OvDnAF-26" value="" style="endArrow=classic;html=1;rounded=0;exitX=1;exitY=0.5;exitDx=0;exitDy=0;fillColor=#6a00ff;strokeColor=#9933FF;" parent="PkrCJLOyWz4gt9OvDnAF-1" edge="1">
          <mxGeometry width="50" height="50" relative="1" as="geometry">
            <mxPoint x="80" y="300" as="sourcePoint" />
            <mxPoint x="120" y="300" as="targetPoint" />
          </mxGeometry>
        </mxCell>
        <mxCell id="PkrCJLOyWz4gt9OvDnAF-27" value="PS4 inputs" style="text;html=1;strokeColor=none;fillColor=none;align=center;verticalAlign=middle;whiteSpace=wrap;rounded=0;" parent="PkrCJLOyWz4gt9OvDnAF-1" vertex="1">
          <mxGeometry x="124" y="260" width="66" height="20" as="geometry" />
        </mxCell>
        <mxCell id="PkrCJLOyWz4gt9OvDnAF-28" value="Move orders" style="text;html=1;strokeColor=none;fillColor=none;align=center;verticalAlign=middle;whiteSpace=wrap;rounded=0;" parent="PkrCJLOyWz4gt9OvDnAF-1" vertex="1">
          <mxGeometry x="124" y="290" width="76" height="20" as="geometry" />
        </mxCell>
        <mxCell id="PkrCJLOyWz4gt9OvDnAF-29" value="" style="endArrow=classic;html=1;rounded=0;exitX=1;exitY=0.5;exitDx=0;exitDy=0;fillColor=#6a00ff;strokeColor=#FFFF00;" parent="PkrCJLOyWz4gt9OvDnAF-1" edge="1">
          <mxGeometry width="50" height="50" relative="1" as="geometry">
            <mxPoint x="80" y="330" as="sourcePoint" />
            <mxPoint x="120" y="330" as="targetPoint" />
          </mxGeometry>
        </mxCell>
        <mxCell id="PkrCJLOyWz4gt9OvDnAF-30" value="Odometry (encoding wheel+ LiDAR)" style="text;html=1;strokeColor=none;fillColor=none;align=center;verticalAlign=middle;whiteSpace=wrap;rounded=0;" parent="PkrCJLOyWz4gt9OvDnAF-1" vertex="1">
          <mxGeometry x="124" y="350" width="116" height="20" as="geometry" />
        </mxCell>
        <mxCell id="PkrCJLOyWz4gt9OvDnAF-31" style="edgeStyle=orthogonalEdgeStyle;rounded=0;orthogonalLoop=1;jettySize=auto;html=1;exitX=0.5;exitY=1;exitDx=0;exitDy=0;entryX=0.5;entryY=0;entryDx=0;entryDy=0;strokeColor=#FFFF00;" parent="PkrCJLOyWz4gt9OvDnAF-1" source="PkrCJLOyWz4gt9OvDnAF-32" target="PkrCJLOyWz4gt9OvDnAF-8" edge="1">
          <mxGeometry relative="1" as="geometry" />
        </mxCell>
        <mxCell id="PkrCJLOyWz4gt9OvDnAF-32" value="RaspiCam" style="rounded=0;whiteSpace=wrap;html=1;" parent="PkrCJLOyWz4gt9OvDnAF-1" vertex="1">
          <mxGeometry x="382" y="10" width="80" height="40" as="geometry" />
        </mxCell>
        <mxCell id="PkrCJLOyWz4gt9OvDnAF-33" style="edgeStyle=orthogonalEdgeStyle;rounded=0;orthogonalLoop=1;jettySize=auto;html=1;exitX=0.5;exitY=0;exitDx=0;exitDy=0;entryX=0.25;entryY=1;entryDx=0;entryDy=0;strokeColor=#FF8000;" parent="PkrCJLOyWz4gt9OvDnAF-1" source="PkrCJLOyWz4gt9OvDnAF-34" target="PkrCJLOyWz4gt9OvDnAF-8" edge="1">
          <mxGeometry relative="1" as="geometry">
            <Array as="points">
              <mxPoint x="388" y="260" />
            </Array>
          </mxGeometry>
        </mxCell>
        <mxCell id="PkrCJLOyWz4gt9OvDnAF-34" value="LW20/C (LiDAR)" style="rounded=0;whiteSpace=wrap;html=1;" parent="PkrCJLOyWz4gt9OvDnAF-1" vertex="1">
          <mxGeometry x="354" y="260" width="80" height="40" as="geometry" />
        </mxCell>
        <mxCell id="PkrCJLOyWz4gt9OvDnAF-35" value="&lt;font style=&quot;font-size: 11px&quot;&gt;WiFi&lt;/font&gt;" style="text;html=1;strokeColor=none;fillColor=none;align=center;verticalAlign=middle;whiteSpace=wrap;rounded=0;" parent="PkrCJLOyWz4gt9OvDnAF-1" vertex="1">
          <mxGeometry x="314" y="70" width="30" height="20" as="geometry" />
        </mxCell>
        <mxCell id="PkrCJLOyWz4gt9OvDnAF-36" value="&lt;font style=&quot;font-size: 11px&quot;&gt;UART&lt;/font&gt;" style="text;html=1;strokeColor=none;fillColor=none;align=center;verticalAlign=middle;whiteSpace=wrap;rounded=0;rotation=-90;" parent="PkrCJLOyWz4gt9OvDnAF-1" vertex="1">
          <mxGeometry x="356.5" y="222.5" width="36" height="15" as="geometry" />
        </mxCell>
        <mxCell id="PkrCJLOyWz4gt9OvDnAF-37" value="&lt;font style=&quot;font-size: 11px&quot;&gt;Cam Port&lt;br&gt;&lt;/font&gt;" style="text;html=1;strokeColor=none;fillColor=none;align=center;verticalAlign=middle;whiteSpace=wrap;rounded=0;rotation=90;" parent="PkrCJLOyWz4gt9OvDnAF-1" vertex="1">
          <mxGeometry x="398" y="70" width="56" height="20" as="geometry" />
        </mxCell>
        <mxCell id="PkrCJLOyWz4gt9OvDnAF-38" value="" style="endArrow=classic;html=1;rounded=0;exitX=1;exitY=0.5;exitDx=0;exitDy=0;fillColor=#6a00ff;strokeColor=#FF8000;" parent="PkrCJLOyWz4gt9OvDnAF-1" edge="1">
          <mxGeometry width="50" height="50" relative="1" as="geometry">
            <mxPoint x="80" y="360" as="sourcePoint" />
            <mxPoint x="120" y="360" as="targetPoint" />
          </mxGeometry>
        </mxCell>
        <mxCell id="PkrCJLOyWz4gt9OvDnAF-39" value="Video feedback" style="text;html=1;strokeColor=none;fillColor=none;align=center;verticalAlign=middle;whiteSpace=wrap;rounded=0;" parent="PkrCJLOyWz4gt9OvDnAF-1" vertex="1">
          <mxGeometry x="124" y="320" width="96" height="20" as="geometry" />
        </mxCell>
        <mxCell id="PkrCJLOyWz4gt9OvDnAF-40" value="Ici, le problÃ¨me de plusieurs interfaces WiFi est le fait que cela gÃ©nÃ¨re des interfÃ©rences" style="text;html=1;align=center;verticalAlign=middle;resizable=0;points=[];autosize=1;strokeColor=none;fillColor=none;" parent="PkrCJLOyWz4gt9OvDnAF-1" vertex="1">
          <mxGeometry x="135" y="465" width="490" height="30" as="geometry" />
        </mxCell>
        <mxCell id="QDRlh8L4m7ettu_ZdRI--0" value="" style="endArrow=classic;html=1;rounded=0;entryX=0.5;entryY=0;entryDx=0;entryDy=0;fillColor=#6a00ff;strokeColor=#9933FF;" parent="PkrCJLOyWz4gt9OvDnAF-1" target="PkrCJLOyWz4gt9OvDnAF-15" edge="1">
          <mxGeometry width="50" height="50" relative="1" as="geometry">
            <mxPoint x="560" y="100" as="sourcePoint" />
            <mxPoint x="630" y="220" as="targetPoint" />
            <Array as="points">
              <mxPoint x="560" y="180" />
              <mxPoint x="704" y="180" />
            </Array>
          </mxGeometry>
        </mxCell>
      </root>
    </mxGraphModel>
  </diagram>
  <diagram name="ItÃ©ration mai" id="0HSKTBxMh3QKB9nJBk0c">
    <mxGraphModel dx="984" dy="719" grid="1" gridSize="10" guides="1" tooltips="1" connect="1" arrows="1" fold="1" page="1" pageScale="1" pageWidth="827" pageHeight="1169" math="0" shadow="0">
      <root>
        <mxCell id="ssXKZoIXMw_clV5r7k0g-0" />
        <mxCell id="ssXKZoIXMw_clV5r7k0g-1" parent="ssXKZoIXMw_clV5r7k0g-0" />
        <mxCell id="5PjXMCbcHdsdwSLask4Z-5" value="" style="rounded=0;whiteSpace=wrap;html=1;fontSize=11;fillColor=none;dashed=1;strokeWidth=2;strokeColor=#46B046;noLabel=0;backgroundOutline=1;" parent="ssXKZoIXMw_clV5r7k0g-1" vertex="1">
          <mxGeometry x="110.00000000000001" y="22.5" width="387.37" height="177.5" as="geometry" />
        </mxCell>
        <mxCell id="ssXKZoIXMw_clV5r7k0g-2" value="" style="rounded=0;whiteSpace=wrap;html=1;fontSize=11;fillColor=none;dashed=1;strokeWidth=2;strokeColor=#FF9933;" parent="ssXKZoIXMw_clV5r7k0g-1" vertex="1">
          <mxGeometry x="530" y="330" width="470" height="560" as="geometry" />
        </mxCell>
        <mxCell id="ssXKZoIXMw_clV5r7k0g-3" value="" style="endArrow=classic;html=1;rounded=0;fontSize=11;strokeColor=#990000;exitX=0.363;exitY=1.059;exitDx=0;exitDy=0;exitPerimeter=0;startArrow=none;startFill=0;endFill=1;entryX=0.34;entryY=-0.008;entryDx=0;entryDy=0;entryPerimeter=0;" parent="ssXKZoIXMw_clV5r7k0g-1" source="ssXKZoIXMw_clV5r7k0g-96" target="ssXKZoIXMw_clV5r7k0g-97" edge="1">
          <mxGeometry width="50" height="50" relative="1" as="geometry">
            <mxPoint x="920.04" y="693.3600000000001" as="sourcePoint" />
            <mxPoint x="700" y="760" as="targetPoint" />
            <Array as="points">
              <mxPoint x="921" y="750" />
              <mxPoint x="700" y="750" />
            </Array>
          </mxGeometry>
        </mxCell>
        <mxCell id="ssXKZoIXMw_clV5r7k0g-4" value="" style="rounded=0;whiteSpace=wrap;html=1;fontSize=11;fillColor=none;dashed=1;strokeWidth=2;strokeColor=#3399FF;" parent="ssXKZoIXMw_clV5r7k0g-1" vertex="1">
          <mxGeometry x="110" y="220" width="390" height="670" as="geometry" />
        </mxCell>
        <mxCell id="ssXKZoIXMw_clV5r7k0g-5" value="" style="rounded=0;whiteSpace=wrap;html=1;dashed=1;fillColor=none;" parent="ssXKZoIXMw_clV5r7k0g-1" vertex="1">
          <mxGeometry x="380" y="246" width="110" height="94" as="geometry" />
        </mxCell>
        <mxCell id="ssXKZoIXMw_clV5r7k0g-8" value="Raspberry Pi 4" style="rounded=0;whiteSpace=wrap;html=1;" parent="ssXKZoIXMw_clV5r7k0g-1" vertex="1">
          <mxGeometry x="242.5" y="290" width="120" height="60" as="geometry" />
        </mxCell>
        <mxCell id="ssXKZoIXMw_clV5r7k0g-10" value="&lt;font&gt;Picamera&lt;/font&gt;" style="rounded=0;whiteSpace=wrap;html=1;fontColor=#000000;" parent="ssXKZoIXMw_clV5r7k0g-1" vertex="1">
          <mxGeometry x="398" y="262" width="80" height="60" as="geometry" />
        </mxCell>
        <mxCell id="ssXKZoIXMw_clV5r7k0g-11" value="" style="endArrow=classic;html=1;rounded=0;fontColor=#000000;exitX=0.525;exitY=0.002;exitDx=0;exitDy=0;strokeWidth=1;startArrow=none;startFill=0;endFill=1;entryX=0.75;entryY=0;entryDx=0;entryDy=0;exitPerimeter=0;" parent="ssXKZoIXMw_clV5r7k0g-1" target="ssXKZoIXMw_clV5r7k0g-8" edge="1">
          <mxGeometry width="50" height="50" relative="1" as="geometry">
            <mxPoint x="440" y="262.12" as="sourcePoint" />
            <mxPoint x="332.5" y="280" as="targetPoint" />
            <Array as="points">
              <mxPoint x="440" y="240" />
              <mxPoint x="333" y="240" />
            </Array>
          </mxGeometry>
        </mxCell>
        <mxCell id="ssXKZoIXMw_clV5r7k0g-12" value="" style="endArrow=classic;dashed=1;html=1;rounded=0;fontColor=#000000;strokeColor=#FF00FF;dashPattern=1 1;startArrow=classic;startFill=1;endFill=1;entryX=1.009;entryY=0.794;entryDx=0;entryDy=0;entryPerimeter=0;exitX=0.5;exitY=0;exitDx=0;exitDy=0;" parent="ssXKZoIXMw_clV5r7k0g-1" source="ssXKZoIXMw_clV5r7k0g-8" target="5PjXMCbcHdsdwSLask4Z-1" edge="1">
          <mxGeometry width="50" height="50" relative="1" as="geometry">
            <mxPoint x="360" y="280" as="sourcePoint" />
            <mxPoint x="230" y="110" as="targetPoint" />
            <Array as="points">
              <mxPoint x="303" y="150" />
            </Array>
          </mxGeometry>
        </mxCell>
        <mxCell id="5PjXMCbcHdsdwSLask4Z-3" value="&lt;font color=&quot;#ff00ff&quot;&gt;Wi-Fi&lt;/font&gt;" style="edgeLabel;html=1;align=center;verticalAlign=middle;resizable=0;points=[];" parent="ssXKZoIXMw_clV5r7k0g-12" vertex="1" connectable="0">
          <mxGeometry x="0.6277" y="1" relative="1" as="geometry">
            <mxPoint x="-4" as="offset" />
          </mxGeometry>
        </mxCell>
        <mxCell id="ssXKZoIXMw_clV5r7k0g-15" value="" style="endArrow=none;html=1;rounded=0;fontColor=#000000;strokeColor=#009900;exitX=0.379;exitY=0.039;exitDx=0;exitDy=0;exitPerimeter=0;" parent="ssXKZoIXMw_clV5r7k0g-1" source="ssXKZoIXMw_clV5r7k0g-18" edge="1">
          <mxGeometry width="50" height="50" relative="1" as="geometry">
            <mxPoint x="585" y="539.9999999999999" as="sourcePoint" />
            <mxPoint x="585" y="400" as="targetPoint" />
            <Array as="points">
              <mxPoint x="247" y="460" />
              <mxPoint x="585" y="460" />
            </Array>
          </mxGeometry>
        </mxCell>
        <mxCell id="ssXKZoIXMw_clV5r7k0g-16" value="" style="endArrow=none;html=1;rounded=0;fontColor=#000000;strokeColor=#00CCCC;exitX=0.5;exitY=0;exitDx=0;exitDy=0;" parent="ssXKZoIXMw_clV5r7k0g-1" edge="1">
          <mxGeometry width="50" height="50" relative="1" as="geometry">
            <mxPoint x="255" y="520" as="sourcePoint" />
            <mxPoint x="575" y="410" as="targetPoint" />
            <Array as="points">
              <mxPoint x="255" y="470" />
              <mxPoint x="575" y="470" />
            </Array>
          </mxGeometry>
        </mxCell>
        <mxCell id="ssXKZoIXMw_clV5r7k0g-17" value="" style="endArrow=none;html=1;rounded=0;strokeColor=#009900;" parent="ssXKZoIXMw_clV5r7k0g-1" edge="1">
          <mxGeometry width="50" height="50" relative="1" as="geometry">
            <mxPoint x="585" y="399.9999999999999" as="sourcePoint" />
            <mxPoint x="730" y="540" as="targetPoint" />
            <Array as="points">
              <mxPoint x="730" y="400" />
            </Array>
          </mxGeometry>
        </mxCell>
        <mxCell id="ssXKZoIXMw_clV5r7k0g-18" value="&lt;font&gt;ESP32&amp;nbsp;&lt;/font&gt;" style="rounded=0;whiteSpace=wrap;html=1;fontColor=#000000;" parent="ssXKZoIXMw_clV5r7k0g-1" vertex="1">
          <mxGeometry x="220" y="520" width="70" height="40" as="geometry" />
        </mxCell>
        <mxCell id="ssXKZoIXMw_clV5r7k0g-19" value="IBT2" style="rounded=0;whiteSpace=wrap;html=1;fontColor=#000000;" parent="ssXKZoIXMw_clV5r7k0g-1" vertex="1">
          <mxGeometry x="170" y="600" width="70" height="40" as="geometry" />
        </mxCell>
        <mxCell id="ssXKZoIXMw_clV5r7k0g-20" value="" style="endArrow=none;html=1;rounded=0;fontColor=#000000;strokeColor=#9999FF;exitX=0.288;exitY=0.018;exitDx=0;exitDy=0;exitPerimeter=0;endFill=0;startArrow=classic;startFill=1;entryX=0.131;entryY=1.055;entryDx=0;entryDy=0;entryPerimeter=0;" parent="ssXKZoIXMw_clV5r7k0g-1" source="ssXKZoIXMw_clV5r7k0g-19" target="ssXKZoIXMw_clV5r7k0g-18" edge="1">
          <mxGeometry width="50" height="50" relative="1" as="geometry">
            <mxPoint x="241" y="601.4" as="sourcePoint" />
            <mxPoint x="240" y="559.9999999999999" as="targetPoint" />
            <Array as="points">
              <mxPoint x="190" y="580" />
              <mxPoint x="229" y="580" />
            </Array>
          </mxGeometry>
        </mxCell>
        <mxCell id="5PjXMCbcHdsdwSLask4Z-21" value="&lt;font style=&quot;font-size: 10px;&quot; color=&quot;#9999ff&quot;&gt;IN3&lt;/font&gt;" style="edgeLabel;html=1;align=center;verticalAlign=middle;resizable=0;points=[];" parent="ssXKZoIXMw_clV5r7k0g-20" vertex="1" connectable="0">
          <mxGeometry x="0.0629" relative="1" as="geometry">
            <mxPoint x="-8" y="-2" as="offset" />
          </mxGeometry>
        </mxCell>
        <mxCell id="ssXKZoIXMw_clV5r7k0g-21" value="" style="endArrow=none;html=1;rounded=0;fontColor=#000000;strokeColor=#9999FF;exitX=0.5;exitY=0;exitDx=0;exitDy=0;endFill=0;startArrow=classic;startFill=1;entryX=0.25;entryY=1;entryDx=0;entryDy=0;" parent="ssXKZoIXMw_clV5r7k0g-1" source="ssXKZoIXMw_clV5r7k0g-19" target="ssXKZoIXMw_clV5r7k0g-18" edge="1">
          <mxGeometry width="50" height="50" relative="1" as="geometry">
            <mxPoint x="250.16000000000008" y="600.72" as="sourcePoint" />
            <mxPoint x="250" y="559.9999999999999" as="targetPoint" />
            <Array as="points">
              <mxPoint x="205" y="590" />
              <mxPoint x="238" y="590" />
            </Array>
          </mxGeometry>
        </mxCell>
        <mxCell id="5PjXMCbcHdsdwSLask4Z-22" value="&lt;font color=&quot;#9999ff&quot; style=&quot;font-size: 10px;&quot;&gt;IN4&lt;/font&gt;" style="edgeLabel;html=1;align=center;verticalAlign=middle;resizable=0;points=[];" parent="ssXKZoIXMw_clV5r7k0g-21" vertex="1" connectable="0">
          <mxGeometry x="-0.2192" y="-1" relative="1" as="geometry">
            <mxPoint y="-1" as="offset" />
          </mxGeometry>
        </mxCell>
        <mxCell id="ssXKZoIXMw_clV5r7k0g-22" value="" style="endArrow=none;html=1;rounded=0;fontColor=#000000;strokeColor=#9999FF;endFill=0;startArrow=classic;startFill=1;exitX=0.171;exitY=0.017;exitDx=0;exitDy=0;exitPerimeter=0;" parent="ssXKZoIXMw_clV5r7k0g-1" source="ssXKZoIXMw_clV5r7k0g-44" edge="1">
          <mxGeometry width="50" height="50" relative="1" as="geometry">
            <mxPoint x="300" y="590" as="sourcePoint" />
            <mxPoint x="270" y="560" as="targetPoint" />
            <Array as="points">
              <mxPoint x="277" y="580" />
              <mxPoint x="270" y="580" />
            </Array>
          </mxGeometry>
        </mxCell>
        <mxCell id="5PjXMCbcHdsdwSLask4Z-20" value="&lt;font style=&quot;font-size: 10px;&quot; color=&quot;#9999ff&quot;&gt;IN2&lt;/font&gt;" style="edgeLabel;html=1;align=center;verticalAlign=middle;resizable=0;points=[];" parent="ssXKZoIXMw_clV5r7k0g-22" vertex="1" connectable="0">
          <mxGeometry x="-0.217" relative="1" as="geometry">
            <mxPoint x="-6" y="-3" as="offset" />
          </mxGeometry>
        </mxCell>
        <mxCell id="ssXKZoIXMw_clV5r7k0g-23" value="" style="endArrow=none;html=1;rounded=0;fontColor=#000000;strokeColor=#9999FF;endFill=0;startArrow=classic;startFill=1;exitX=0.367;exitY=-0.024;exitDx=0;exitDy=0;exitPerimeter=0;" parent="ssXKZoIXMw_clV5r7k0g-1" source="ssXKZoIXMw_clV5r7k0g-44" edge="1">
          <mxGeometry width="50" height="50" relative="1" as="geometry">
            <mxPoint x="300" y="590" as="sourcePoint" />
            <mxPoint x="280" y="560" as="targetPoint" />
            <Array as="points">
              <mxPoint x="290" y="570" />
              <mxPoint x="280" y="570" />
            </Array>
          </mxGeometry>
        </mxCell>
        <mxCell id="5PjXMCbcHdsdwSLask4Z-19" value="&lt;font style=&quot;font-size: 10px;&quot; color=&quot;#9999ff&quot;&gt;IN1&lt;/font&gt;" style="edgeLabel;html=1;align=center;verticalAlign=middle;resizable=0;points=[];" parent="ssXKZoIXMw_clV5r7k0g-23" vertex="1" connectable="0">
          <mxGeometry x="-0.049" relative="1" as="geometry">
            <mxPoint y="-5" as="offset" />
          </mxGeometry>
        </mxCell>
        <mxCell id="ssXKZoIXMw_clV5r7k0g-24" value="" style="endArrow=classic;html=1;rounded=0;fontColor=#000000;strokeColor=#FF3333;exitX=0;exitY=0.5;exitDx=0;exitDy=0;entryX=0.096;entryY=0.011;entryDx=0;entryDy=0;entryPerimeter=0;" parent="ssXKZoIXMw_clV5r7k0g-1" source="ssXKZoIXMw_clV5r7k0g-18" target="ssXKZoIXMw_clV5r7k0g-19" edge="1">
          <mxGeometry width="50" height="50" relative="1" as="geometry">
            <mxPoint x="190" y="610" as="sourcePoint" />
            <mxPoint x="180" y="610" as="targetPoint" />
            <Array as="points">
              <mxPoint x="177" y="540" />
            </Array>
          </mxGeometry>
        </mxCell>
        <mxCell id="ssXKZoIXMw_clV5r7k0g-25" value="M" style="ellipse;whiteSpace=wrap;html=1;aspect=fixed;fontColor=default;" parent="ssXKZoIXMw_clV5r7k0g-1" vertex="1">
          <mxGeometry x="180" y="690" width="32.5" height="32.5" as="geometry" />
        </mxCell>
        <mxCell id="ssXKZoIXMw_clV5r7k0g-26" value="SDA" style="text;html=1;strokeColor=none;fillColor=none;align=center;verticalAlign=middle;whiteSpace=wrap;rounded=0;fontColor=#009900;fontSize=9;rotation=0;" parent="ssXKZoIXMw_clV5r7k0g-1" vertex="1">
          <mxGeometry x="262" y="361" width="30" height="10" as="geometry" />
        </mxCell>
        <mxCell id="ssXKZoIXMw_clV5r7k0g-27" value="SCL" style="text;html=1;strokeColor=none;fillColor=none;align=center;verticalAlign=middle;whiteSpace=wrap;rounded=0;fontColor=#00CCCC;fontSize=9;rotation=0;" parent="ssXKZoIXMw_clV5r7k0g-1" vertex="1">
          <mxGeometry x="309.5" y="381" width="30" height="10" as="geometry" />
        </mxCell>
        <mxCell id="ssXKZoIXMw_clV5r7k0g-28" value="" style="endArrow=none;html=1;rounded=0;strokeColor=#00CCCC;" parent="ssXKZoIXMw_clV5r7k0g-1" edge="1">
          <mxGeometry width="50" height="50" relative="1" as="geometry">
            <mxPoint x="575" y="409.9999999999999" as="sourcePoint" />
            <mxPoint x="720" y="540" as="targetPoint" />
            <Array as="points">
              <mxPoint x="720" y="410" />
            </Array>
          </mxGeometry>
        </mxCell>
        <mxCell id="ssXKZoIXMw_clV5r7k0g-31" value="" style="endArrow=none;html=1;rounded=0;fontSize=11;fontColor=#000000;strokeColor=#FC7E00;strokeWidth=1;entryX=0.5;entryY=1;entryDx=0;entryDy=0;exitX=0.147;exitY=-0.008;exitDx=0;exitDy=0;exitPerimeter=0;startArrow=classicThin;startFill=1;" parent="ssXKZoIXMw_clV5r7k0g-1" source="ssXKZoIXMw_clV5r7k0g-18" target="ssXKZoIXMw_clV5r7k0g-25" edge="1">
          <mxGeometry width="50" height="50" relative="1" as="geometry">
            <mxPoint x="505" y="400" as="sourcePoint" />
            <mxPoint x="355" y="640" as="targetPoint" />
            <Array as="points">
              <mxPoint x="230" y="480" />
              <mxPoint x="150" y="480" />
              <mxPoint x="150" y="770" />
              <mxPoint x="196" y="770" />
            </Array>
          </mxGeometry>
        </mxCell>
        <mxCell id="ssXKZoIXMw_clV5r7k0g-32" value="&lt;font color=&quot;#ff0000&quot;&gt;+3,3V&lt;/font&gt;" style="text;html=1;strokeColor=none;fillColor=none;align=center;verticalAlign=middle;whiteSpace=wrap;rounded=0;fontSize=11;fontColor=#000000;" parent="ssXKZoIXMw_clV5r7k0g-1" vertex="1">
          <mxGeometry x="180" y="520" width="45" height="20" as="geometry" />
        </mxCell>
        <mxCell id="ssXKZoIXMw_clV5r7k0g-33" value="" style="endArrow=none;html=1;rounded=0;fontSize=11;fontColor=#FF0000;strokeColor=#E07000;strokeWidth=1;entryX=0.5;entryY=1;entryDx=0;entryDy=0;exitX=0.75;exitY=0;exitDx=0;exitDy=0;startArrow=classicThin;startFill=1;" parent="ssXKZoIXMw_clV5r7k0g-1" source="ssXKZoIXMw_clV5r7k0g-18" target="ssXKZoIXMw_clV5r7k0g-48" edge="1">
          <mxGeometry width="50" height="50" relative="1" as="geometry">
            <mxPoint x="270" y="510" as="sourcePoint" />
            <mxPoint x="266.25" y="722.5" as="targetPoint" />
            <Array as="points">
              <mxPoint x="273" y="480" />
              <mxPoint x="360" y="480" />
              <mxPoint x="360" y="770" />
              <mxPoint x="296" y="770" />
            </Array>
          </mxGeometry>
        </mxCell>
        <mxCell id="ssXKZoIXMw_clV5r7k0g-34" value="Sensor" style="text;html=1;align=center;verticalAlign=middle;resizable=0;points=[];autosize=1;strokeColor=none;fillColor=none;fontStyle=1" parent="ssXKZoIXMw_clV5r7k0g-1" vertex="1">
          <mxGeometry x="414" y="345" width="50" height="20" as="geometry" />
        </mxCell>
        <mxCell id="ssXKZoIXMw_clV5r7k0g-37" value="" style="endArrow=classic;html=1;rounded=0;strokeWidth=1;entryX=1;entryY=0.25;entryDx=0;entryDy=0;strokeColor=#FF0000;exitX=0.893;exitY=1.001;exitDx=0;exitDy=0;exitPerimeter=0;" parent="ssXKZoIXMw_clV5r7k0g-1" source="ssXKZoIXMw_clV5r7k0g-8" target="ssXKZoIXMw_clV5r7k0g-18" edge="1">
          <mxGeometry width="50" height="50" relative="1" as="geometry">
            <mxPoint x="560.4649999999999" y="350.9" as="sourcePoint" />
            <mxPoint x="630" y="560" as="targetPoint" />
            <Array as="points">
              <mxPoint x="350" y="530" />
            </Array>
          </mxGeometry>
        </mxCell>
        <mxCell id="ssXKZoIXMw_clV5r7k0g-38" value="" style="endArrow=classic;html=1;rounded=0;strokeWidth=1;strokeColor=#FF0000;" parent="ssXKZoIXMw_clV5r7k0g-1" edge="1">
          <mxGeometry width="50" height="50" relative="1" as="geometry">
            <mxPoint x="350" y="390" as="sourcePoint" />
            <mxPoint x="750" y="540" as="targetPoint" />
            <Array as="points">
              <mxPoint x="750" y="390" />
            </Array>
          </mxGeometry>
        </mxCell>
        <mxCell id="ssXKZoIXMw_clV5r7k0g-39" value="&lt;font color=&quot;#ff0000&quot;&gt;+3,3V&lt;/font&gt;" style="text;html=1;strokeColor=none;fillColor=none;align=center;verticalAlign=middle;whiteSpace=wrap;rounded=0;fontSize=11;fontColor=#000000;rotation=0;" parent="ssXKZoIXMw_clV5r7k0g-1" vertex="1">
          <mxGeometry x="346" y="391" width="45" height="20" as="geometry" />
        </mxCell>
        <mxCell id="ssXKZoIXMw_clV5r7k0g-40" style="rounded=0;orthogonalLoop=1;jettySize=auto;html=1;startArrow=none;startFill=0;strokeColor=#990000;endArrow=classic;endFill=1;entryX=1;entryY=0.5;entryDx=0;entryDy=0;exitX=0;exitY=0.75;exitDx=0;exitDy=0;" parent="ssXKZoIXMw_clV5r7k0g-1" source="ssXKZoIXMw_clV5r7k0g-42" target="ssXKZoIXMw_clV5r7k0g-44" edge="1">
          <mxGeometry relative="1" as="geometry">
            <mxPoint x="370" y="610" as="targetPoint" />
            <Array as="points">
              <mxPoint x="400" y="590" />
              <mxPoint x="400" y="620" />
            </Array>
          </mxGeometry>
        </mxCell>
        <mxCell id="ssXKZoIXMw_clV5r7k0g-41" style="edgeStyle=none;rounded=0;orthogonalLoop=1;jettySize=auto;html=1;exitX=0.5;exitY=1;exitDx=0;exitDy=0;entryX=0.5;entryY=0;entryDx=0;entryDy=0;fontSize=11;startArrow=none;startFill=0;endArrow=classic;endFill=1;strokeColor=#990000;" parent="ssXKZoIXMw_clV5r7k0g-1" source="ssXKZoIXMw_clV5r7k0g-42" target="ssXKZoIXMw_clV5r7k0g-56" edge="1">
          <mxGeometry relative="1" as="geometry" />
        </mxCell>
        <mxCell id="ssXKZoIXMw_clV5r7k0g-42" value="Batterie&lt;br&gt;14,8V" style="rounded=0;whiteSpace=wrap;html=1;" parent="ssXKZoIXMw_clV5r7k0g-1" vertex="1">
          <mxGeometry x="412" y="560" width="76" height="40" as="geometry" />
        </mxCell>
        <mxCell id="ssXKZoIXMw_clV5r7k0g-43" value="" style="endArrow=classic;html=1;rounded=0;strokeColor=#990000;exitX=0;exitY=0.5;exitDx=0;exitDy=0;entryX=0;entryY=0.5;entryDx=0;entryDy=0;" parent="ssXKZoIXMw_clV5r7k0g-1" source="ssXKZoIXMw_clV5r7k0g-42" target="ssXKZoIXMw_clV5r7k0g-19" edge="1">
          <mxGeometry width="50" height="50" relative="1" as="geometry">
            <mxPoint x="370" y="630" as="sourcePoint" />
            <mxPoint x="170" y="620" as="targetPoint" />
            <Array as="points">
              <mxPoint x="330" y="580" />
              <mxPoint x="330" y="500" />
              <mxPoint x="130" y="500" />
              <mxPoint x="130" y="620" />
            </Array>
          </mxGeometry>
        </mxCell>
        <mxCell id="ssXKZoIXMw_clV5r7k0g-44" value="IBT2" style="rounded=0;whiteSpace=wrap;html=1;fontColor=#000000;" parent="ssXKZoIXMw_clV5r7k0g-1" vertex="1">
          <mxGeometry x="265" y="600" width="70" height="40" as="geometry" />
        </mxCell>
        <mxCell id="ssXKZoIXMw_clV5r7k0g-46" value="" style="endArrow=classic;html=1;rounded=0;strokeColor=#007FFF;entryX=1;entryY=0;entryDx=0;entryDy=0;" parent="ssXKZoIXMw_clV5r7k0g-1" target="ssXKZoIXMw_clV5r7k0g-25" edge="1">
          <mxGeometry width="50" height="50" relative="1" as="geometry">
            <mxPoint x="220" y="640" as="sourcePoint" />
            <mxPoint x="205.8699999999999" y="690" as="targetPoint" />
          </mxGeometry>
        </mxCell>
        <mxCell id="ssXKZoIXMw_clV5r7k0g-47" value="" style="endArrow=classic;html=1;rounded=0;strokeColor=#007FFF;entryX=0;entryY=0;entryDx=0;entryDy=0;" parent="ssXKZoIXMw_clV5r7k0g-1" target="ssXKZoIXMw_clV5r7k0g-25" edge="1">
          <mxGeometry width="50" height="50" relative="1" as="geometry">
            <mxPoint x="179.9999999999999" y="640" as="sourcePoint" />
            <mxPoint x="179.9999999999999" y="690" as="targetPoint" />
          </mxGeometry>
        </mxCell>
        <mxCell id="ssXKZoIXMw_clV5r7k0g-48" value="M" style="ellipse;whiteSpace=wrap;html=1;aspect=fixed;fontColor=default;" parent="ssXKZoIXMw_clV5r7k0g-1" vertex="1">
          <mxGeometry x="280" y="690" width="32.5" height="32.5" as="geometry" />
        </mxCell>
        <mxCell id="ssXKZoIXMw_clV5r7k0g-50" value="" style="endArrow=classic;html=1;rounded=0;strokeColor=#007FFF;entryX=1;entryY=0;entryDx=0;entryDy=0;" parent="ssXKZoIXMw_clV5r7k0g-1" target="ssXKZoIXMw_clV5r7k0g-48" edge="1">
          <mxGeometry width="50" height="50" relative="1" as="geometry">
            <mxPoint x="320" y="640" as="sourcePoint" />
            <mxPoint x="305.8699999999999" y="690" as="targetPoint" />
          </mxGeometry>
        </mxCell>
        <mxCell id="ssXKZoIXMw_clV5r7k0g-51" value="" style="endArrow=classic;html=1;rounded=0;strokeColor=#007FFF;entryX=0;entryY=0;entryDx=0;entryDy=0;" parent="ssXKZoIXMw_clV5r7k0g-1" target="ssXKZoIXMw_clV5r7k0g-48" edge="1">
          <mxGeometry width="50" height="50" relative="1" as="geometry">
            <mxPoint x="279.9999999999999" y="640" as="sourcePoint" />
            <mxPoint x="279.9999999999999" y="690" as="targetPoint" />
          </mxGeometry>
        </mxCell>
        <mxCell id="ssXKZoIXMw_clV5r7k0g-52" value="" style="endArrow=classic;html=1;rounded=0;fontColor=#000000;strokeColor=#FF3333;exitX=1;exitY=0.75;exitDx=0;exitDy=0;entryX=0.75;entryY=0;entryDx=0;entryDy=0;" parent="ssXKZoIXMw_clV5r7k0g-1" source="ssXKZoIXMw_clV5r7k0g-18" target="ssXKZoIXMw_clV5r7k0g-44" edge="1">
          <mxGeometry width="50" height="50" relative="1" as="geometry">
            <mxPoint x="230" y="550" as="sourcePoint" />
            <mxPoint x="186.72000000000003" y="610.4399999999998" as="targetPoint" />
            <Array as="points">
              <mxPoint x="318" y="550" />
            </Array>
          </mxGeometry>
        </mxCell>
        <mxCell id="ssXKZoIXMw_clV5r7k0g-53" value="&lt;font color=&quot;#ff0000&quot; style=&quot;font-size: 9px;&quot;&gt;+3,3V&lt;/font&gt;" style="text;html=1;strokeColor=none;fillColor=none;align=center;verticalAlign=middle;whiteSpace=wrap;rounded=0;fontSize=9;fontColor=#000000;" parent="ssXKZoIXMw_clV5r7k0g-1" vertex="1">
          <mxGeometry x="289" y="540" width="36" height="10" as="geometry" />
        </mxCell>
        <mxCell id="ssXKZoIXMw_clV5r7k0g-54" value="&lt;font style=&quot;font-size: 11px&quot;&gt;Remote controller&amp;nbsp;&lt;/font&gt;" style="rounded=0;whiteSpace=wrap;html=1;fontSize=11;fillColor=#FFFFFF;" parent="ssXKZoIXMw_clV5r7k0g-1" vertex="1">
          <mxGeometry x="270" y="40" width="96" height="40" as="geometry" />
        </mxCell>
        <mxCell id="ssXKZoIXMw_clV5r7k0g-55" value="" style="endArrow=classic;dashed=1;html=1;rounded=0;fontColor=#000000;exitX=0.998;exitY=0.406;exitDx=0;exitDy=0;strokeColor=#FF00FF;dashPattern=1 1;startArrow=classic;startFill=1;endFill=1;exitPerimeter=0;" parent="ssXKZoIXMw_clV5r7k0g-1" source="5PjXMCbcHdsdwSLask4Z-1" target="ssXKZoIXMw_clV5r7k0g-54" edge="1">
          <mxGeometry width="50" height="50" relative="1" as="geometry">
            <mxPoint x="230" y="90" as="sourcePoint" />
            <mxPoint x="480" y="100" as="targetPoint" />
            <Array as="points">
              <mxPoint x="320" y="130" />
            </Array>
          </mxGeometry>
        </mxCell>
        <mxCell id="5PjXMCbcHdsdwSLask4Z-2" value="BlueTooth" style="edgeLabel;html=1;align=center;verticalAlign=middle;resizable=0;points=[];fontColor=#FF33FF;" parent="ssXKZoIXMw_clV5r7k0g-55" vertex="1" connectable="0">
          <mxGeometry x="0.0673" relative="1" as="geometry">
            <mxPoint x="-27" y="-2" as="offset" />
          </mxGeometry>
        </mxCell>
        <mxCell id="ssXKZoIXMw_clV5r7k0g-56" value="&lt;font style=&quot;font-size: 11px&quot;&gt;Buck&amp;nbsp; Converter&lt;/font&gt;" style="rounded=0;whiteSpace=wrap;html=1;fontSize=9;" parent="ssXKZoIXMw_clV5r7k0g-1" vertex="1">
          <mxGeometry x="410" y="630" width="80" height="40" as="geometry" />
        </mxCell>
        <mxCell id="ssXKZoIXMw_clV5r7k0g-57" value="ESC" style="rounded=0;whiteSpace=wrap;html=1;fontSize=11;" parent="ssXKZoIXMw_clV5r7k0g-1" vertex="1">
          <mxGeometry x="204" y="770" width="40" height="20" as="geometry" />
        </mxCell>
        <mxCell id="ssXKZoIXMw_clV5r7k0g-58" value="ESC" style="rounded=0;whiteSpace=wrap;html=1;fontSize=11;" parent="ssXKZoIXMw_clV5r7k0g-1" vertex="1">
          <mxGeometry x="249" y="770" width="40" height="20" as="geometry" />
        </mxCell>
        <mxCell id="ssXKZoIXMw_clV5r7k0g-59" value="" style="endArrow=classic;html=1;rounded=0;fontSize=11;strokeColor=#2D7600;exitX=0.414;exitY=1.052;exitDx=0;exitDy=0;exitPerimeter=0;entryX=0.919;entryY=-0.057;entryDx=0;entryDy=0;entryPerimeter=0;" parent="ssXKZoIXMw_clV5r7k0g-1" source="ssXKZoIXMw_clV5r7k0g-18" target="ssXKZoIXMw_clV5r7k0g-57" edge="1">
          <mxGeometry width="50" height="50" relative="1" as="geometry">
            <mxPoint x="200" y="710" as="sourcePoint" />
            <mxPoint x="250" y="660" as="targetPoint" />
          </mxGeometry>
        </mxCell>
        <mxCell id="ssXKZoIXMw_clV5r7k0g-60" value="" style="endArrow=classic;html=1;rounded=0;fontSize=11;strokeColor=#2D7600;exitX=0.367;exitY=1.061;exitDx=0;exitDy=0;exitPerimeter=0;entryX=0.25;entryY=0;entryDx=0;entryDy=0;" parent="ssXKZoIXMw_clV5r7k0g-1" target="ssXKZoIXMw_clV5r7k0g-58" edge="1">
          <mxGeometry width="50" height="50" relative="1" as="geometry">
            <mxPoint x="256.96000000000004" y="561.7900000000001" as="sourcePoint" />
            <mxPoint x="253.03" y="738.21" as="targetPoint" />
          </mxGeometry>
        </mxCell>
        <mxCell id="ssXKZoIXMw_clV5r7k0g-61" style="edgeStyle=none;rounded=0;orthogonalLoop=1;jettySize=auto;html=1;exitX=0.5;exitY=1;exitDx=0;exitDy=0;entryX=0.75;entryY=0;entryDx=0;entryDy=0;fontSize=11;startArrow=none;startFill=0;endArrow=classic;endFill=1;strokeColor=#990000;" parent="ssXKZoIXMw_clV5r7k0g-1" source="ssXKZoIXMw_clV5r7k0g-56" target="ssXKZoIXMw_clV5r7k0g-58" edge="1">
          <mxGeometry relative="1" as="geometry">
            <mxPoint x="481" y="610" as="sourcePoint" />
            <mxPoint x="481" y="640" as="targetPoint" />
            <Array as="points">
              <mxPoint x="450" y="750" />
              <mxPoint x="279" y="750" />
            </Array>
          </mxGeometry>
        </mxCell>
        <mxCell id="ssXKZoIXMw_clV5r7k0g-62" value="" style="endArrow=classic;html=1;rounded=0;fontSize=11;strokeColor=#990000;entryX=0.25;entryY=0;entryDx=0;entryDy=0;exitX=0.375;exitY=1.003;exitDx=0;exitDy=0;exitPerimeter=0;" parent="ssXKZoIXMw_clV5r7k0g-1" source="ssXKZoIXMw_clV5r7k0g-56" target="ssXKZoIXMw_clV5r7k0g-57" edge="1">
          <mxGeometry width="50" height="50" relative="1" as="geometry">
            <mxPoint x="380" y="690" as="sourcePoint" />
            <mxPoint x="300" y="690" as="targetPoint" />
            <Array as="points">
              <mxPoint x="440" y="740" />
              <mxPoint x="215" y="740" />
            </Array>
          </mxGeometry>
        </mxCell>
        <mxCell id="ssXKZoIXMw_clV5r7k0g-63" value="M.A" style="ellipse;whiteSpace=wrap;html=1;aspect=fixed;fontColor=default;" parent="ssXKZoIXMw_clV5r7k0g-1" vertex="1">
          <mxGeometry x="209" y="840" width="32.5" height="32.5" as="geometry" />
        </mxCell>
        <mxCell id="ssXKZoIXMw_clV5r7k0g-64" value="" style="endArrow=classic;html=1;rounded=0;strokeColor=#007FFF;entryX=0.5;entryY=0;entryDx=0;entryDy=0;" parent="ssXKZoIXMw_clV5r7k0g-1" target="ssXKZoIXMw_clV5r7k0g-63" edge="1">
          <mxGeometry width="50" height="50" relative="1" as="geometry">
            <mxPoint x="224.8699999999999" y="790" as="sourcePoint" />
            <mxPoint x="224.87" y="840" as="targetPoint" />
          </mxGeometry>
        </mxCell>
        <mxCell id="ssXKZoIXMw_clV5r7k0g-65" value="" style="endArrow=classic;html=1;rounded=0;strokeColor=#007FFF;entryX=1;entryY=0;entryDx=0;entryDy=0;exitX=0.865;exitY=1.003;exitDx=0;exitDy=0;exitPerimeter=0;" parent="ssXKZoIXMw_clV5r7k0g-1" source="ssXKZoIXMw_clV5r7k0g-57" target="ssXKZoIXMw_clV5r7k0g-63" edge="1">
          <mxGeometry width="50" height="50" relative="1" as="geometry">
            <mxPoint x="249" y="790" as="sourcePoint" />
            <mxPoint x="234.8699999999999" y="840" as="targetPoint" />
          </mxGeometry>
        </mxCell>
        <mxCell id="ssXKZoIXMw_clV5r7k0g-66" value="" style="endArrow=classic;html=1;rounded=0;strokeColor=#007FFF;entryX=0;entryY=0;entryDx=0;entryDy=0;" parent="ssXKZoIXMw_clV5r7k0g-1" target="ssXKZoIXMw_clV5r7k0g-63" edge="1">
          <mxGeometry width="50" height="50" relative="1" as="geometry">
            <mxPoint x="208.9999999999999" y="790" as="sourcePoint" />
            <mxPoint x="208.9999999999999" y="840" as="targetPoint" />
          </mxGeometry>
        </mxCell>
        <mxCell id="ssXKZoIXMw_clV5r7k0g-67" value="M.A" style="ellipse;whiteSpace=wrap;html=1;aspect=fixed;fontColor=default;" parent="ssXKZoIXMw_clV5r7k0g-1" vertex="1">
          <mxGeometry x="255.5" y="840" width="32.5" height="32.5" as="geometry" />
        </mxCell>
        <mxCell id="ssXKZoIXMw_clV5r7k0g-68" value="" style="endArrow=classic;html=1;rounded=0;strokeColor=#007FFF;entryX=0.5;entryY=0;entryDx=0;entryDy=0;" parent="ssXKZoIXMw_clV5r7k0g-1" target="ssXKZoIXMw_clV5r7k0g-67" edge="1">
          <mxGeometry width="50" height="50" relative="1" as="geometry">
            <mxPoint x="271.3699999999999" y="790" as="sourcePoint" />
            <mxPoint x="271.37" y="840" as="targetPoint" />
          </mxGeometry>
        </mxCell>
        <mxCell id="ssXKZoIXMw_clV5r7k0g-69" value="" style="endArrow=classic;html=1;rounded=0;strokeColor=#007FFF;entryX=1;entryY=0;entryDx=0;entryDy=0;exitX=0.865;exitY=1.003;exitDx=0;exitDy=0;exitPerimeter=0;" parent="ssXKZoIXMw_clV5r7k0g-1" target="ssXKZoIXMw_clV5r7k0g-67" edge="1">
          <mxGeometry width="50" height="50" relative="1" as="geometry">
            <mxPoint x="285.1" y="790.06" as="sourcePoint" />
            <mxPoint x="281.3699999999999" y="840" as="targetPoint" />
          </mxGeometry>
        </mxCell>
        <mxCell id="ssXKZoIXMw_clV5r7k0g-70" value="" style="endArrow=classic;html=1;rounded=0;strokeColor=#007FFF;entryX=0;entryY=0;entryDx=0;entryDy=0;" parent="ssXKZoIXMw_clV5r7k0g-1" target="ssXKZoIXMw_clV5r7k0g-67" edge="1">
          <mxGeometry width="50" height="50" relative="1" as="geometry">
            <mxPoint x="255.4999999999999" y="790" as="sourcePoint" />
            <mxPoint x="255.4999999999999" y="840" as="targetPoint" />
          </mxGeometry>
        </mxCell>
        <mxCell id="ssXKZoIXMw_clV5r7k0g-71" value="+12V" style="text;html=1;strokeColor=none;fillColor=none;align=center;verticalAlign=middle;whiteSpace=wrap;rounded=0;fontSize=11;rotation=90;fontColor=#FF0000;" parent="ssXKZoIXMw_clV5r7k0g-1" vertex="1">
          <mxGeometry x="440" y="690" width="30" height="10" as="geometry" />
        </mxCell>
        <mxCell id="ssXKZoIXMw_clV5r7k0g-73" value="&lt;font&gt;ESP32&amp;nbsp;&lt;/font&gt;" style="rounded=0;whiteSpace=wrap;html=1;fontColor=#000000;" parent="ssXKZoIXMw_clV5r7k0g-1" vertex="1">
          <mxGeometry x="701" y="541" width="70" height="40" as="geometry" />
        </mxCell>
        <mxCell id="ssXKZoIXMw_clV5r7k0g-74" value="IBT2" style="rounded=0;whiteSpace=wrap;html=1;fontColor=#141414;" parent="ssXKZoIXMw_clV5r7k0g-1" vertex="1">
          <mxGeometry x="651" y="621" width="70" height="40" as="geometry" />
        </mxCell>
        <mxCell id="ssXKZoIXMw_clV5r7k0g-75" value="" style="endArrow=none;html=1;rounded=0;fontColor=#000000;strokeColor=#9999FF;exitX=0.288;exitY=0.018;exitDx=0;exitDy=0;exitPerimeter=0;endFill=0;startArrow=classic;startFill=1;entryX=0.131;entryY=1.055;entryDx=0;entryDy=0;entryPerimeter=0;" parent="ssXKZoIXMw_clV5r7k0g-1" source="ssXKZoIXMw_clV5r7k0g-74" target="ssXKZoIXMw_clV5r7k0g-73" edge="1">
          <mxGeometry width="50" height="50" relative="1" as="geometry">
            <mxPoint x="722" y="622.4" as="sourcePoint" />
            <mxPoint x="721" y="580.9999999999999" as="targetPoint" />
            <Array as="points">
              <mxPoint x="671" y="601" />
              <mxPoint x="710" y="601" />
            </Array>
          </mxGeometry>
        </mxCell>
        <mxCell id="5PjXMCbcHdsdwSLask4Z-27" value="&lt;font style=&quot;font-size: 10px;&quot; color=&quot;#9999ff&quot;&gt;IN8&lt;/font&gt;" style="edgeLabel;html=1;align=center;verticalAlign=middle;resizable=0;points=[];" parent="ssXKZoIXMw_clV5r7k0g-75" vertex="1" connectable="0">
          <mxGeometry x="0.0865" relative="1" as="geometry">
            <mxPoint x="-3" as="offset" />
          </mxGeometry>
        </mxCell>
        <mxCell id="ssXKZoIXMw_clV5r7k0g-76" value="" style="endArrow=none;html=1;rounded=0;fontColor=#000000;strokeColor=#9999FF;exitX=0.5;exitY=0;exitDx=0;exitDy=0;endFill=0;startArrow=classic;startFill=1;entryX=0.25;entryY=1;entryDx=0;entryDy=0;" parent="ssXKZoIXMw_clV5r7k0g-1" source="ssXKZoIXMw_clV5r7k0g-74" target="ssXKZoIXMw_clV5r7k0g-73" edge="1">
          <mxGeometry width="50" height="50" relative="1" as="geometry">
            <mxPoint x="731.1600000000001" y="621.72" as="sourcePoint" />
            <mxPoint x="731" y="580.9999999999999" as="targetPoint" />
            <Array as="points">
              <mxPoint x="686" y="611" />
              <mxPoint x="719" y="611" />
            </Array>
          </mxGeometry>
        </mxCell>
        <mxCell id="5PjXMCbcHdsdwSLask4Z-26" value="&lt;font style=&quot;font-size: 10px;&quot; color=&quot;#9999ff&quot;&gt;IN7&lt;/font&gt;" style="edgeLabel;html=1;align=center;verticalAlign=middle;resizable=0;points=[];" parent="ssXKZoIXMw_clV5r7k0g-76" vertex="1" connectable="0">
          <mxGeometry x="-0.003" y="1" relative="1" as="geometry">
            <mxPoint x="-4" y="1" as="offset" />
          </mxGeometry>
        </mxCell>
        <mxCell id="ssXKZoIXMw_clV5r7k0g-77" value="" style="endArrow=none;html=1;rounded=0;fontColor=#000000;strokeColor=#9999FF;endFill=0;startArrow=classic;startFill=1;exitX=0.171;exitY=0.017;exitDx=0;exitDy=0;exitPerimeter=0;" parent="ssXKZoIXMw_clV5r7k0g-1" source="ssXKZoIXMw_clV5r7k0g-86" edge="1">
          <mxGeometry width="50" height="50" relative="1" as="geometry">
            <mxPoint x="781" y="611" as="sourcePoint" />
            <mxPoint x="751" y="581" as="targetPoint" />
            <Array as="points">
              <mxPoint x="758" y="601" />
              <mxPoint x="751" y="601" />
            </Array>
          </mxGeometry>
        </mxCell>
        <mxCell id="5PjXMCbcHdsdwSLask4Z-25" value="&lt;font color=&quot;#9999ff&quot; style=&quot;font-size: 10px;&quot;&gt;IN6&lt;/font&gt;" style="edgeLabel;html=1;align=center;verticalAlign=middle;resizable=0;points=[];fontSize=10;" parent="ssXKZoIXMw_clV5r7k0g-77" vertex="1" connectable="0">
          <mxGeometry x="0.4875" relative="1" as="geometry">
            <mxPoint x="-2" as="offset" />
          </mxGeometry>
        </mxCell>
        <mxCell id="ssXKZoIXMw_clV5r7k0g-78" value="" style="endArrow=none;html=1;rounded=0;fontColor=#000000;strokeColor=#9999FF;endFill=0;startArrow=classic;startFill=1;exitX=0.367;exitY=-0.024;exitDx=0;exitDy=0;exitPerimeter=0;" parent="ssXKZoIXMw_clV5r7k0g-1" source="ssXKZoIXMw_clV5r7k0g-86" edge="1">
          <mxGeometry width="50" height="50" relative="1" as="geometry">
            <mxPoint x="781" y="611" as="sourcePoint" />
            <mxPoint x="761" y="581" as="targetPoint" />
            <Array as="points">
              <mxPoint x="771" y="591" />
              <mxPoint x="761" y="591" />
            </Array>
          </mxGeometry>
        </mxCell>
        <mxCell id="5PjXMCbcHdsdwSLask4Z-24" value="&lt;font style=&quot;font-size: 10px;&quot; color=&quot;#9999ff&quot;&gt;IN5&lt;/font&gt;" style="edgeLabel;html=1;align=center;verticalAlign=middle;resizable=0;points=[];" parent="ssXKZoIXMw_clV5r7k0g-78" vertex="1" connectable="0">
          <mxGeometry x="-0.055" relative="1" as="geometry">
            <mxPoint y="3" as="offset" />
          </mxGeometry>
        </mxCell>
        <mxCell id="ssXKZoIXMw_clV5r7k0g-79" value="" style="endArrow=classic;html=1;rounded=0;fontColor=#000000;strokeColor=#FF3333;exitX=0;exitY=0.5;exitDx=0;exitDy=0;entryX=0.096;entryY=0.011;entryDx=0;entryDy=0;entryPerimeter=0;" parent="ssXKZoIXMw_clV5r7k0g-1" source="ssXKZoIXMw_clV5r7k0g-73" target="ssXKZoIXMw_clV5r7k0g-74" edge="1">
          <mxGeometry width="50" height="50" relative="1" as="geometry">
            <mxPoint x="671" y="631" as="sourcePoint" />
            <mxPoint x="661" y="631" as="targetPoint" />
            <Array as="points">
              <mxPoint x="658" y="561" />
            </Array>
          </mxGeometry>
        </mxCell>
        <mxCell id="ssXKZoIXMw_clV5r7k0g-80" value="M" style="ellipse;whiteSpace=wrap;html=1;aspect=fixed;fontColor=default;" parent="ssXKZoIXMw_clV5r7k0g-1" vertex="1">
          <mxGeometry x="661" y="711" width="32.5" height="32.5" as="geometry" />
        </mxCell>
        <mxCell id="ssXKZoIXMw_clV5r7k0g-81" value="&lt;font color=&quot;#ff0000&quot;&gt;+3,3V&lt;/font&gt;" style="text;html=1;strokeColor=none;fillColor=none;align=center;verticalAlign=middle;whiteSpace=wrap;rounded=0;fontSize=11;fontColor=#000000;" parent="ssXKZoIXMw_clV5r7k0g-1" vertex="1">
          <mxGeometry x="654" y="541" width="45" height="20" as="geometry" />
        </mxCell>
        <mxCell id="ssXKZoIXMw_clV5r7k0g-82" style="rounded=0;orthogonalLoop=1;jettySize=auto;html=1;startArrow=none;startFill=0;strokeColor=#990000;endArrow=classic;endFill=1;entryX=1;entryY=0.5;entryDx=0;entryDy=0;exitX=0;exitY=0.75;exitDx=0;exitDy=0;" parent="ssXKZoIXMw_clV5r7k0g-1" source="ssXKZoIXMw_clV5r7k0g-84" target="ssXKZoIXMw_clV5r7k0g-86" edge="1">
          <mxGeometry relative="1" as="geometry">
            <mxPoint x="851" y="631" as="targetPoint" />
            <Array as="points">
              <mxPoint x="881" y="611" />
              <mxPoint x="881" y="641" />
            </Array>
          </mxGeometry>
        </mxCell>
        <mxCell id="ssXKZoIXMw_clV5r7k0g-83" style="edgeStyle=none;rounded=0;orthogonalLoop=1;jettySize=auto;html=1;exitX=0.5;exitY=1;exitDx=0;exitDy=0;entryX=0.5;entryY=0;entryDx=0;entryDy=0;fontSize=11;startArrow=none;startFill=0;endArrow=classic;endFill=1;strokeColor=#990000;" parent="ssXKZoIXMw_clV5r7k0g-1" source="ssXKZoIXMw_clV5r7k0g-84" target="ssXKZoIXMw_clV5r7k0g-96" edge="1">
          <mxGeometry relative="1" as="geometry" />
        </mxCell>
        <mxCell id="ssXKZoIXMw_clV5r7k0g-84" value="Batterie&lt;br&gt;14,8V" style="rounded=0;whiteSpace=wrap;html=1;" parent="ssXKZoIXMw_clV5r7k0g-1" vertex="1">
          <mxGeometry x="893" y="581" width="76" height="40" as="geometry" />
        </mxCell>
        <mxCell id="ssXKZoIXMw_clV5r7k0g-85" value="" style="endArrow=classic;html=1;rounded=0;strokeColor=#990000;exitX=0;exitY=0.5;exitDx=0;exitDy=0;entryX=0;entryY=0.5;entryDx=0;entryDy=0;" parent="ssXKZoIXMw_clV5r7k0g-1" source="ssXKZoIXMw_clV5r7k0g-84" target="ssXKZoIXMw_clV5r7k0g-74" edge="1">
          <mxGeometry width="50" height="50" relative="1" as="geometry">
            <mxPoint x="851" y="651" as="sourcePoint" />
            <mxPoint x="651" y="641" as="targetPoint" />
            <Array as="points">
              <mxPoint x="811" y="601" />
              <mxPoint x="811" y="510" />
              <mxPoint x="574" y="510" />
              <mxPoint x="574" y="641" />
            </Array>
          </mxGeometry>
        </mxCell>
        <mxCell id="ssXKZoIXMw_clV5r7k0g-86" value="IBT2" style="rounded=0;whiteSpace=wrap;html=1;fontColor=#171717;" parent="ssXKZoIXMw_clV5r7k0g-1" vertex="1">
          <mxGeometry x="746" y="621" width="70" height="40" as="geometry" />
        </mxCell>
        <mxCell id="ssXKZoIXMw_clV5r7k0g-88" value="" style="endArrow=classic;html=1;rounded=0;strokeColor=#007FFF;entryX=1;entryY=0;entryDx=0;entryDy=0;" parent="ssXKZoIXMw_clV5r7k0g-1" target="ssXKZoIXMw_clV5r7k0g-80" edge="1">
          <mxGeometry width="50" height="50" relative="1" as="geometry">
            <mxPoint x="701" y="661" as="sourcePoint" />
            <mxPoint x="686.8699999999999" y="711" as="targetPoint" />
          </mxGeometry>
        </mxCell>
        <mxCell id="ssXKZoIXMw_clV5r7k0g-89" value="" style="endArrow=classic;html=1;rounded=0;strokeColor=#007FFF;entryX=0;entryY=0;entryDx=0;entryDy=0;" parent="ssXKZoIXMw_clV5r7k0g-1" target="ssXKZoIXMw_clV5r7k0g-80" edge="1">
          <mxGeometry width="50" height="50" relative="1" as="geometry">
            <mxPoint x="661" y="661" as="sourcePoint" />
            <mxPoint x="660.9999999999999" y="711" as="targetPoint" />
          </mxGeometry>
        </mxCell>
        <mxCell id="ssXKZoIXMw_clV5r7k0g-90" value="M" style="ellipse;whiteSpace=wrap;html=1;aspect=fixed;fontColor=default;" parent="ssXKZoIXMw_clV5r7k0g-1" vertex="1">
          <mxGeometry x="761" y="711" width="32.5" height="32.5" as="geometry" />
        </mxCell>
        <mxCell id="ssXKZoIXMw_clV5r7k0g-92" value="" style="endArrow=classic;html=1;rounded=0;strokeColor=#007FFF;entryX=1;entryY=0;entryDx=0;entryDy=0;" parent="ssXKZoIXMw_clV5r7k0g-1" target="ssXKZoIXMw_clV5r7k0g-90" edge="1">
          <mxGeometry width="50" height="50" relative="1" as="geometry">
            <mxPoint x="801" y="661" as="sourcePoint" />
            <mxPoint x="786.8699999999999" y="711" as="targetPoint" />
          </mxGeometry>
        </mxCell>
        <mxCell id="ssXKZoIXMw_clV5r7k0g-93" value="" style="endArrow=classic;html=1;rounded=0;strokeColor=#007FFF;entryX=0;entryY=0;entryDx=0;entryDy=0;" parent="ssXKZoIXMw_clV5r7k0g-1" target="ssXKZoIXMw_clV5r7k0g-90" edge="1">
          <mxGeometry width="50" height="50" relative="1" as="geometry">
            <mxPoint x="761" y="661" as="sourcePoint" />
            <mxPoint x="760.9999999999999" y="711" as="targetPoint" />
          </mxGeometry>
        </mxCell>
        <mxCell id="ssXKZoIXMw_clV5r7k0g-94" value="" style="endArrow=classic;html=1;rounded=0;fontColor=#000000;strokeColor=#FF3333;exitX=1;exitY=0.75;exitDx=0;exitDy=0;entryX=0.75;entryY=0;entryDx=0;entryDy=0;" parent="ssXKZoIXMw_clV5r7k0g-1" source="ssXKZoIXMw_clV5r7k0g-73" target="ssXKZoIXMw_clV5r7k0g-86" edge="1">
          <mxGeometry width="50" height="50" relative="1" as="geometry">
            <mxPoint x="711" y="571" as="sourcePoint" />
            <mxPoint x="667.72" y="631.4399999999998" as="targetPoint" />
            <Array as="points">
              <mxPoint x="799" y="571" />
            </Array>
          </mxGeometry>
        </mxCell>
        <mxCell id="ssXKZoIXMw_clV5r7k0g-95" value="&lt;font color=&quot;#ff0000&quot; style=&quot;font-size: 9px;&quot;&gt;+3,3V&lt;/font&gt;" style="text;html=1;strokeColor=none;fillColor=none;align=center;verticalAlign=middle;whiteSpace=wrap;rounded=0;fontSize=9;fontColor=#000000;" parent="ssXKZoIXMw_clV5r7k0g-1" vertex="1">
          <mxGeometry x="772" y="558" width="36" height="10" as="geometry" />
        </mxCell>
        <mxCell id="ssXKZoIXMw_clV5r7k0g-96" value="&lt;font style=&quot;font-size: 11px&quot;&gt;Buck&amp;nbsp; Converter&lt;/font&gt;" style="rounded=0;whiteSpace=wrap;html=1;fontSize=9;" parent="ssXKZoIXMw_clV5r7k0g-1" vertex="1">
          <mxGeometry x="891" y="651" width="80" height="40" as="geometry" />
        </mxCell>
        <mxCell id="ssXKZoIXMw_clV5r7k0g-97" value="ESC" style="rounded=0;whiteSpace=wrap;html=1;fontSize=11;" parent="ssXKZoIXMw_clV5r7k0g-1" vertex="1">
          <mxGeometry x="686" y="778" width="40" height="20" as="geometry" />
        </mxCell>
        <mxCell id="ssXKZoIXMw_clV5r7k0g-98" value="ESC" style="rounded=0;whiteSpace=wrap;html=1;fontSize=11;" parent="ssXKZoIXMw_clV5r7k0g-1" vertex="1">
          <mxGeometry x="731" y="778" width="40" height="20" as="geometry" />
        </mxCell>
        <mxCell id="ssXKZoIXMw_clV5r7k0g-99" value="" style="endArrow=classic;html=1;rounded=0;fontSize=11;strokeColor=#2D7600;exitX=0.414;exitY=1.052;exitDx=0;exitDy=0;exitPerimeter=0;entryX=0.919;entryY=-0.057;entryDx=0;entryDy=0;entryPerimeter=0;" parent="ssXKZoIXMw_clV5r7k0g-1" source="ssXKZoIXMw_clV5r7k0g-73" target="ssXKZoIXMw_clV5r7k0g-97" edge="1">
          <mxGeometry width="50" height="50" relative="1" as="geometry">
            <mxPoint x="681" y="731" as="sourcePoint" />
            <mxPoint x="731" y="681" as="targetPoint" />
          </mxGeometry>
        </mxCell>
        <mxCell id="ssXKZoIXMw_clV5r7k0g-100" value="" style="endArrow=classic;html=1;rounded=0;fontSize=11;strokeColor=#2D7600;exitX=0.367;exitY=1.061;exitDx=0;exitDy=0;exitPerimeter=0;entryX=0.25;entryY=0;entryDx=0;entryDy=0;" parent="ssXKZoIXMw_clV5r7k0g-1" target="ssXKZoIXMw_clV5r7k0g-98" edge="1">
          <mxGeometry width="50" height="50" relative="1" as="geometry">
            <mxPoint x="737.96" y="582.79" as="sourcePoint" />
            <mxPoint x="734.03" y="759.21" as="targetPoint" />
          </mxGeometry>
        </mxCell>
        <mxCell id="ssXKZoIXMw_clV5r7k0g-101" style="edgeStyle=none;rounded=0;orthogonalLoop=1;jettySize=auto;html=1;exitX=0.5;exitY=1;exitDx=0;exitDy=0;entryX=0.75;entryY=0;entryDx=0;entryDy=0;fontSize=11;startArrow=none;startFill=0;endArrow=classic;endFill=1;strokeColor=#990000;" parent="ssXKZoIXMw_clV5r7k0g-1" source="ssXKZoIXMw_clV5r7k0g-96" target="ssXKZoIXMw_clV5r7k0g-98" edge="1">
          <mxGeometry relative="1" as="geometry">
            <mxPoint x="962" y="631" as="sourcePoint" />
            <mxPoint x="962" y="661" as="targetPoint" />
            <Array as="points">
              <mxPoint x="931" y="760" />
              <mxPoint x="761" y="760" />
            </Array>
          </mxGeometry>
        </mxCell>
        <mxCell id="ssXKZoIXMw_clV5r7k0g-102" value="M.A" style="ellipse;whiteSpace=wrap;html=1;aspect=fixed;fontColor=default;" parent="ssXKZoIXMw_clV5r7k0g-1" vertex="1">
          <mxGeometry x="691" y="848" width="32.5" height="32.5" as="geometry" />
        </mxCell>
        <mxCell id="ssXKZoIXMw_clV5r7k0g-103" value="" style="endArrow=classic;html=1;rounded=0;strokeColor=#007FFF;entryX=0.5;entryY=0;entryDx=0;entryDy=0;" parent="ssXKZoIXMw_clV5r7k0g-1" target="ssXKZoIXMw_clV5r7k0g-102" edge="1">
          <mxGeometry width="50" height="50" relative="1" as="geometry">
            <mxPoint x="706.8699999999999" y="798" as="sourcePoint" />
            <mxPoint x="706.87" y="848" as="targetPoint" />
          </mxGeometry>
        </mxCell>
        <mxCell id="ssXKZoIXMw_clV5r7k0g-104" value="" style="endArrow=classic;html=1;rounded=0;strokeColor=#007FFF;entryX=1;entryY=0;entryDx=0;entryDy=0;exitX=0.865;exitY=1.003;exitDx=0;exitDy=0;exitPerimeter=0;" parent="ssXKZoIXMw_clV5r7k0g-1" source="ssXKZoIXMw_clV5r7k0g-97" target="ssXKZoIXMw_clV5r7k0g-102" edge="1">
          <mxGeometry width="50" height="50" relative="1" as="geometry">
            <mxPoint x="731" y="798" as="sourcePoint" />
            <mxPoint x="716.8699999999999" y="848" as="targetPoint" />
          </mxGeometry>
        </mxCell>
        <mxCell id="ssXKZoIXMw_clV5r7k0g-105" value="" style="endArrow=classic;html=1;rounded=0;strokeColor=#007FFF;entryX=0;entryY=0;entryDx=0;entryDy=0;" parent="ssXKZoIXMw_clV5r7k0g-1" target="ssXKZoIXMw_clV5r7k0g-102" edge="1">
          <mxGeometry width="50" height="50" relative="1" as="geometry">
            <mxPoint x="691" y="798" as="sourcePoint" />
            <mxPoint x="690.9999999999999" y="848" as="targetPoint" />
          </mxGeometry>
        </mxCell>
        <mxCell id="ssXKZoIXMw_clV5r7k0g-106" value="M.A" style="ellipse;whiteSpace=wrap;html=1;aspect=fixed;fontColor=default;" parent="ssXKZoIXMw_clV5r7k0g-1" vertex="1">
          <mxGeometry x="737.5" y="848" width="32.5" height="32.5" as="geometry" />
        </mxCell>
        <mxCell id="ssXKZoIXMw_clV5r7k0g-107" value="" style="endArrow=classic;html=1;rounded=0;strokeColor=#007FFF;entryX=0.5;entryY=0;entryDx=0;entryDy=0;" parent="ssXKZoIXMw_clV5r7k0g-1" target="ssXKZoIXMw_clV5r7k0g-106" edge="1">
          <mxGeometry width="50" height="50" relative="1" as="geometry">
            <mxPoint x="753.3699999999999" y="798" as="sourcePoint" />
            <mxPoint x="753.37" y="848" as="targetPoint" />
          </mxGeometry>
        </mxCell>
        <mxCell id="ssXKZoIXMw_clV5r7k0g-108" value="" style="endArrow=classic;html=1;rounded=0;strokeColor=#007FFF;entryX=1;entryY=0;entryDx=0;entryDy=0;exitX=0.865;exitY=1.003;exitDx=0;exitDy=0;exitPerimeter=0;" parent="ssXKZoIXMw_clV5r7k0g-1" target="ssXKZoIXMw_clV5r7k0g-106" edge="1">
          <mxGeometry width="50" height="50" relative="1" as="geometry">
            <mxPoint x="767.0999999999999" y="798.06" as="sourcePoint" />
            <mxPoint x="763.3699999999999" y="848" as="targetPoint" />
          </mxGeometry>
        </mxCell>
        <mxCell id="ssXKZoIXMw_clV5r7k0g-109" value="" style="endArrow=classic;html=1;rounded=0;strokeColor=#007FFF;entryX=0;entryY=0;entryDx=0;entryDy=0;" parent="ssXKZoIXMw_clV5r7k0g-1" target="ssXKZoIXMw_clV5r7k0g-106" edge="1">
          <mxGeometry width="50" height="50" relative="1" as="geometry">
            <mxPoint x="737.5" y="798" as="sourcePoint" />
            <mxPoint x="737.4999999999999" y="848" as="targetPoint" />
          </mxGeometry>
        </mxCell>
        <mxCell id="ssXKZoIXMw_clV5r7k0g-110" value="+12V" style="text;html=1;strokeColor=none;fillColor=none;align=center;verticalAlign=middle;whiteSpace=wrap;rounded=0;fontSize=11;rotation=90;fontColor=#FF0000;" parent="ssXKZoIXMw_clV5r7k0g-1" vertex="1">
          <mxGeometry x="921" y="711" width="30" height="10" as="geometry" />
        </mxCell>
        <mxCell id="ssXKZoIXMw_clV5r7k0g-112" value="Batterie 5V" style="rounded=0;whiteSpace=wrap;html=1;" parent="ssXKZoIXMw_clV5r7k0g-1" vertex="1">
          <mxGeometry x="120" y="300" width="100" height="45" as="geometry" />
        </mxCell>
        <mxCell id="5PjXMCbcHdsdwSLask4Z-1" value="Raspberry Pi 3 B+" style="rounded=0;whiteSpace=wrap;html=1;" parent="ssXKZoIXMw_clV5r7k0g-1" vertex="1">
          <mxGeometry x="135" y="110" width="110" height="50" as="geometry" />
        </mxCell>
        <mxCell id="5PjXMCbcHdsdwSLask4Z-9" value="&lt;font color=&quot;#46b046&quot;&gt;&lt;b&gt;Module de contrÃ´le Ã  distance&lt;/b&gt;&lt;/font&gt;" style="rounded=1;whiteSpace=wrap;html=1;strokeColor=#46B046;" parent="ssXKZoIXMw_clV5r7k0g-1" vertex="1">
          <mxGeometry x="368" y="130" width="120" height="60" as="geometry" />
        </mxCell>
        <mxCell id="5PjXMCbcHdsdwSLask4Z-10" value="&lt;b style=&quot;&quot;&gt;&lt;font color=&quot;#3399fe&quot;&gt;Module avant&lt;/font&gt;&lt;/b&gt;" style="rounded=1;whiteSpace=wrap;html=1;strokeColor=#3399FF;" parent="ssXKZoIXMw_clV5r7k0g-1" vertex="1">
          <mxGeometry x="120" y="381" width="120" height="60" as="geometry" />
        </mxCell>
        <mxCell id="5PjXMCbcHdsdwSLask4Z-11" value="" style="endArrow=classic;html=1;rounded=0;exitX=1;exitY=0.25;exitDx=0;exitDy=0;strokeColor=#FF3333;entryX=0.007;entryY=0.353;entryDx=0;entryDy=0;entryPerimeter=0;" parent="ssXKZoIXMw_clV5r7k0g-1" source="ssXKZoIXMw_clV5r7k0g-112" target="ssXKZoIXMw_clV5r7k0g-8" edge="1">
          <mxGeometry width="50" height="50" relative="1" as="geometry">
            <mxPoint x="239.82" y="319" as="sourcePoint" />
            <mxPoint x="239.82" y="180" as="targetPoint" />
          </mxGeometry>
        </mxCell>
        <mxCell id="5PjXMCbcHdsdwSLask4Z-12" value="" style="endArrow=classic;html=1;rounded=0;exitX=1;exitY=0.75;exitDx=0;exitDy=0;strokeColor=#000000;entryX=0.001;entryY=0.731;entryDx=0;entryDy=0;entryPerimeter=0;" parent="ssXKZoIXMw_clV5r7k0g-1" source="ssXKZoIXMw_clV5r7k0g-112" target="ssXKZoIXMw_clV5r7k0g-8" edge="1">
          <mxGeometry width="50" height="50" relative="1" as="geometry">
            <mxPoint x="232" y="321.5" as="sourcePoint" />
            <mxPoint x="250" y="323.5" as="targetPoint" />
          </mxGeometry>
        </mxCell>
        <mxCell id="5PjXMCbcHdsdwSLask4Z-13" value="" style="endArrow=none;html=1;rounded=0;entryX=0.397;entryY=0.994;entryDx=0;entryDy=0;entryPerimeter=0;strokeColor=#009900;" parent="ssXKZoIXMw_clV5r7k0g-1" target="ssXKZoIXMw_clV5r7k0g-8" edge="1">
          <mxGeometry width="50" height="50" relative="1" as="geometry">
            <mxPoint x="290" y="460" as="sourcePoint" />
            <mxPoint x="330" y="430" as="targetPoint" />
          </mxGeometry>
        </mxCell>
        <mxCell id="5PjXMCbcHdsdwSLask4Z-14" value="" style="endArrow=none;html=1;rounded=0;entryX=0.563;entryY=0.998;entryDx=0;entryDy=0;entryPerimeter=0;strokeColor=#00cccc;" parent="ssXKZoIXMw_clV5r7k0g-1" target="ssXKZoIXMw_clV5r7k0g-8" edge="1">
          <mxGeometry width="50" height="50" relative="1" as="geometry">
            <mxPoint x="310" y="470" as="sourcePoint" />
            <mxPoint x="306.5" y="362" as="targetPoint" />
          </mxGeometry>
        </mxCell>
        <mxCell id="5PjXMCbcHdsdwSLask4Z-23" value="&lt;font style=&quot;font-size: 13px;&quot; color=&quot;#ff9933&quot;&gt;Module arriÃ¨re&lt;/font&gt;" style="rounded=1;whiteSpace=wrap;html=1;strokeColor=#FF9933;" parent="ssXKZoIXMw_clV5r7k0g-1" vertex="1">
          <mxGeometry x="840" y="370" width="120" height="60" as="geometry" />
        </mxCell>
      </root>
    </mxGraphModel>
  </diagram>
</mxfile>
